<svg width="667" height="667" viewBox="0 0 667 667" fill="none" xmlns="http://www.w3.org/2000/svg">
<path d="M115.219 514.543C115.219 514.543 42.3912 462.682 21.4262 374.405C0.461189 286.128 32.4612 179.096 93.1502 125.027C153.839 70.9584 263.08 107.372 311.633 152.614L360.184 197.855C360.184 197.855 406.528 223.233 467.219 221.026C527.91 218.819 581.976 301.578 596.319 366.682C610.662 431.786 576.459 517.852 576.459 517.852L115.219 514.543Z" fill="#D8EDFF"/>
<path d="M82.1162 527.784C82.1162 527.784 31.3572 500.199 18.1162 436.199C4.87521 372.199 62.2552 313.717 67.7712 281.717C73.2872 249.717 61.1512 209.994 111.91 179.097C162.669 148.2 253.151 159.234 287.358 151.51C321.565 143.786 361.288 90.8205 429.703 102.959C498.118 115.097 564.323 151.51 567.633 230.959C570.943 310.408 545.564 312.613 570.944 355.648C596.324 398.683 606.252 428.475 594.116 472.612C581.98 516.749 556.598 528.884 556.598 528.884L82.1162 527.784Z" fill="#D8EDFF"/>
<path d="M188.101 513.44C184.944 510.129 138.633 417.44 190.206 332.474C241.779 247.508 371.235 257.44 422.801 290.54C474.367 323.64 499.634 366.678 504.901 411.918C510.168 457.158 475.431 527.784 475.431 527.784L188.101 513.44Z" fill="#D8EDFF"/>
<path d="M551.218 357.394H491.723C489.955 357.394 488.259 356.692 487.009 355.442C485.759 354.191 485.056 352.496 485.056 350.727V321.027C485.056 319.259 485.759 317.563 487.009 316.313C488.259 315.063 489.955 314.36 491.723 314.36H551.218C552.094 314.36 552.961 314.533 553.77 314.868C554.579 315.203 555.314 315.694 555.933 316.313C556.552 316.932 557.043 317.667 557.378 318.476C557.713 319.285 557.885 320.152 557.885 321.027V350.727C557.885 351.603 557.713 352.47 557.378 353.279C557.043 354.088 556.552 354.823 555.933 355.442C555.314 356.061 554.579 356.552 553.77 356.887C552.961 357.222 552.094 357.394 551.218 357.394" fill="#0DAAFF"/>
<path d="M521.471 374.222L530.899 351.877H512.043L521.471 374.222Z" fill="#0DAAFF"/>
<path d="M521.246 328.489H538.277V330.981L546.626 326.166L538.277 321.353V323.845H521.246V328.489Z" fill="#04377D"/>
<path d="M546.626 338.281H529.595V335.789L521.246 340.602L529.595 345.417V342.924H546.626V338.281Z" fill="white"/>
<path d="M510.793 342.661L509.982 342.961C508.429 341.139 507.137 339.109 506.144 336.929C505.31 334.694 504.851 332.336 504.787 329.95L505.379 329.702L501.779 321.083C501.077 321.629 500.484 322.302 500.031 323.066C497.993 326.51 498.193 331.796 500.244 336.961C502.295 342.126 504.485 346.728 508.485 349.624C509.307 350.305 510.258 350.812 511.281 351.114C512.304 351.417 513.378 351.509 514.437 351.384L510.793 342.661Z" fill="#04377D"/>
<path d="M513.378 341.646L512.258 342.053L515.945 350.877C516.331 350.752 516.704 350.591 517.06 350.396C517.52 350.146 517.873 349.735 518.051 349.242C518.23 348.75 518.221 348.209 518.028 347.721L516.102 342.869C515.897 342.351 515.497 341.933 514.989 341.705C514.48 341.476 513.902 341.455 513.378 341.646" fill="#04377D"/>
<path d="M504.592 319.573C504.091 319.752 503.608 319.979 503.149 320.25L506.826 329.05L508.063 328.533C508.579 328.318 508.991 327.909 509.21 327.395C509.429 326.88 509.438 326.301 509.235 325.78L507.301 320.817C507.101 320.297 506.705 319.877 506.199 319.644C505.693 319.412 505.117 319.386 504.592 319.573" fill="#04377D"/>
<path d="M170.898 498.544V399.235C170.898 399.235 169.798 372.475 183.863 364.751C197.928 357.027 257.241 361.165 257.241 361.165V498.544H170.898Z" fill="#0084FF"/>
<path d="M275.77 268.199C275.77 268.199 272.185 298.268 270.805 300.751L269.426 303.234L262.526 307.923C262.526 307.923 275.77 326.682 292.046 329.716C308.322 332.75 306.946 323.096 306.946 323.096L304.463 317.855L307.77 289.164C307.77 289.164 278.253 275.647 275.77 268.199Z" fill="#FF9E8C"/>
<path d="M253.977 310.406L264.736 305.717C264.736 305.717 271.636 317.028 287.636 323.648C303.636 330.268 303.912 326.407 304.736 323.648C305.19 321.73 305.094 319.722 304.46 317.855L305.644 308.196L312.044 310.328L334.253 489.991L277.153 492.751L253.977 310.406Z" fill="white"/>
<path d="M306.667 308.383C306.667 308.383 310.528 317.302 314.115 338.268C317.702 359.234 321.015 394.544 321.84 418.82C322.665 443.096 323.219 498.544 323.219 498.544H395.219C396.046 498.544 401.012 471.233 401.012 471.233C401.012 471.233 369.564 444.29 367.912 439.877C366.812 436.934 367.36 382.405 362.669 357.303C357.978 332.201 351.91 327.142 339.219 320.888C326.104 314.426 306.667 308.383 306.667 308.383Z" fill="#04377D"/>
<path d="M344.184 466.935C344.007 466.935 343.838 466.864 343.713 466.739C343.587 466.614 343.517 466.444 343.517 466.268C343.517 464.296 343.166 436.273 342.828 409.173C342.49 382.073 342.139 354.042 342.139 352.061C342.139 351.973 342.156 351.886 342.189 351.805C342.223 351.724 342.272 351.65 342.334 351.588C342.396 351.526 342.47 351.477 342.551 351.444C342.632 351.41 342.718 351.393 342.806 351.394C342.894 351.393 342.981 351.411 343.062 351.444C343.143 351.478 343.216 351.527 343.278 351.589C343.34 351.651 343.389 351.724 343.423 351.805C343.456 351.886 343.473 351.973 343.473 352.061C343.473 354.033 343.824 382.056 344.161 409.156C344.498 436.256 344.851 464.287 344.851 466.268C344.851 466.444 344.781 466.614 344.656 466.739C344.531 466.864 344.361 466.935 344.184 466.935" fill="#8094B9"/>
<path d="M200.736 460.198L200.184 498.543H284.046C284.046 498.543 287.636 465.991 286.253 462.957C284.87 459.923 200.736 460.198 200.736 460.198Z" fill="#04377D"/>
<path d="M294.069 299.923C297.637 302.608 301.593 304.732 305.801 306.223L307.769 289.164C307.769 289.164 285.598 279.007 278.076 271.451C279.648 280.036 283.514 291.414 294.069 299.923Z" fill="#8A9CBE"/>
<path d="M333.702 212.199C337.419 219.036 339.763 226.533 340.602 234.268C341.702 246.406 340.602 277.579 330.667 290.82C320.732 304.061 300.046 300.199 290.667 292.199C282.059 284.858 273.567 276.751 271.356 260.751C269.145 244.751 276.046 214.406 295.633 208.062C315.22 201.718 333.702 212.199 333.702 212.199Z" fill="#FF9E8C"/>
<path d="M358.587 481.201C358.587 481.201 357.615 481.201 356.134 481.161C355.787 481.148 355.401 481.161 355.001 481.148C353.574 481.108 351.841 481.068 350.094 481.015L348.921 480.975C347.188 480.935 345.708 481.148 344.321 481.068H344.282C343.987 481.055 343.561 481.095 343.214 481.108C343.068 481.125 342.921 481.13 342.774 481.121C342.132 480.976 341.517 480.733 340.948 480.401C339.827 479.894 324.667 476.508 312.334 476.588C300.014 476.641 288.961 477.481 287.161 475.975C285.347 474.441 284.254 458.961 294.774 457.948L307.707 462.855C307.707 462.855 337.24 459.348 348.067 467.335C358.92 475.321 358.587 481.201 358.587 481.201Z" fill="#FF9E8C"/>
<path d="M344.281 481.068C343.986 481.053 343.561 481.095 343.213 481.107C342.875 480.573 342.496 480.066 342.081 479.588C338.748 476.188 330.694 473.988 327.773 473.28C327.644 473.25 327.533 473.17 327.463 473.057C327.393 472.945 327.371 472.809 327.401 472.68C327.434 472.55 327.517 472.438 327.631 472.369C327.746 472.299 327.884 472.277 328.014 472.307C332.266 473.333 341.294 475.961 343.854 480.268C343.933 480.388 344.146 480.803 344.281 481.068Z" fill="#04377D"/>
<path d="M350.098 481.013C349.711 481.004 349.311 480.993 348.925 480.972C345.286 474.333 339.33 472.429 331.971 470.061L331.535 469.917C331.41 469.873 331.308 469.782 331.248 469.664C331.189 469.546 331.178 469.409 331.218 469.282C331.239 469.22 331.272 469.162 331.315 469.113C331.358 469.063 331.41 469.022 331.469 468.993C331.528 468.963 331.592 468.946 331.657 468.941C331.723 468.936 331.789 468.945 331.851 468.965L332.275 469.108C340.057 471.605 346.317 473.613 350.098 481.013Z" fill="#04377D"/>
<path d="M356.135 481.16C355.788 481.151 355.402 481.155 355 481.145C352.793 476.504 345.488 468.737 335.823 466.926C335.757 466.916 335.695 466.892 335.638 466.857C335.582 466.822 335.533 466.776 335.494 466.722C335.456 466.668 335.428 466.606 335.414 466.541C335.4 466.476 335.398 466.409 335.41 466.343C335.438 466.215 335.514 466.101 335.622 466.027C335.731 465.953 335.864 465.923 335.994 465.943C345.95 467.815 353.982 475.947 356.135 481.16Z" fill="#04377D"/>
<path d="M277.977 247.096C277.977 247.096 284.046 244.196 288.322 236.061C290.867 231.316 292.15 225.997 292.046 220.613C292.046 220.613 299.77 219.372 311.357 222.82C322.944 226.268 336.736 230.957 348.321 224.337C359.906 217.717 359.909 207.096 354.253 202.681C347.92 197.738 335.353 200.75 335.353 200.75C335.353 200.75 340.18 196.061 337.56 193.302C334.94 190.543 325.421 194.13 325.421 194.13C325.421 194.13 313.84 184.889 291.908 185.996C269.976 187.103 259.494 202.405 258.253 219.509C257.012 236.613 263.218 253.716 263.218 253.716L277.977 247.096Z" fill="#04377D"/>
<path d="M322.47 251.241C321.227 254.305 321.258 257.862 320.945 261.114C320.702 263.641 320.237 266.593 322.554 268.301C323.662 269.117 328.898 271.317 326.205 273.101C325.178 273.781 323.457 273.596 322.289 273.541C321.484 273.504 320.67 273.469 319.866 273.409C319.001 273.345 318.154 273.084 317.287 273.08C317.177 273.08 317.07 273.117 316.983 273.183C316.896 273.25 316.833 273.344 316.804 273.45C316.776 273.556 316.783 273.669 316.824 273.77C316.866 273.872 316.94 273.957 317.035 274.012C318.6 274.815 320.336 275.227 322.094 275.212C323.531 275.369 324.983 275.114 326.281 274.476C326.755 274.308 327.178 274.023 327.512 273.648C327.847 273.272 328.081 272.819 328.194 272.329C328.199 271.737 328.049 271.153 327.76 270.635C327.472 270.118 327.054 269.684 326.547 269.376C325.503 268.604 324.223 268.241 323.17 267.49C321.71 266.441 321.831 264.684 321.934 263.052C322.179 259.13 323.082 255.276 323.433 251.372C323.486 250.774 322.661 250.774 322.47 251.241Z" fill="#8A9CBE"/>
<path d="M333.746 260.414C333.334 262.739 331.646 264.385 329.967 264.087C328.288 263.789 327.267 261.664 327.679 259.34C328.091 257.016 329.779 255.369 331.458 255.665C333.137 255.961 334.158 258.089 333.746 260.414Z" fill="#04377D"/>
<path d="M312.638 258.572C312.265 261.081 310.498 262.896 308.69 262.628C306.882 262.36 305.719 260.107 306.09 257.599C306.461 255.091 308.238 253.272 310.038 253.543C311.838 253.814 313.011 256.064 312.638 258.572Z" fill="#04377D"/>
<path d="M328.832 250.829C330.121 251.046 331.421 250.829 332.723 250.916C333.035 250.939 333.344 250.984 333.656 251.016C333.877 251.036 333.243 250.949 333.551 251L333.751 251.033C333.915 251.062 334.078 251.096 334.238 251.133C334.515 251.2 334.783 251.304 335.061 251.365C335.318 251.432 335.581 251.465 335.846 251.465L336.268 251.412C336.18 251.429 336.089 251.442 336.001 251.46C336.18 251.459 336.358 251.439 336.532 251.402C336.892 251.299 337.198 251.059 337.383 250.733C337.569 250.407 337.619 250.022 337.523 249.659C337.466 249.456 337.37 249.265 337.242 249.096C337.187 249.023 337.131 248.952 337.073 248.881L337.229 249.06C337.174 248.983 337.117 248.908 337.057 248.833C336.985 248.712 336.884 248.61 336.762 248.538C336.662 248.459 336.562 248.375 336.451 248.301C336.082 248.074 335.676 247.912 335.251 247.821C334.477 247.625 333.681 247.524 332.882 247.521C332.095 247.527 331.31 247.588 330.532 247.705C329.812 247.789 329.122 248.044 328.521 248.449C328.304 248.584 328.13 248.778 328.02 249.008C327.909 249.239 327.868 249.496 327.9 249.749C327.931 250.002 328.035 250.239 328.201 250.432C328.367 250.624 328.587 250.762 328.832 250.829" fill="#04377D"/>
<path d="M314.119 247.139C313.945 247.037 313.765 246.944 313.58 246.86C313.424 246.788 312.996 246.564 313.319 246.739C313.202 246.674 313.084 246.61 312.966 246.55C312.434 246.291 311.875 246.09 311.299 245.95C310.033 245.635 308.721 245.545 307.424 245.685C306.074 245.791 304.765 246.202 303.596 246.885C303.424 246.98 303.263 247.095 303.119 247.228C303.024 247.348 302.931 247.469 302.84 247.591C302.865 247.551 302.892 247.511 302.917 247.472C302.737 247.599 302.59 247.767 302.49 247.962C302.389 248.158 302.338 248.375 302.34 248.595C302.34 248.8 302.396 249.001 302.502 249.176C302.607 249.351 302.759 249.493 302.94 249.588C303.151 249.682 303.379 249.731 303.609 249.733C303.84 249.735 304.068 249.689 304.28 249.599H303.58C303.923 249.669 304.277 249.665 304.619 249.588C304.632 249.588 304.991 249.497 304.755 249.547C304.519 249.597 305.13 249.5 305.195 249.492C305.26 249.484 305.687 249.44 305.248 249.483L305.489 249.454C305.697 249.429 305.905 249.403 306.114 249.387C307.025 249.314 307.931 249.272 308.845 249.243C309.692 249.215 310.553 249.208 311.4 249.243C311.764 249.259 312.124 249.271 312.487 249.282C312.687 249.287 312.604 249.319 312.466 249.275C312.541 249.298 312.617 249.312 312.693 249.332C312.844 249.375 312.993 249.423 313.137 249.479C313.435 249.56 313.753 249.53 314.03 249.394C314.307 249.257 314.525 249.025 314.643 248.739C314.763 248.454 314.775 248.136 314.679 247.842C314.583 247.548 314.384 247.299 314.119 247.139" fill="#04377D"/>
<path d="M320.668 285.486C322.036 282.953 324.238 280.971 326.9 279.875C324.588 279.641 313.676 278.63 310.921 280.194C307.837 281.946 311.492 288.979 317.868 289.331C318.492 289.363 319.117 289.327 319.732 289.223C319.777 287.926 320.096 286.652 320.668 285.486" fill="#04377D"/>
<path d="M270.253 270.683C270.253 270.683 271.353 274.959 277.701 279.924C284.049 284.889 293.241 288.524 293.241 288.524L293.977 285.305C293.977 285.305 284.46 281.166 280.046 276.614C275.632 272.062 275.081 269.583 275.081 269.583L270.253 270.683Z" fill="#DEE2EC"/>
<path d="M295.081 282.921C297.008 282.804 298.912 283.388 300.441 284.567C301.969 285.746 303.018 287.44 303.393 289.333C303.749 291.946 301.293 294.874 295.556 292.302C288.426 289.106 289.976 283.158 295.081 282.921Z" fill="#04377D"/>
<path d="M274.253 239.096C274.253 239.096 276.453 223.243 287.081 212.475C307.353 191.924 324.597 193.164 324.597 193.164C324.597 193.164 324.46 190.264 317.976 188.064C311.89 185.989 309.153 187.096 309.153 187.096C309.153 187.096 292.46 188.475 278.392 204.061C264.324 219.647 262.805 239.509 262.805 239.509L274.253 239.096Z" fill="#DEE2EC"/>
<path d="M272.736 237.164C259.453 234.913 252.047 245.303 251.495 255.785C250.943 266.267 258.56 274.237 268.736 273.44C291.636 271.647 289.012 239.923 272.736 237.164Z" fill="white"/>
<path d="M266.122 263.253C264.444 263.279 262.792 262.838 261.35 261.979C259.909 261.12 258.734 259.877 257.958 258.388C257.067 256.781 256.632 254.96 256.7 253.122C256.769 251.285 257.338 249.502 258.346 247.964C258.383 247.91 258.43 247.864 258.485 247.828C258.54 247.792 258.602 247.767 258.666 247.754C258.731 247.742 258.797 247.743 258.862 247.756C258.926 247.77 258.987 247.795 259.041 247.832C259.096 247.869 259.143 247.917 259.18 247.972C259.216 248.028 259.241 248.09 259.254 248.155C259.266 248.22 259.265 248.287 259.251 248.352C259.238 248.417 259.211 248.478 259.173 248.532C258.267 249.917 257.757 251.523 257.698 253.176C257.639 254.83 258.033 256.468 258.837 257.913C259.545 259.284 260.632 260.422 261.969 261.192C263.306 261.962 264.836 262.33 266.377 262.253C267.813 262.246 269.225 261.885 270.489 261.202C271.752 260.52 272.828 259.537 273.622 258.34C274.551 256.903 275.133 255.27 275.322 253.569C275.512 251.868 275.304 250.147 274.715 248.54C273.522 245.402 270.249 243.261 267.273 243.653C267.142 243.671 267.009 243.635 266.904 243.555C266.799 243.475 266.73 243.356 266.712 243.224C266.695 243.093 266.73 242.96 266.811 242.855C266.891 242.75 267.01 242.681 267.141 242.663C270.621 242.199 274.276 244.576 275.649 248.191C276.291 249.947 276.517 251.829 276.309 253.687C276.101 255.545 275.464 257.329 274.449 258.899C273.568 260.229 272.373 261.322 270.97 262.081C269.567 262.84 267.999 263.243 266.403 263.253C266.31 263.253 266.215 263.253 266.122 263.253Z" fill="#7C90B6"/>
<path d="M256.46 306.544C256.46 306.544 216.184 316.475 202.116 332.475C188.048 348.475 181.427 427.375 181.151 441.992C180.875 456.609 191.082 462.683 197.151 466.82C203.22 470.957 229.978 478.405 251.495 479.511C273.012 480.617 293.427 479.511 293.427 479.511C293.427 479.511 293.358 474.82 296.667 467.923C299.738 461.523 303.632 460.199 303.632 460.199L285.151 453.579C285.151 453.579 281.914 395.587 276.875 367.511C271.081 335.233 256.46 306.544 256.46 306.544Z" fill="#04377D"/>
<path d="M323.219 444.313C323.126 444.313 323.035 444.294 322.95 444.256C322.87 444.221 322.798 444.17 322.737 444.107C322.677 444.044 322.629 443.969 322.598 443.888C322.566 443.806 322.551 443.719 322.553 443.631C322.555 443.544 322.575 443.457 322.61 443.377C326.383 434.862 330.294 418.148 332.495 406.421L332.676 405.473C333.343 402.024 334.176 397.733 332.517 394.773C331.673 393.262 329.766 389.985 327.933 386.834C326.033 383.562 324.233 380.473 323.733 379.551C322.761 377.751 325.82 372.939 330.248 366.34C331.448 364.556 332.477 363.016 333.08 361.973C334.659 359.242 333.608 356.741 332.392 353.844L331.977 352.844C330.877 350.137 329.621 347.425 328.41 344.803C327.91 343.731 327.418 342.659 326.93 341.58C326.283 340.155 325.631 338.707 324.974 337.236C321.074 328.547 317.045 319.56 311.883 310.88C311.838 310.805 311.809 310.722 311.796 310.635C311.784 310.549 311.788 310.461 311.81 310.376C311.832 310.291 311.87 310.211 311.922 310.141C311.974 310.071 312.04 310.012 312.115 309.967C312.267 309.878 312.448 309.852 312.62 309.895C312.791 309.939 312.938 310.048 313.028 310.199C318.228 318.946 322.276 327.967 326.189 336.691C326.848 338.158 327.499 339.605 328.142 341.031C328.63 342.106 329.125 343.175 329.618 344.244C330.842 346.884 332.1 349.613 333.219 352.345L333.628 353.33C334.868 356.283 336.151 359.338 334.241 362.641C333.616 363.724 332.572 365.281 331.361 367.082C329.05 370.524 324.246 377.686 324.91 378.913C325.398 379.813 327.19 382.897 329.086 386.16C330.923 389.319 332.835 392.604 333.686 394.117C335.579 397.504 334.697 402.06 333.986 405.722L333.805 406.662C333.003 410.937 328.754 432.802 323.828 443.913C323.777 444.032 323.691 444.133 323.583 444.204C323.475 444.275 323.349 444.313 323.219 444.313" fill="#8094B9"/>
<path d="M283.908 446.659C283.82 446.658 283.733 446.64 283.652 446.606C283.571 446.571 283.497 446.521 283.435 446.459C280.3 443.299 265.184 417.124 264.059 412.202C263.442 409.507 264.99 402.673 266.484 396.062C267.643 390.941 268.841 385.645 268.501 384.211C267.99 382.068 264.126 378.911 260.388 375.856C255.872 372.168 251.203 368.356 250.297 364.916C249.269 361.011 250.149 336.561 250.73 320.384C250.938 314.567 251.103 309.972 251.102 308.333C251.102 308.156 251.172 307.986 251.298 307.861C251.423 307.736 251.592 307.666 251.769 307.666C251.857 307.665 251.943 307.682 252.024 307.716C252.105 307.749 252.178 307.798 252.24 307.86C252.302 307.922 252.351 307.995 252.385 308.076C252.419 308.156 252.436 308.243 252.436 308.331C252.436 309.995 252.272 314.6 252.063 320.431C251.519 335.552 250.61 360.859 251.587 364.576C252.382 367.592 257.087 371.433 261.232 374.823C265.321 378.164 269.184 381.323 269.797 383.903C270.21 385.635 269.086 390.603 267.785 396.354C266.39 402.518 264.809 409.503 265.357 411.905C266.461 416.735 281.303 442.42 284.381 445.522C284.506 445.647 284.576 445.816 284.576 445.993C284.576 446.17 284.506 446.339 284.381 446.465C284.319 446.527 284.245 446.576 284.164 446.609C284.083 446.642 283.996 446.659 283.908 446.659" fill="#8094B9"/>
<path d="M229.702 435.211C229.671 435.21 229.64 435.208 229.609 435.204C229.434 435.179 229.276 435.086 229.17 434.944C229.063 434.803 229.017 434.626 229.041 434.451C229.532 430.983 237.184 361.917 237.536 356.627C237.541 356.539 237.563 356.453 237.601 356.374C237.639 356.295 237.693 356.224 237.759 356.166C237.826 356.108 237.903 356.064 237.986 356.037C238.069 356.009 238.158 355.998 238.245 356.006C238.421 356.018 238.586 356.099 238.702 356.232C238.818 356.365 238.877 356.538 238.866 356.715C238.513 362.011 230.851 431.166 230.362 434.638C230.339 434.796 230.26 434.942 230.139 435.047C230.018 435.152 229.863 435.21 229.702 435.211" fill="#8094B9"/>
<path d="M284.598 453.968C284.512 453.968 284.427 453.952 284.347 453.92C282.653 453.232 275.159 450.705 265.675 447.507C246.53 441.051 220.311 432.207 215.324 429.618C215.246 429.578 215.177 429.523 215.121 429.456C215.064 429.389 215.022 429.311 214.995 429.227C214.969 429.144 214.959 429.056 214.967 428.968C214.975 428.881 215 428.796 215.04 428.718C215.08 428.64 215.135 428.57 215.202 428.514C215.269 428.457 215.347 428.414 215.431 428.388C215.515 428.361 215.603 428.352 215.69 428.36C215.778 428.368 215.863 428.394 215.94 428.435C220.834 430.979 248.075 440.168 266.098 446.243C275.607 449.449 283.117 451.981 284.849 452.683C285.013 452.75 285.143 452.879 285.212 453.042C285.281 453.205 285.282 453.388 285.216 453.552C285.166 453.675 285.081 453.781 284.971 453.855C284.861 453.929 284.731 453.968 284.598 453.968" fill="#8094B9"/>
<path d="M275.392 481.469C258.543 481.469 225.879 478.432 201.066 469.656C200.984 469.627 200.908 469.582 200.843 469.523C200.778 469.464 200.725 469.393 200.687 469.314C200.65 469.235 200.628 469.149 200.623 469.062C200.619 468.974 200.632 468.887 200.661 468.804C200.72 468.638 200.842 468.502 201.002 468.425C201.161 468.349 201.344 468.339 201.51 468.397C232.856 479.486 276.707 481.38 284.865 479.548C285.038 479.51 285.219 479.541 285.369 479.636C285.519 479.73 285.626 479.88 285.665 480.053C285.685 480.139 285.687 480.228 285.673 480.314C285.658 480.401 285.626 480.484 285.579 480.558C285.532 480.633 285.471 480.697 285.399 480.748C285.327 480.798 285.246 480.834 285.16 480.853C281.93 481.358 278.66 481.565 275.392 481.469" fill="#8094B9"/>
<path d="M82.5482 315.847C87.7792 320.447 94.4042 323.398 98.9932 328.716C100.798 330.811 102.421 333.037 104.098 335.232C105.318 336.832 108.575 339.48 109.103 341.487C109.336 342.372 109.287 341.174 109.054 340.287C109.045 340.25 109.025 340.214 109.014 340.176C108.557 336.111 108.227 332.029 108.085 327.94C107.943 323.851 108.197 319.767 107.941 315.695C107.581 309.947 105.788 304.387 101.092 300.788C98.7972 299.029 95.8482 297.957 93.7372 296.005C91.7372 294.152 92.5372 292.029 93.7162 289.962C94.8162 288.029 96.1532 286.127 96.5832 283.901C96.9015 281.336 96.2809 278.743 94.8362 276.601C92.1042 272.02 86.0482 266.906 80.3082 267.592C75.5232 268.164 74.9812 273.683 75.0492 277.529C75.1162 281.266 75.4852 284.994 75.5212 288.736C75.5582 292.579 74.9052 296.348 74.8502 300.175C74.7572 306.682 77.7642 311.64 82.5482 315.847Z" fill="#35B0FF"/>
<path d="M131.146 375.555C132.57 372.112 134.305 368.806 136.327 365.676C139.146 361.343 142.273 357.12 144.165 352.267C146.098 347.312 145.814 342.014 146.005 336.796C146.145 332.961 147.284 329.137 146.977 325.296C146.829 323.452 145.766 320.469 143.377 320.775C141.521 321.012 140.418 323.314 139.705 324.782C138.535 327.38 137.522 330.047 136.672 332.766C136.312 333.818 135.972 334.889 135.511 335.903C135.247 336.494 134.402 337.934 133.606 337.738C132.251 337.403 133.481 331.869 133.682 330.889C134.695 325.968 136.219 321.389 136.43 316.326C136.737 308.982 136.166 300.239 128.983 296.226C127.104 295.175 124.727 294.55 122.943 296.121C121.182 297.67 120.684 300.354 120.423 302.564C119.623 309.347 121.218 315.769 123.391 322.151C125.189 327.415 127.327 332.855 127.483 338.487C127.634 343.912 124.812 348.718 123.483 353.842C122.129 358.768 121.562 363.877 121.803 368.98C121.788 372.293 121.91 375.571 122.151 378.873C122.375 381.91 122.638 384.946 123.008 387.973C123.084 388.585 123.153 389.222 123.235 389.862C122.068 387.051 121.66 383.834 120.695 381.011C118.978 375.99 116.983 371.076 115.337 366.032C114.075 361.834 112.592 357.706 110.892 353.665C109.205 349.908 107.169 345.934 104.024 343.177C102.18 341.493 99.7731 340.558 97.2752 340.555C95.6929 340.685 94.1336 341.016 92.6352 341.54C91.7976 341.829 90.9004 341.9 90.0278 341.747C89.1552 341.593 88.336 341.221 87.6472 340.663C82.4992 336.706 80.9342 329.611 77.1222 324.6C74.2812 320.863 67.5352 314.493 62.5772 318.568C59.9462 320.729 59.2212 324.908 59.3582 328.109C59.5312 332.128 61.2872 335.802 63.3782 339.161C65.6022 342.733 68.4782 345.932 70.5172 349.605C71.6124 351.657 72.034 354.001 71.7222 356.305C71.5422 358.605 71.3412 360.842 72.1222 363.066C74.4822 369.746 81.8512 368.813 87.5832 368.987C91.6982 369.069 95.78 369.743 99.7032 370.987C101.765 371.624 103.644 372.747 105.181 374.261C106.719 375.775 107.871 377.636 108.539 379.687C109.676 382.836 110.286 386.414 112.43 389.087C113.456 390.327 114.765 391.3 116.246 391.926C118.481 392.914 125.295 393.345 125.346 392.726C125.514 390.643 126.503 388.443 127.121 386.467C128.281 382.755 129.646 379.138 131.146 375.555Z" fill="#35B0FF"/>
<path d="M162.788 374.297C162.196 370.478 162.309 366.269 160.501 362.764C160.431 362.647 160.318 362.563 160.186 362.528C160.055 362.493 159.915 362.512 159.796 362.579C158.501 363.297 158.447 365.389 158.341 366.672C158.165 368.801 158.296 370.935 158.034 373.056C157.591 376.844 156.697 380.566 155.371 384.141C153.851 388.116 151.088 390.37 147.071 391.61C144.492 392.41 141.963 393.102 139.811 394.81C137.94 396.397 136.479 398.411 135.552 400.682C132.872 406.691 131.596 413.409 130.352 419.827C129.52 424.154 128.839 428.497 127.788 432.776C126.64 437.025 125.713 441.331 125.011 445.676C124.911 445.896 124.802 446.115 124.711 446.337C124.436 446.992 125.458 447.344 125.811 446.801C129.954 440.424 135 434.701 141.886 431.188C144.995 429.603 149.126 429.272 151.719 426.78C153.692 424.88 153.963 421.992 153.668 419.413C153.281 416.025 151.657 413.236 149.968 410.349C149.04 408.764 147.943 407.064 148.317 405.137C148.572 404.264 149.002 403.451 149.581 402.748C150.159 402.046 150.874 401.468 151.682 401.049C154.545 399.272 157.891 398.473 160.235 395.912C162.377 393.558 163.656 390.545 163.86 387.368C164.177 383.097 163.441 378.514 162.788 374.297Z" fill="#35B0FF"/>
<path d="M106.3 396.315C102.639 391.612 98.2374 387.537 93.2682 384.247C90.6192 382.488 84.3682 379.016 83.1082 384.207C82.3682 387.248 85.3452 390.24 87.3082 392.147C90.2522 395.011 93.6572 397.484 96.1412 400.787C93.0652 401.767 89.8522 401.958 87.1802 404.087C84.0162 406.606 82.5972 411.467 85.7332 414.551C87.3609 415.953 89.2047 417.084 91.1932 417.899C93.6682 419.099 96.1882 420.182 98.7242 421.242C104.2 423.527 109.744 425.847 114.415 429.596C119.175 433.415 123.651 439.872 124.028 446.103C124.065 446.698 123.839 446.156 124.193 445.884C124.388 446.059 125.041 445.745 125.037 445.399C125.053 436.27 123.168 427.239 119.5 418.88C116.006 410.863 111.576 403.289 106.3 396.315" fill="#35B0FF"/>
<path d="M93.6732 310.243C95.6902 314.428 97.7982 318.518 100.037 322.6C102.279 326.469 104.257 330.485 105.957 334.62C107.942 339.781 110.024 344.867 112.122 349.983C114.328 355.293 116.229 360.724 117.817 366.25C120.926 377.068 123.082 388.137 124.26 399.33C124.848 405.01 125.072 410.722 124.933 416.43C124.812 420.889 124.309 425.301 123.889 429.737C123.357 434.357 123.236 439.015 123.525 443.656C123.848 447.528 124.464 452.131 127.469 454.892C127.589 455.005 127.744 455.071 127.908 455.079C128.072 455.087 128.233 455.036 128.363 454.936C128.493 454.836 128.583 454.693 128.617 454.532C128.651 454.372 128.626 454.205 128.548 454.06C124.979 446.737 125.177 438.755 125.861 430.815C126.237 426.431 126.761 422.07 126.908 417.67C127.079 412.07 126.893 406.464 126.349 400.886C125.233 389.931 123.207 379.087 120.293 368.466C118.829 363.021 117.051 357.664 114.968 352.423C112.891 347.164 110.491 342.051 108.479 336.767C104.837 327.212 99.2882 318.743 94.3732 309.832C94.1182 309.37 93.4492 309.778 93.6732 310.243Z" fill="#365691"/>
<path d="M124.424 388.382C125.001 381.423 125.617 374.722 127.964 368.082C129.057 364.982 130.383 361.975 131.439 358.867C132.312 356.298 133.618 352.775 132.946 350.044C132.926 349.981 132.886 349.925 132.832 349.886C132.778 349.847 132.713 349.825 132.646 349.825C132.579 349.825 132.514 349.847 132.461 349.886C132.407 349.925 132.367 349.981 132.346 350.044C131.897 351.604 131.946 353.315 131.622 354.913C131.301 356.468 130.894 358.004 130.403 359.513C129.374 362.729 128.028 365.813 126.863 368.976C124.529 375.166 123.535 381.78 123.945 388.382C123.945 388.446 123.97 388.507 124.015 388.552C124.06 388.597 124.121 388.622 124.185 388.622C124.248 388.622 124.309 388.597 124.354 388.552C124.399 388.507 124.424 388.446 124.424 388.382" fill="#365691"/>
<path d="M84.0992 348.39C86.8622 355.063 95.1642 355.449 101.212 356.943C105.532 358.01 108.719 360.891 111.012 364.632C113.427 368.869 115.305 373.39 116.604 378.09C116.607 378.101 116.614 378.11 116.623 378.116C116.633 378.121 116.644 378.123 116.655 378.12C116.665 378.117 116.674 378.11 116.68 378.101C116.685 378.091 116.687 378.08 116.684 378.069C114.992 370.069 112.569 360.44 104.324 356.718C97.7162 353.741 89.0112 355.238 84.7842 348.101C84.5762 347.751 83.9322 347.99 84.0992 348.39Z" fill="#365691"/>
<path d="M120.058 387.326C120.386 387.77 120.687 388.234 121.027 388.669C121.187 388.887 121.371 389.086 121.576 389.261C121.78 389.477 122.051 389.615 122.345 389.653C122.374 389.653 122.403 389.645 122.428 389.63C122.453 389.616 122.474 389.594 122.489 389.569C122.503 389.544 122.511 389.515 122.511 389.486C122.511 389.457 122.504 389.428 122.489 389.402C122.324 389.2 122.13 389.022 121.913 388.875C121.713 388.7 121.513 388.528 121.321 388.348C120.937 387.983 120.583 387.586 120.205 387.213C120.133 387.141 119.993 387.239 120.058 387.326Z" fill="#365691"/>
<path d="M102.784 408.495C107.612 412.424 111.87 417.004 115.437 422.104C117.108 424.547 118.646 427.077 120.045 429.684C121.451 432.54 122.694 435.473 123.769 438.468C123.86 438.693 124.269 438.699 124.24 438.405C123.579 432.13 119.603 426.749 116.42 421.528C114.729 418.922 112.743 416.519 110.5 414.368C108.275 412.005 105.835 409.853 103.213 407.939C102.884 407.71 102.473 408.239 102.784 408.495Z" fill="#365691"/>
<path d="M140.726 401.108C138.426 402.408 138.357 406.033 138.311 408.348C138.226 412.795 139.326 416.971 137.374 421.208C135.611 425.036 132.795 428.232 130.581 431.787C128.508 435.114 126.464 439.367 126.509 443.372C126.509 443.603 126.868 443.735 126.976 443.499C127.674 441.606 128.252 439.672 128.707 437.708C129.373 435.598 130.325 433.588 131.534 431.736C133.665 428.436 136.281 425.429 138.009 421.879C139.83 418.136 139.564 414.43 139.444 410.379C139.366 407.791 139.107 403.636 141.193 401.713C141.519 401.413 141.102 400.896 140.726 401.108Z" fill="#365691"/>
<path d="M125.381 443.784C116.137 443.656 98.5292 443.555 98.5292 443.555L102.886 475.904C103.36 479.423 105.095 482.651 107.768 484.988C110.441 487.325 113.871 488.613 117.422 488.612H133.34C136.891 488.612 140.321 487.324 142.993 484.987C145.666 482.65 147.4 479.423 147.874 475.904L152.232 443.555C152.232 443.555 134.625 443.656 125.381 443.784Z" fill="white"/>
<path d="M572.184 384.337L519.447 488.797L365.702 489.896L413.15 382.865L572.184 384.337Z" fill="#F6F7FA"/>
<path d="M263.662 489.249L263.691 480.888H363.219L409.012 380.475H568.184L572.184 384.336H416.684L369.103 489.165C369.103 489.165 263.662 488.974 263.662 489.249Z" fill="#D9DFE9"/>
<path d="M492.347 441.98C490.61 447.191 481.183 451.215 471.291 450.967C461.399 450.719 454.788 446.295 456.524 441.08C458.26 435.865 467.688 431.847 477.58 432.095C487.472 432.343 494.084 436.771 492.347 441.98Z" fill="#D9DFE9"/>
<path d="M369.104 489.831C369.009 489.831 368.915 489.811 368.828 489.771C368.667 489.698 368.542 489.564 368.48 489.398C368.418 489.233 368.424 489.049 368.497 488.888L416.26 383.67H572.185C572.362 383.67 572.532 383.741 572.657 383.866C572.782 383.991 572.852 384.161 572.852 384.337C572.852 384.514 572.782 384.684 572.657 384.809C572.532 384.934 572.362 385.004 572.185 385.004H417.12L369.711 489.44C369.658 489.557 369.573 489.656 369.465 489.725C369.358 489.794 369.232 489.831 369.104 489.831" fill="white"/>
<path d="M256.735 537.715H73.8352V497.16H256.735V537.715Z" fill="#4F6B9E"/>
<path d="M584.756 537.715H255.69V497.16H584.756V537.715Z" fill="#748AB2"/>
<path d="M256.735 497.165H73.8352V504.613H584.756V497.165H256.735Z" fill="#BCC5D9"/>
<path d="M264.735 499.095H65.0122V489.16H264.735V499.095Z" fill="#6880AC"/>
<path d="M592.756 499.095H263.692V489.16H592.756V499.095Z" fill="#99A8C5"/>
<path d="M210.56 276.404H145.995C144.076 276.404 142.236 275.642 140.879 274.285C139.522 272.928 138.76 271.088 138.76 269.169V236.936C138.761 235.018 139.524 233.179 140.881 231.823C142.237 230.467 144.077 229.705 145.995 229.704H210.56C212.479 229.704 214.319 230.467 215.676 231.823C217.033 233.18 217.795 235.021 217.795 236.939V269.169C217.795 270.119 217.608 271.06 217.245 271.938C216.881 272.816 216.348 273.614 215.676 274.286C215.005 274.957 214.207 275.49 213.329 275.854C212.451 276.217 211.51 276.404 210.56 276.404" fill="white"/>
<path d="M236.194 253.053L211.945 242.821V263.285L236.194 253.053Z" fill="white"/>
<path d="M167.427 253.053C167.427 254.238 166.957 255.374 166.119 256.212C165.281 257.05 164.145 257.52 162.96 257.52C161.776 257.52 160.64 257.049 159.802 256.212C158.965 255.374 158.494 254.238 158.494 253.053C158.494 252.467 158.609 251.886 158.834 251.344C159.058 250.802 159.387 250.31 159.802 249.895C160.217 249.48 160.709 249.151 161.251 248.926C161.793 248.702 162.374 248.586 162.96 248.586C163.547 248.586 164.128 248.702 164.67 248.926C165.212 249.151 165.704 249.48 166.119 249.894C166.534 250.309 166.863 250.802 167.087 251.344C167.312 251.886 167.427 252.467 167.427 253.053" fill="#04377D"/>
<path d="M182.744 253.053C182.744 254.238 182.274 255.374 181.436 256.212C180.598 257.05 179.462 257.52 178.277 257.52C177.093 257.52 175.957 257.049 175.119 256.212C174.282 255.374 173.811 254.238 173.811 253.053C173.811 252.467 173.926 251.886 174.151 251.344C174.375 250.802 174.704 250.31 175.119 249.895C175.534 249.48 176.026 249.151 176.568 248.926C177.11 248.702 177.691 248.586 178.277 248.586C178.864 248.586 179.445 248.702 179.987 248.926C180.529 249.151 181.021 249.48 181.436 249.894C181.851 250.309 182.18 250.802 182.404 251.344C182.629 251.886 182.744 252.467 182.744 253.053" fill="#04377D"/>
<path d="M198.061 253.053C198.061 254.238 197.591 255.374 196.753 256.212C195.915 257.05 194.779 257.52 193.594 257.52C192.41 257.52 191.274 257.049 190.436 256.212C189.599 255.374 189.128 254.238 189.128 253.053C189.128 252.467 189.243 251.886 189.468 251.344C189.692 250.802 190.021 250.31 190.436 249.895C190.851 249.48 191.343 249.151 191.885 248.926C192.427 248.702 193.008 248.586 193.594 248.586C194.181 248.586 194.762 248.702 195.304 248.926C195.846 249.151 196.338 249.48 196.753 249.894C197.168 250.309 197.497 250.802 197.721 251.344C197.946 251.886 198.061 252.467 198.061 253.053" fill="#04377D"/>
<path d="M539.264 130.544H390.207C385.61 130.544 381.201 132.371 377.951 135.621C374.7 138.872 372.874 143.28 372.874 147.877V218.59C372.874 223.187 374.701 227.596 377.951 230.846C381.202 234.097 385.61 235.923 390.207 235.923H403.564C403.939 242.332 403.02 251.868 397.664 264.06C410.947 258.029 422.179 248.249 429.981 235.923H539.264C543.861 235.923 548.27 234.097 551.52 230.846C554.771 227.596 556.597 223.187 556.597 218.59V147.877C556.597 143.28 554.771 138.872 551.52 135.621C548.27 132.371 543.861 130.544 539.264 130.544" fill="#0DAAFF"/>
<path d="M475.678 164.245H401.748C401.265 164.246 400.787 164.151 400.341 163.966C399.894 163.781 399.489 163.51 399.147 163.169C398.806 162.827 398.534 162.422 398.35 161.976C398.165 161.53 398.069 161.051 398.069 160.568C398.069 160.085 398.164 159.607 398.349 159.16C398.534 158.714 398.805 158.308 399.146 157.967C399.488 157.625 399.894 157.354 400.34 157.169C400.787 156.984 401.265 156.889 401.748 156.889H475.678C476.654 156.889 477.59 157.277 478.28 157.967C478.97 158.657 479.357 159.593 479.357 160.568C479.357 161.544 478.969 162.479 478.279 163.169C477.589 163.858 476.654 164.245 475.678 164.245" fill="white"/>
<path d="M528.69 185.671H400.322C399.725 185.671 399.152 185.434 398.729 185.012C398.307 184.59 398.069 184.017 398.069 183.419C398.069 182.822 398.307 182.249 398.729 181.826C399.152 181.404 399.725 181.166 400.322 181.166H528.69C528.986 181.166 529.279 181.225 529.552 181.338C529.826 181.451 530.074 181.617 530.283 181.826C530.492 182.036 530.658 182.284 530.771 182.557C530.884 182.831 530.942 183.124 530.942 183.419C530.942 184.017 530.705 184.589 530.283 185.012C529.86 185.434 529.287 185.671 528.69 185.671" fill="#CBE7FF"/>
<path d="M528.69 198.177H400.322C399.725 198.177 399.152 197.94 398.729 197.517C398.307 197.095 398.069 196.522 398.069 195.924C398.069 195.327 398.307 194.754 398.729 194.332C399.152 193.91 399.725 193.672 400.322 193.672H528.69C528.986 193.672 529.279 193.731 529.552 193.844C529.825 193.957 530.073 194.123 530.283 194.332C530.492 194.541 530.658 194.789 530.771 195.063C530.884 195.336 530.942 195.629 530.942 195.924C530.942 196.22 530.884 196.513 530.771 196.786C530.658 197.06 530.492 197.308 530.283 197.517C530.074 197.727 529.826 197.893 529.552 198.006C529.279 198.119 528.986 198.177 528.69 198.177" fill="#CBE7FF"/>
<path d="M500.687 211.51H400.322C399.725 211.51 399.152 211.273 398.729 210.85C398.307 210.428 398.069 209.855 398.069 209.257C398.069 208.66 398.307 208.087 398.729 207.665C399.152 207.243 399.725 207.005 400.322 207.005H500.687C500.983 207.005 501.276 207.063 501.549 207.177C501.823 207.29 502.071 207.455 502.28 207.665C502.489 207.874 502.655 208.122 502.769 208.395C502.882 208.669 502.94 208.962 502.94 209.257C502.94 209.855 502.703 210.428 502.28 210.85C501.858 211.273 501.285 211.51 500.687 211.51" fill="#CBE7FF"/>
<path d="M527.682 164.245H492.414C491.931 164.246 491.453 164.151 491.007 163.966C490.56 163.781 490.155 163.51 489.813 163.169C489.472 162.827 489.2 162.422 489.016 161.976C488.831 161.53 488.735 161.051 488.735 160.568C488.735 160.085 488.83 159.607 489.015 159.16C489.2 158.714 489.471 158.308 489.812 157.967C490.154 157.625 490.56 157.354 491.006 157.169C491.453 156.984 491.931 156.889 492.414 156.889H527.682C528.165 156.89 528.643 156.985 529.09 157.17C529.536 157.355 529.941 157.626 530.283 157.967C530.624 158.309 530.895 158.715 531.08 159.161C531.264 159.607 531.359 160.085 531.359 160.568C531.359 161.544 530.971 162.479 530.282 163.168C529.592 163.858 528.657 164.245 527.682 164.245" fill="white"/>
<path d="M438.793 326.866H398.748C398.041 326.866 397.362 326.585 396.862 326.085C396.362 325.585 396.081 324.907 396.081 324.199V296.842C396.081 296.135 396.362 295.457 396.862 294.956C397.362 294.456 398.041 294.175 398.748 294.175H438.793C439.5 294.176 440.179 294.457 440.679 294.957C441.179 295.457 441.46 296.135 441.46 296.842V324.199C441.46 324.907 441.179 325.585 440.679 326.085C440.179 326.585 439.5 326.866 438.793 326.866" fill="white"/>
<path d="M419.047 315.406C418.815 315.406 418.589 315.325 418.41 315.177L396.617 297.177C396.516 297.094 396.432 296.991 396.37 296.875C396.309 296.759 396.271 296.632 396.258 296.501C396.245 296.371 396.259 296.239 396.297 296.113C396.336 295.987 396.399 295.871 396.482 295.769C396.566 295.668 396.668 295.584 396.784 295.523C396.9 295.461 397.027 295.423 397.158 295.41C397.289 295.398 397.421 295.411 397.547 295.45C397.672 295.488 397.789 295.551 397.89 295.634L419.03 313.095L439.63 295.168C439.729 295.082 439.845 295.017 439.969 294.975C440.094 294.933 440.225 294.917 440.356 294.926C440.487 294.935 440.615 294.97 440.733 295.029C440.85 295.088 440.955 295.169 441.041 295.268C441.127 295.368 441.193 295.483 441.235 295.607C441.276 295.732 441.293 295.864 441.284 295.995C441.274 296.126 441.239 296.254 441.18 296.371C441.122 296.489 441.04 296.593 440.941 296.679L419.703 315.161C419.521 315.319 419.288 315.406 419.047 315.406" fill="#6880AC"/>
<path d="M397.252 326.119C396.995 326.12 396.748 326.021 396.563 325.843C396.371 325.661 396.26 325.409 396.253 325.144C396.247 324.879 396.346 324.623 396.528 324.43L411.771 308.406C411.954 308.215 412.205 308.103 412.47 308.097C412.734 308.09 412.991 308.188 413.183 308.37C413.279 308.461 413.355 308.569 413.409 308.689C413.462 308.81 413.491 308.939 413.495 309.07C413.498 309.202 413.475 309.333 413.428 309.455C413.381 309.578 413.31 309.69 413.219 309.785L397.976 325.808C397.883 325.907 397.771 325.985 397.646 326.038C397.522 326.092 397.388 326.119 397.252 326.119" fill="#6880AC"/>
<path d="M440.288 325.533C440.157 325.533 440.026 325.508 439.905 325.457C439.784 325.407 439.673 325.333 439.58 325.24L424.399 310.017C424.306 309.924 424.232 309.814 424.182 309.693C424.132 309.571 424.106 309.441 424.106 309.31C424.106 309.178 424.132 309.048 424.182 308.927C424.232 308.806 424.306 308.695 424.399 308.602C424.492 308.509 424.602 308.436 424.724 308.385C424.845 308.335 424.975 308.309 425.107 308.309C425.238 308.309 425.368 308.335 425.49 308.385C425.611 308.436 425.721 308.509 425.814 308.602L440.996 323.826C441.089 323.919 441.163 324.03 441.213 324.151C441.264 324.272 441.289 324.402 441.289 324.534C441.289 324.665 441.264 324.795 441.213 324.917C441.163 325.038 441.089 325.148 440.996 325.241C440.903 325.334 440.793 325.408 440.671 325.458C440.55 325.508 440.42 325.534 440.288 325.533" fill="#6880AC"/>
<path d="M456.919 293.164C456.919 294.921 456.573 296.661 455.901 298.285C455.229 299.908 454.243 301.383 453.001 302.625C451.759 303.868 450.284 304.853 448.66 305.526C447.037 306.198 445.297 306.544 443.54 306.544C441.783 306.544 440.044 306.198 438.42 305.526C436.797 304.853 435.322 303.868 434.08 302.625C432.838 301.383 431.852 299.908 431.18 298.284C430.508 296.661 430.162 294.921 430.162 293.164C430.162 291.407 430.508 289.668 431.18 288.045C431.853 286.421 432.838 284.946 434.08 283.704C435.322 282.462 436.797 281.476 438.42 280.804C440.044 280.131 441.783 279.785 443.54 279.785C445.297 279.785 447.037 280.131 448.66 280.804C450.284 281.476 451.758 282.461 453.001 283.704C454.243 284.946 455.229 286.421 455.901 288.044C456.573 289.668 456.919 291.407 456.919 293.164" fill="#FF5F3E"/>
<path d="M434.847 293.353C434.847 293.03 434.886 292.717 434.964 292.415C435.048 292.113 435.17 291.834 435.331 291.579C435.493 291.324 435.696 291.095 435.941 290.892C436.186 290.688 436.472 290.524 436.8 290.399C436.316 290.129 435.93 289.782 435.644 289.36C435.358 288.933 435.214 288.462 435.214 287.946C435.214 287.535 435.298 287.155 435.464 286.806C435.636 286.457 435.871 286.155 436.167 285.899C436.47 285.644 436.824 285.446 437.23 285.306C437.636 285.16 438.079 285.087 438.558 285.087C439.042 285.087 439.488 285.16 439.894 285.306C440.305 285.451 440.66 285.652 440.956 285.907C441.259 286.162 441.493 286.465 441.66 286.813C441.826 287.162 441.91 287.54 441.91 287.946C441.91 288.462 441.766 288.933 441.48 289.36C441.193 289.782 440.813 290.129 440.339 290.399C440.662 290.524 440.946 290.688 441.191 290.892C441.441 291.09 441.649 291.316 441.816 291.571C441.983 291.826 442.108 292.105 442.191 292.407C442.274 292.709 442.316 293.024 442.316 293.353C442.316 293.842 442.225 294.29 442.042 294.696C441.86 295.103 441.605 295.451 441.277 295.743C440.949 296.03 440.555 296.254 440.097 296.415C439.639 296.576 439.134 296.657 438.581 296.657C438.035 296.657 437.532 296.576 437.074 296.415C436.621 296.254 436.227 296.03 435.894 295.743C435.566 295.451 435.308 295.103 435.121 294.696C434.938 294.29 434.847 293.842 434.847 293.353ZM436.613 293.196C436.613 293.514 436.66 293.8 436.753 294.056C436.847 294.311 436.98 294.527 437.152 294.704C437.324 294.881 437.529 295.017 437.769 295.11C438.014 295.204 438.285 295.251 438.581 295.251C438.868 295.251 439.131 295.204 439.371 295.11C439.61 295.011 439.816 294.873 439.988 294.696C440.165 294.514 440.303 294.298 440.402 294.048C440.501 293.793 440.55 293.509 440.55 293.196C440.55 292.91 440.503 292.642 440.41 292.392C440.316 292.136 440.183 291.915 440.011 291.728C439.839 291.54 439.631 291.392 439.386 291.282C439.147 291.173 438.878 291.118 438.581 291.118C438.3 291.118 438.037 291.17 437.792 291.274C437.553 291.373 437.345 291.517 437.167 291.704C436.996 291.886 436.86 292.105 436.761 292.36C436.662 292.616 436.613 292.894 436.613 293.196ZM436.996 288.134C436.996 288.368 437.037 288.587 437.121 288.79C437.204 288.988 437.316 289.162 437.456 289.313C437.597 289.459 437.761 289.574 437.949 289.657C438.141 289.741 438.347 289.782 438.566 289.782C438.785 289.782 438.988 289.741 439.175 289.657C439.368 289.569 439.535 289.451 439.675 289.306C439.821 289.155 439.936 288.98 440.019 288.782C440.102 288.579 440.144 288.363 440.144 288.134C440.144 287.899 440.102 287.681 440.019 287.478C439.941 287.274 439.831 287.1 439.691 286.954C439.55 286.808 439.384 286.694 439.191 286.61C438.998 286.527 438.79 286.485 438.566 286.485C438.331 286.485 438.118 286.53 437.925 286.618C437.733 286.701 437.566 286.819 437.425 286.97C437.29 287.121 437.183 287.298 437.105 287.501C437.032 287.699 436.996 287.91 436.996 288.134ZM444.238 296.22V294.478C444.972 294.972 445.717 295.22 446.472 295.22C447.233 295.22 447.845 295.027 448.308 294.642C448.772 294.251 449.003 293.733 449.003 293.087C449.003 292.451 448.766 291.957 448.292 291.603C447.824 291.248 447.149 291.071 446.269 291.071C445.967 291.071 445.355 291.103 444.433 291.165L444.831 285.274H450.347V286.821H446.339L446.152 289.626C446.511 289.605 446.837 289.595 447.128 289.595C448.316 289.595 449.233 289.899 449.878 290.509C450.529 291.118 450.855 291.951 450.855 293.009C450.855 294.118 450.483 295.009 449.738 295.681C448.998 296.347 447.98 296.681 446.683 296.681C445.589 296.681 444.774 296.527 444.238 296.22Z" fill="white"/>
<path d="M577.917 288.24H499.756C498.342 288.24 496.986 287.678 495.985 286.678C494.985 285.678 494.423 284.322 494.423 282.907V270.677C494.423 269.977 494.56 269.283 494.828 268.635C495.096 267.988 495.489 267.4 495.984 266.904C496.479 266.408 497.067 266.015 497.715 265.747C498.362 265.479 499.056 265.34 499.756 265.34H577.917C579.331 265.341 580.688 265.903 581.688 266.903C582.688 267.903 583.25 269.259 583.25 270.673V282.907C583.25 284.322 582.688 285.678 581.688 286.678C580.688 287.678 579.331 288.24 577.917 288.24" fill="#04377D"/>
<path d="M505.399 282.796C505.239 282.802 505.08 282.772 504.933 282.707C504.787 282.642 504.657 282.544 504.554 282.421C504.447 282.292 504.367 282.142 504.319 281.981C504.27 281.82 504.255 281.651 504.273 281.484L504.61 278.519C504.635 278.444 504.623 278.395 504.574 278.37C504.542 278.359 504.508 278.356 504.475 278.363C504.441 278.369 504.41 278.384 504.385 278.407L501.946 280.169C501.817 280.276 501.666 280.353 501.504 280.395C501.341 280.438 501.172 280.444 501.007 280.413C500.842 280.379 500.686 280.309 500.55 280.209C500.414 280.109 500.301 279.98 500.219 279.832C500.113 279.681 500.046 279.506 500.023 279.323C500 279.14 500.022 278.954 500.088 278.781C500.155 278.634 500.251 278.501 500.37 278.392C500.489 278.282 500.629 278.198 500.781 278.144L503.521 276.905C503.596 276.88 503.634 276.842 503.634 276.793C503.634 276.744 503.595 276.705 503.521 276.68L500.781 275.441C500.622 275.382 500.478 275.287 500.361 275.164C500.244 275.04 500.157 274.892 500.106 274.729C500.057 274.568 500.041 274.397 500.06 274.23C500.08 274.062 500.133 273.899 500.218 273.753C500.3 273.605 500.413 273.477 500.549 273.376C500.685 273.276 500.841 273.205 501.006 273.17C501.169 273.14 501.335 273.143 501.497 273.179C501.658 273.214 501.811 273.282 501.945 273.378L504.384 275.178C504.41 275.201 504.44 275.216 504.474 275.222C504.507 275.228 504.541 275.226 504.573 275.214C504.622 275.19 504.634 275.139 504.609 275.065L504.272 272.1C504.254 271.932 504.271 271.761 504.323 271.6C504.374 271.439 504.459 271.29 504.572 271.163C504.685 271.038 504.825 270.94 504.98 270.875C505.136 270.811 505.304 270.781 505.472 270.788C505.635 270.784 505.796 270.815 505.945 270.88C506.095 270.944 506.228 271.041 506.335 271.163C506.447 271.289 506.529 271.439 506.574 271.602C506.619 271.764 506.627 271.934 506.596 272.1L506.26 275.067C506.236 275.141 506.248 275.196 506.299 275.216C506.331 275.228 506.365 275.23 506.398 275.224C506.431 275.218 506.462 275.203 506.487 275.18L508.927 273.416C509.059 273.309 509.213 273.231 509.378 273.189C509.543 273.146 509.716 273.14 509.883 273.171C510.048 273.201 510.203 273.27 510.337 273.371C510.47 273.472 510.578 273.604 510.651 273.754C510.758 273.905 510.825 274.08 510.848 274.263C510.871 274.447 510.848 274.633 510.782 274.805C510.716 274.953 510.62 275.085 510.501 275.194C510.382 275.304 510.242 275.388 510.089 275.442L507.35 276.68C507.275 276.705 507.238 276.743 507.238 276.793C507.238 276.843 507.275 276.88 507.35 276.905L510.088 278.144C510.249 278.205 510.394 278.3 510.514 278.423C510.633 278.546 510.725 278.694 510.781 278.856C510.837 279.018 510.855 279.19 510.832 279.36C510.809 279.529 510.747 279.691 510.65 279.832C510.577 279.983 510.47 280.114 510.336 280.215C510.203 280.316 510.047 280.384 509.882 280.413C509.717 280.445 509.548 280.443 509.383 280.408C509.219 280.373 509.064 280.305 508.926 280.208L506.486 278.408C506.461 278.385 506.431 278.37 506.398 278.363C506.365 278.356 506.331 278.358 506.299 278.369C506.248 278.394 506.236 278.444 506.26 278.518L506.599 281.484C506.629 281.651 506.62 281.823 506.571 281.986C506.523 282.149 506.436 282.298 506.319 282.421C506.201 282.545 506.058 282.643 505.899 282.707C505.741 282.772 505.57 282.802 505.399 282.796" fill="white"/>
<path d="M521.565 282.796C521.405 282.802 521.246 282.772 521.1 282.707C520.953 282.642 520.824 282.544 520.721 282.421C520.614 282.292 520.534 282.142 520.485 281.981C520.436 281.82 520.421 281.651 520.438 281.484L520.777 278.519C520.802 278.444 520.789 278.395 520.74 278.37C520.708 278.359 520.674 278.356 520.641 278.362C520.608 278.369 520.577 278.384 520.552 278.407L518.113 280.169C517.984 280.276 517.833 280.353 517.671 280.395C517.509 280.438 517.339 280.444 517.174 280.413C517.009 280.379 516.853 280.309 516.717 280.209C516.581 280.109 516.468 279.98 516.386 279.832C516.28 279.681 516.213 279.506 516.19 279.323C516.167 279.14 516.19 278.954 516.255 278.781C516.322 278.634 516.418 278.501 516.537 278.392C516.656 278.282 516.796 278.198 516.948 278.144L519.688 276.905C519.763 276.88 519.801 276.842 519.801 276.793C519.801 276.744 519.762 276.705 519.688 276.68L516.948 275.441C516.789 275.382 516.645 275.287 516.528 275.164C516.411 275.04 516.323 274.892 516.272 274.729C516.223 274.567 516.208 274.397 516.228 274.229C516.247 274.062 516.301 273.9 516.385 273.753C516.467 273.605 516.58 273.477 516.716 273.376C516.852 273.276 517.008 273.205 517.173 273.17C517.336 273.14 517.503 273.143 517.664 273.179C517.825 273.214 517.978 273.282 518.112 273.378L520.551 275.178C520.576 275.201 520.607 275.216 520.64 275.222C520.673 275.228 520.708 275.226 520.739 275.214C520.788 275.19 520.802 275.139 520.776 275.065L520.437 272.1C520.42 271.932 520.437 271.761 520.489 271.6C520.54 271.439 520.625 271.29 520.737 271.163C520.851 271.039 520.99 270.94 521.145 270.875C521.301 270.811 521.469 270.781 521.637 270.788C521.8 270.784 521.961 270.815 522.11 270.88C522.26 270.944 522.393 271.041 522.5 271.163C522.612 271.289 522.694 271.439 522.739 271.602C522.784 271.764 522.792 271.934 522.761 272.1L522.428 275.067C522.402 275.141 522.416 275.196 522.465 275.216C522.497 275.228 522.531 275.23 522.564 275.224C522.597 275.218 522.627 275.203 522.652 275.18L525.093 273.416C525.225 273.309 525.379 273.231 525.544 273.189C525.709 273.147 525.882 273.141 526.049 273.171C526.214 273.201 526.37 273.27 526.503 273.371C526.637 273.472 526.745 273.604 526.818 273.754C526.924 273.905 526.992 274.08 527.014 274.263C527.037 274.447 527.015 274.633 526.949 274.805C526.883 274.953 526.787 275.085 526.668 275.194C526.549 275.304 526.409 275.388 526.256 275.442L523.517 276.68C523.441 276.705 523.405 276.743 523.405 276.793C523.405 276.843 523.441 276.88 523.517 276.905L526.256 278.144C526.417 278.205 526.562 278.301 526.681 278.424C526.801 278.547 526.893 278.694 526.949 278.856C527.005 279.018 527.023 279.19 527 279.36C526.977 279.529 526.915 279.691 526.818 279.832C526.745 279.983 526.637 280.114 526.503 280.215C526.37 280.316 526.214 280.384 526.049 280.413C525.884 280.445 525.715 280.443 525.55 280.408C525.386 280.373 525.231 280.305 525.093 280.208L522.653 278.408C522.629 278.385 522.598 278.369 522.565 278.362C522.532 278.355 522.497 278.358 522.465 278.369C522.414 278.394 522.401 278.444 522.426 278.518L522.765 281.484C522.796 281.651 522.786 281.824 522.737 281.986C522.688 282.149 522.602 282.298 522.484 282.421C522.366 282.545 522.223 282.643 522.065 282.707C521.907 282.772 521.736 282.802 521.565 282.796" fill="white"/>
<path d="M537.731 282.796C537.571 282.802 537.412 282.772 537.265 282.707C537.119 282.642 536.989 282.544 536.886 282.421C536.779 282.292 536.699 282.142 536.651 281.981C536.602 281.82 536.587 281.651 536.605 281.484L536.944 278.519C536.968 278.444 536.956 278.395 536.907 278.37C536.875 278.359 536.841 278.356 536.808 278.363C536.775 278.369 536.744 278.385 536.719 278.407L534.279 280.17C534.15 280.277 534 280.354 533.838 280.396C533.676 280.438 533.507 280.445 533.342 280.414C533.177 280.38 533.02 280.311 532.884 280.211C532.748 280.11 532.636 279.982 532.554 279.833C532.448 279.683 532.38 279.508 532.357 279.324C532.334 279.141 532.357 278.955 532.423 278.782C532.49 278.635 532.586 278.503 532.705 278.393C532.824 278.284 532.964 278.199 533.116 278.145L535.856 276.906C535.929 276.881 535.968 276.843 535.968 276.794C535.968 276.745 535.929 276.706 535.856 276.681L533.116 275.442C532.957 275.383 532.813 275.288 532.695 275.165C532.578 275.042 532.491 274.893 532.44 274.73C532.391 274.569 532.376 274.399 532.396 274.231C532.415 274.063 532.469 273.901 532.553 273.754C532.635 273.606 532.748 273.478 532.884 273.377C533.02 273.276 533.176 273.206 533.341 273.171C533.503 273.141 533.67 273.144 533.831 273.18C533.992 273.216 534.144 273.284 534.278 273.379L536.718 275.179C536.743 275.202 536.774 275.217 536.807 275.223C536.84 275.23 536.875 275.227 536.906 275.215C536.955 275.191 536.967 275.14 536.943 275.066L536.604 272.101C536.586 271.933 536.604 271.763 536.655 271.601C536.707 271.44 536.792 271.291 536.904 271.164C537.018 271.04 537.157 270.942 537.312 270.877C537.468 270.812 537.636 270.782 537.804 270.789C537.966 270.785 538.128 270.816 538.277 270.881C538.425 270.946 538.558 271.043 538.665 271.164C538.778 271.29 538.86 271.44 538.905 271.602C538.95 271.765 538.957 271.936 538.926 272.101L538.594 275.067C538.568 275.141 538.58 275.196 538.631 275.216C538.663 275.228 538.697 275.231 538.73 275.224C538.763 275.218 538.793 275.203 538.818 275.18L541.259 273.416C541.391 273.309 541.545 273.231 541.71 273.189C541.875 273.147 542.048 273.141 542.215 273.171C542.38 273.202 542.536 273.27 542.669 273.371C542.803 273.473 542.911 273.604 542.984 273.754C543.09 273.906 543.158 274.08 543.18 274.264C543.203 274.447 543.181 274.633 543.115 274.805C543.049 274.953 542.953 275.085 542.834 275.195C542.715 275.304 542.575 275.388 542.422 275.442L539.683 276.68C539.607 276.705 539.57 276.743 539.57 276.793C539.57 276.843 539.607 276.88 539.683 276.905L542.422 278.144C542.582 278.206 542.727 278.301 542.847 278.424C542.967 278.547 543.058 278.695 543.115 278.856C543.171 279.018 543.188 279.19 543.165 279.36C543.142 279.529 543.08 279.691 542.984 279.832C542.911 279.983 542.803 280.114 542.669 280.215C542.536 280.316 542.38 280.384 542.215 280.413C542.05 280.445 541.881 280.443 541.716 280.408C541.552 280.373 541.397 280.305 541.259 280.208L538.819 278.408C538.795 278.385 538.764 278.369 538.731 278.362C538.698 278.355 538.663 278.358 538.631 278.369C538.579 278.394 538.567 278.444 538.592 278.518L538.931 281.484C538.962 281.652 538.952 281.824 538.904 281.987C538.855 282.149 538.768 282.298 538.651 282.421C538.533 282.545 538.39 282.643 538.231 282.708C538.073 282.772 537.902 282.803 537.731 282.796" fill="white"/>
<path d="M553.897 282.796C553.737 282.802 553.578 282.772 553.432 282.707C553.285 282.642 553.156 282.544 553.053 282.421C552.946 282.292 552.866 282.142 552.818 281.981C552.769 281.82 552.754 281.651 552.772 281.484L553.109 278.519C553.134 278.444 553.122 278.395 553.072 278.37C553.04 278.359 553.006 278.356 552.973 278.363C552.94 278.369 552.909 278.385 552.884 278.407L550.445 280.169C550.316 280.276 550.165 280.353 550.003 280.396C549.841 280.438 549.671 280.444 549.506 280.413C549.341 280.379 549.185 280.309 549.049 280.209C548.913 280.109 548.8 279.98 548.718 279.832C548.612 279.681 548.545 279.506 548.522 279.323C548.499 279.14 548.521 278.954 548.587 278.781C548.654 278.634 548.75 278.502 548.869 278.392C548.988 278.283 549.128 278.198 549.28 278.144L552.02 276.905C552.095 276.88 552.133 276.842 552.133 276.793C552.133 276.744 552.094 276.705 552.02 276.68L549.28 275.441C549.121 275.382 548.977 275.287 548.86 275.164C548.743 275.04 548.656 274.892 548.605 274.729C548.556 274.568 548.54 274.398 548.559 274.23C548.579 274.062 548.632 273.9 548.717 273.753C548.799 273.605 548.912 273.477 549.048 273.376C549.184 273.276 549.34 273.206 549.505 273.17C549.668 273.14 549.835 273.143 549.996 273.179C550.157 273.215 550.31 273.282 550.444 273.378L552.883 275.178C552.908 275.201 552.939 275.216 552.972 275.222C553.005 275.229 553.04 275.226 553.071 275.214C553.122 275.19 553.134 275.139 553.108 275.065L552.771 272.1C552.753 271.932 552.771 271.762 552.822 271.6C552.874 271.439 552.959 271.29 553.071 271.163C553.185 271.039 553.324 270.941 553.48 270.876C553.635 270.811 553.803 270.781 553.971 270.788C554.134 270.784 554.295 270.815 554.444 270.88C554.594 270.945 554.727 271.041 554.834 271.163C554.946 271.289 555.028 271.439 555.073 271.602C555.118 271.764 555.126 271.935 555.095 272.1L554.76 275.067C554.736 275.141 554.748 275.196 554.797 275.216C554.829 275.228 554.863 275.231 554.896 275.224C554.929 275.218 554.96 275.203 554.985 275.18L557.425 273.416C557.558 273.309 557.712 273.231 557.877 273.189C558.042 273.147 558.214 273.141 558.382 273.171C558.547 273.202 558.702 273.27 558.836 273.371C558.969 273.473 559.077 273.604 559.15 273.754C559.257 273.905 559.325 274.08 559.347 274.263C559.37 274.447 559.347 274.633 559.281 274.805C559.215 274.953 559.119 275.085 559 275.195C558.881 275.304 558.741 275.388 558.588 275.442L555.849 276.68C555.774 276.705 555.737 276.743 555.737 276.793C555.737 276.843 555.774 276.88 555.849 276.905L558.588 278.144C558.749 278.205 558.894 278.3 559.014 278.424C559.133 278.547 559.225 278.694 559.281 278.856C559.337 279.018 559.355 279.19 559.332 279.36C559.309 279.529 559.247 279.691 559.15 279.832C559.077 279.983 558.969 280.114 558.836 280.215C558.702 280.316 558.547 280.384 558.382 280.413C558.217 280.445 558.047 280.443 557.883 280.408C557.719 280.373 557.563 280.305 557.425 280.208L554.986 278.408C554.961 278.385 554.931 278.369 554.897 278.362C554.864 278.355 554.829 278.358 554.797 278.369C554.746 278.394 554.734 278.444 554.758 278.518L555.097 281.484C555.127 281.652 555.118 281.824 555.069 281.986C555.021 282.149 554.934 282.298 554.817 282.421C554.699 282.545 554.556 282.643 554.397 282.707C554.239 282.772 554.068 282.802 553.897 282.796" fill="white"/>
<path d="M570.063 282.796C569.903 282.802 569.744 282.772 569.598 282.707C569.451 282.642 569.322 282.544 569.219 282.421C569.112 282.292 569.032 282.142 568.983 281.981C568.934 281.82 568.919 281.651 568.936 281.484L569.275 278.519C569.3 278.444 569.287 278.395 569.238 278.37C569.206 278.359 569.172 278.356 569.139 278.362C569.106 278.369 569.075 278.384 569.05 278.407L566.611 280.169C566.482 280.276 566.331 280.353 566.169 280.395C566.007 280.438 565.837 280.444 565.672 280.413C565.507 280.379 565.351 280.309 565.215 280.209C565.079 280.109 564.966 279.98 564.884 279.832C564.778 279.681 564.711 279.506 564.688 279.323C564.665 279.14 564.688 278.954 564.753 278.781C564.82 278.634 564.916 278.501 565.035 278.392C565.154 278.282 565.294 278.198 565.446 278.144L568.186 276.905C568.261 276.88 568.299 276.842 568.299 276.793C568.299 276.744 568.26 276.705 568.186 276.68L565.446 275.441C565.287 275.382 565.143 275.287 565.026 275.164C564.909 275.04 564.821 274.892 564.77 274.729C564.721 274.567 564.706 274.397 564.726 274.229C564.745 274.062 564.799 273.9 564.883 273.753C564.965 273.605 565.078 273.477 565.214 273.376C565.35 273.276 565.506 273.205 565.671 273.17C565.834 273.14 566.001 273.143 566.162 273.179C566.323 273.214 566.476 273.282 566.61 273.378L569.049 275.178C569.074 275.201 569.105 275.216 569.138 275.222C569.171 275.228 569.206 275.226 569.237 275.214C569.286 275.19 569.3 275.139 569.274 275.065L568.935 272.1C568.918 271.932 568.935 271.761 568.987 271.6C569.038 271.439 569.123 271.29 569.235 271.163C569.349 271.039 569.488 270.94 569.643 270.875C569.799 270.811 569.967 270.781 570.135 270.788C570.298 270.784 570.459 270.815 570.608 270.88C570.758 270.944 570.891 271.041 570.998 271.163C571.11 271.289 571.192 271.439 571.237 271.602C571.282 271.764 571.29 271.934 571.259 272.1L570.926 275.067C570.9 275.141 570.914 275.196 570.963 275.216C570.995 275.228 571.029 275.23 571.062 275.224C571.095 275.218 571.125 275.203 571.15 275.18L573.591 273.416C573.723 273.309 573.877 273.231 574.042 273.189C574.207 273.147 574.38 273.141 574.547 273.171C574.712 273.201 574.868 273.27 575.001 273.371C575.135 273.472 575.243 273.604 575.316 273.754C575.422 273.905 575.49 274.08 575.512 274.263C575.535 274.447 575.513 274.633 575.447 274.805C575.381 274.953 575.285 275.085 575.166 275.194C575.047 275.304 574.907 275.388 574.754 275.442L572.015 276.68C571.939 276.705 571.902 276.743 571.902 276.793C571.902 276.843 571.939 276.88 572.015 276.905L574.754 278.144C574.915 278.205 575.06 278.301 575.179 278.424C575.299 278.547 575.391 278.694 575.447 278.856C575.503 279.018 575.521 279.19 575.498 279.36C575.475 279.529 575.413 279.691 575.316 279.832C575.243 279.983 575.135 280.114 575.001 280.215C574.868 280.316 574.712 280.384 574.547 280.413C574.382 280.445 574.213 280.443 574.048 280.408C573.884 280.373 573.729 280.305 573.591 280.208L571.151 278.408C571.127 278.385 571.096 278.369 571.063 278.362C571.03 278.355 570.995 278.358 570.963 278.369C570.912 278.394 570.899 278.444 570.924 278.518L571.263 281.484C571.294 281.651 571.284 281.824 571.235 281.986C571.186 282.149 571.1 282.298 570.982 282.421C570.864 282.545 570.721 282.643 570.563 282.707C570.405 282.772 570.234 282.802 570.063 282.796" fill="#2AAEFF"/>
</svg>
