<svg xmlns="http://www.w3.org/2000/svg" xmlns:xlink="http://www.w3.org/1999/xlink" width="778.092" height="451.301" viewBox="0 0 778.092 451.301">
  <defs>
    <clipPath id="clip-path">
      <rect id="Rectangle_28" data-name="Rectangle 28" width="655.495" height="413.924" transform="translate(0 0)" fill="#f8fbff"/>
    </clipPath>
  </defs>
  <g id="Group_89" data-name="Group 89" transform="translate(-404.883 -1831)">
    <g id="Mask_Group_1" data-name="Mask Group 1" transform="translate(404.883 1868.378)" clip-path="url(#clip-path)">
      <g id="_038-father" data-name="038-father" transform="translate(17.982 -5.537)">
        <path id="Path_367" data-name="Path 367" d="M529.12,1200.883H443.75a.009.009,0,0,0-.009-.009c-1.351-.566-109.883-46.567-53.4-150.505l19.527-.132,98.039-.654c.4.318.782.654,1.168.98,25.048,21.314,44.575,50.9,55.6,85.318C574.772,1167.375,571.1,1199.648,529.12,1200.883Z" transform="translate(-233.053 -779.178)" fill="#8a8ac6"/>
        <path id="Path_368" data-name="Path 368" d="M0,1239.342l22.566-8.434,22.573,8.434h63.567c22.438,0,38.154-41.676,30.322-80.848-8.529-42.61-23.585-79.278-42.912-105.777h-.007l-54.641-.582-15.161-.164c.727,56.425-3.358,132.638-26.3,187.361-.008,0-.008.01-.008.01Z" transform="translate(263.718 -815.114)" fill="#8a8ac6"/>
        <ellipse id="Ellipse_8" data-name="Ellipse 8" cx="30.638" cy="31.334" rx="30.638" ry="31.334" transform="translate(157.182 137.87)" fill="#ffddcf"/>
        <path id="Path_369" data-name="Path 369" d="M508.182,1241.876s-50.122-9.9-29.23-125.338h16.7Z" transform="translate(-194.334 -828.268)" fill="#767678"/>
        <path id="Path_370" data-name="Path 370" d="M462.769,1241.876h-50.13l12.534-125.338h8.365C434.212,1156.814,440.471,1205.588,462.769,1241.876Z" transform="translate(-148.921 -828.268)" fill="#666667"/>
        <path id="Path_371" data-name="Path 371" d="M537.441,956.139l-45.8,31.386a10.173,10.173,0,0,1-14.141-2.639L465.929,968l-10.062-15.514-18.5-28.515a110.177,110.177,0,0,1,37.537.025C498.073,928.024,519.413,939.368,537.441,956.139Z" transform="translate(-167.262 -684.231)" fill="#8a8ac6"/>
        <path id="Path_372" data-name="Path 372" d="M293.92,924l-19.035,28.49L264.523,968l-11.569,16.888a10.176,10.176,0,0,1-14.141,2.639L193.394,956.4c18.128-16.954,39.626-28.406,62.99-32.427A110.152,110.152,0,0,1,293.92,924Z" transform="translate(13.719 -684.231)" fill="#8a8ac6"/>
        <path id="Path_373" data-name="Path 373" d="M485.6,1067.434a20.7,20.7,0,0,1-6.808-.125s-12.551-15.339-.25-33.176c.341-.066.683-.124,1.032-.174,10.246-1.5,19.909,4.777,21.565,14.025S495.847,1065.935,485.6,1067.434Z" transform="translate(-193.802 -766.844)" fill="#666667"/>
        <path id="Path_374" data-name="Path 374" d="M451.9,1068.445c-7.425-1.381-13.483-6.75-14.766-13.9-1.607-8.923,4.827-17.363,14.515-19.277C451.364,1045.514,451.373,1056.726,451.9,1068.445Z" transform="translate(-166.913 -767.98)" fill="#575757"/>
        <path id="Path_375" data-name="Path 375" d="M353.324,348.573a106.3,106.3,0,0,1-39.843,83.039c-1.8,1.465-3.663,2.864-5.568,4.2a106.074,106.074,0,0,1-21.64,11.735q-3.533,1.423-7.191,2.588a107.75,107.75,0,0,1-58.028,2.039S95.607,393.716,188.726,258.8a106.578,106.578,0,0,1,57.713-16.863c59.027,0,106.885,47.743,106.885,106.637Z" transform="translate(42.698 -179.472)" fill="#ffddcf"/>
        <path id="Path_376" data-name="Path 376" d="M178.6,500.637a106.513,106.513,0,0,1-37.853-17.628A107.685,107.685,0,0,1,97.1,397.031a106.493,106.493,0,0,1,49.173-89.773C129.778,351.9,111.908,436.582,178.6,500.637Z" transform="translate(85.15 -227.929)" fill="#ffcbbe"/>
        <path id="Path_377" data-name="Path 377" d="M477.709,118.463a118.034,118.034,0,0,1-1.773,20.433l-4.961,5.269c-26.959,0-48.108-29.04-56.872-43.322A10.149,10.149,0,0,0,401.7,96.7c-22.139,8.872-43.771,8.847-60.7,6.218-78.77-41.724.225-101.659.225-101.659A121.287,121.287,0,0,1,358.638,0,119.128,119.128,0,0,1,466.156,67.509a117.518,117.518,0,0,1,11.554,50.955Z" transform="translate(-69.852 0)" fill="#767678"/>
        <path id="Path_378" data-name="Path 378" d="M149.984,106.53A134.419,134.419,0,0,1,124.491,100a10.165,10.165,0,0,0-12.193,4.228c-8.689,14.191-29.913,43.547-57.013,43.547l-4.969-5.269a118.918,118.918,0,0,1-1.764-20.433A117.42,117.42,0,0,1,60.1,71.123,119.129,119.129,0,0,1,150.21,4.872C140.18,24.5,126.33,64.406,149.984,106.53Z" transform="translate(121.166 -3.614)" fill="#666667"/>
        <g id="Group_87" data-name="Group 87" transform="translate(228.724 144.161)">
          <path id="Path_379" data-name="Path 379" d="M283.341,580.84A6.242,6.242,0,0,1,277.1,574.6V564.61a6.242,6.242,0,0,1,12.484,0V574.6A6.242,6.242,0,0,1,283.341,580.84Z" transform="translate(-277.099 -558.368)" fill="#455059"/>
          <path id="Path_380" data-name="Path 380" d="M685.974,580.84a6.241,6.241,0,0,1-6.242-6.242V564.61a6.242,6.242,0,0,1,12.484,0V574.6A6.241,6.241,0,0,1,685.974,580.84Z" transform="translate(-575.779 -558.368)" fill="#455059"/>
          <path id="Path_381" data-name="Path 381" d="M445.282,614.627a24.42,24.42,0,0,1-18.41-8.384,6.243,6.243,0,0,1,9.413-8.2,11.919,11.919,0,0,0,18,0,6.243,6.243,0,0,1,9.413,8.2A24.426,24.426,0,0,1,445.282,614.627Z" transform="translate(-387.064 -586.209)" fill="#455059"/>
        </g>
        <circle id="Ellipse_9" data-name="Ellipse 9" cx="27.854" cy="27.854" r="27.854" transform="translate(73.208 243.65) rotate(-7.004)" fill="#ffcbbe"/>
        <ellipse id="Ellipse_10" data-name="Ellipse 10" cx="28.2" cy="28.227" rx="28.2" ry="28.227" transform="translate(0 243.407)" fill="#ffbbae"/>
        <path id="Path_382" data-name="Path 382" d="M1145.94,1264.038l-43.613,31.336h-48.1s-83.431-42.231-13.226-106.6q2.446-.113,4.919-.116c45.153,0,83.655,28.89,98.545,69.448A28.094,28.094,0,0,1,1145.94,1264.038Z" transform="translate(-926.853 -870.231)" fill="#89c762"/>
        <path id="Path_383" data-name="Path 383" d="M861.745,1295.709h-64.7l-43.621-31.336a28.2,28.2,0,0,1,1.482-5.934c14.349-39.077,50.613-67.317,93.618-69.331C842.744,1209.631,834.038,1257.056,861.745,1295.709Z" transform="translate(-734.371 -870.565)" fill="#89c762"/>
        <path id="Path_384" data-name="Path 384" d="M1072.2,1189.168c0,22.031-18.7,39.884-41.766,39.884a43.091,43.091,0,0,1-6.6-.5l-28.253-31.917s-3.916-24.422,1.154-31.023a42.351,42.351,0,0,1,33.7-16.321c23.063,0,41.765,17.853,41.765,39.876Z" transform="translate(-912.938 -841.029)" fill="#ffcbbe"/>
        <path id="Path_385" data-name="Path 385" d="M1008.145,1258.086c-19.926-3.021-35.157-19.5-35.157-39.385a38.522,38.522,0,0,1,8.057-23.555,103.5,103.5,0,0,1,30.354-6.043c-3.979,14.124-9.338,41-3.254,68.982Z" transform="translate(-897.25 -870.563)" fill="#ffbbae"/>
        <path id="Path_386" data-name="Path 386" d="M1009.93,722.433a93.315,93.315,0,0,1-6.551,34.483c-13.118,33.043-44.52,56.314-81.184,56.314a85.475,85.475,0,0,1-14.907-1.306s-116.474-49.839-28.007-168.7A85,85,0,0,1,922.2,631.628C970.653,631.627,1009.93,672.278,1009.93,722.433Z" transform="translate(-803.129 -457.017)" fill="#ffddcf"/>
        <path id="Path_387" data-name="Path 387" d="M873.826,845.232c-30.1-5.335-54.982-26.543-66.277-55.007A93.314,93.314,0,0,1,801,755.742c0-34.017,18.069-63.663,44.82-79.211C826.317,710.756,805.485,776.584,873.826,845.232Z" transform="translate(-769.665 -490.327)" fill="#ffcbbe"/>
        <path id="Path_388" data-name="Path 388" d="M903.072,980.239A6.242,6.242,0,0,1,896.83,974a5.214,5.214,0,1,0-10.428,0,6.242,6.242,0,1,1-12.484,0,17.7,17.7,0,0,1,35.4,0A6.244,6.244,0,0,1,903.072,980.239Z" transform="translate(-823.758 -697.863)" fill="#455059"/>
        <path id="Path_389" data-name="Path 389" d="M1299.733,980.239a6.242,6.242,0,0,1-6.242-6.242,5.215,5.215,0,0,0-10.429,0,6.242,6.242,0,1,1-12.484,0,17.7,17.7,0,0,1,35.4,0A6.243,6.243,0,0,1,1299.733,980.239Z" transform="translate(-1118.007 -697.863)" fill="#455059"/>
        <path id="Path_390" data-name="Path 390" d="M1087.943,1070.553a22.363,22.363,0,0,1-16.858-7.676,6.243,6.243,0,0,1,9.411-8.205,9.863,9.863,0,0,0,14.893,0,6.243,6.243,0,0,1,9.413,8.2A22.359,22.359,0,0,1,1087.943,1070.553Z" transform="translate(-968.879 -769.25)" fill="#455059"/>
        <path id="Path_391" data-name="Path 391" d="M1183.737,559.571a6.187,6.187,0,0,1-11.586-1.315c-3.72-15.93-10.6-39.568-20.691-51.712a6.155,6.155,0,0,0-10.6,2.255c-2.081,6.9-5.677,16.48-11.236,23.946a6.171,6.171,0,0,1-11.07-2.855c-2.538-18.785-10.354-44.787-35.5-28.132-46.567-30.987-.091-68.607-.091-68.607,8.048-.05,16.022-1.557,18.435-4.519a122.8,122.8,0,0,1,13.55-14.466,6.168,6.168,0,0,1,10.179,4.021,203.506,203.506,0,0,0,3.745,22.015,6.164,6.164,0,0,0,8.831,4.153c14.823-7.64,22.306-8.09,33.725-7.166a6.2,6.2,0,0,1,3.937,10.52A148.788,148.788,0,0,0,1161,464.672a6.2,6.2,0,0,0,2.922,9.48C1209.83,490.406,1195.231,535.825,1183.737,559.571Z" transform="translate(-963.527 -294.572)" fill="#eaaa83"/>
        <path id="Path_392" data-name="Path 392" d="M817.183,501.76c-.1.067-.208.133-.316.208-25.385-17.079-33.542,9.056-36.089,27.923a6.171,6.171,0,0,1-11.07,2.855c-5.559-7.466-9.155-17.046-11.236-23.946a6.155,6.155,0,0,0-10.6-2.255c-10.087,12.143-16.971,35.78-20.691,51.712a6.187,6.187,0,0,1-11.586,1.315c-11.494-23.746-26.093-69.165,19.818-85.42a6.2,6.2,0,0,0,2.921-9.48,149.505,149.505,0,0,0-14.366-16.962,6.2,6.2,0,0,1,3.928-10.52c11.428-.923,19.251-.474,34.075,7.166a6.164,6.164,0,0,0,8.83-4.153,203.293,203.293,0,0,0,3.745-22.015,6.168,6.168,0,0,1,10.179-4.021c3.188,2.772,8.489,8.847,13.2,14.507,2.522,3.021,10.886,4.519,19.168,4.478C811.848,449.681,806.213,477.664,817.183,501.76Z" transform="translate(-697.657 -294.572)" fill="#e4996d"/>
        <path id="Path_393" data-name="Path 393" d="M1375.765,1511.963h-16.48v-20.932c0-5.743,4.137-10.4,9.238-10.4H1402.9C1405.078,1496.724,1392.677,1511.963,1375.765,1511.963Z" transform="translate(-1183.293 -1085.682)" fill="#89c762"/>
        <path id="Path_394" data-name="Path 394" d="M796.326,1491.031v20.932H779.839c-16.913,0-29.314-15.24-27.133-31.336H787.08C792.181,1480.627,796.326,1485.287,796.326,1491.031Z" transform="translate(-733.656 -1086.819)" fill="#89c762"/>
      </g>
    </g>
    <rect id="Rectangle_21" data-name="Rectangle 21" width="268.566" height="209.038" transform="translate(585.542 1831)" fill="none"/>
    <g id="_028-mother" data-name="028-mother" transform="translate(774.425 1873.317)">
      <path id="Path_395" data-name="Path 395" d="M269.133,300.079A35.4,35.4,0,0,1,234.414,333.9a34.952,34.952,0,0,1-21.532-7.055,115.256,115.256,0,0,1-148.838,0c-5.989,4.513-14.746-4.014-22.831-4.108-18.562-.228-32.639-4.027-33.42-22.655a35.388,35.388,0,0,1,4.647-19.166,78.93,78.93,0,0,0,10.416-40.786c-.014-.725-.02-1.442-.02-2.166a116.355,116.355,0,0,1,7.191-40.4c-.054-.148-.107-.288-.161-.436h217.2c-.053.148-.107.288-.161.436a116.355,116.355,0,0,1,7.191,40.4c0,.725-.006,1.442-.02,2.166a78.932,78.932,0,0,0,10.416,40.786,35.4,35.4,0,0,1,4.647,19.166Z" transform="translate(-1.997 -39.664)" fill="#666667"/>
      <path id="Path_396" data-name="Path 396" d="M278.88,455.8l-113.764-.329-22.106,2.6-10.864,1.276c-104.4-65.322,10.032-163.02,11.267-164.074l.008-.008q5.284-.482,10.666-.478a120.964,120.964,0,0,1,54.285,12.954c36.722,18.312,65.782,54.664,79.691,99.962C293.53,425.51,289.028,444.011,278.88,455.8Z" transform="translate(-18.192 -59.314)" fill="#ffcbbe"/>
      <path id="Path_397" data-name="Path 397" d="M140.226,295.4c-13.5,32.648-31.5,97.2-.4,162.8l-10.864,1.276-75.98,8.946H51.8c-17.35,0,69.908-2.043,48.3-26.047,13.808-7.53,25.9-16.451,28.859-26.08,6.683-21.769-50.115-49.091-37.268-65.707,1.2-1.555-42.646-3.929-41.4-5.419Z" transform="translate(-15.005 -59.436)" fill="#ffbbae"/>
      <path id="Path_398" data-name="Path 398" d="M157.316,295.39l-.008.008v-.008Z" transform="translate(-32.087 -59.434)" fill="#ffbbae"/>
      <path id="Path_399" data-name="Path 399" d="M254.972,471.561H150.038s-88.58-37.348-36.517-129.853a51.072,51.072,0,0,0,15.8,15.917,54.726,54.726,0,0,0,29.645,8.592c29.093,0,52.672-22.2,52.672-49.569l-1.481-5.638c36.722,18.312,65.782,54.664,79.691,99.962C298.862,440.328,280.781,471.561,254.972,471.561Z" transform="translate(-19.978 -62.577)" fill="#e96a85"/>
      <path id="Path_400" data-name="Path 400" d="M47.409,471c9.951-63.42,2.773-104.035-2.683-123.253l.321-.4c14.3-17.077,31.529-30.533,50.705-39.134v7.868c0,17.028,9.127,32.056,23.028,40.977-4.321,33.48-1.5,73.807,20.715,113.936H47.409Z" transform="translate(-9.435 -62.015)" fill="#e96a85"/>
      <path id="Path_401" data-name="Path 401" d="M254.324,182.918A105.337,105.337,0,0,1,148.642,288.262a105.959,105.959,0,0,1-31.916-4.889S6.049,214.315,92.447,93.679a105.45,105.45,0,0,1,56.195-16.106C207.01,77.573,254.324,124.739,254.324,182.918Z" transform="translate(-12.401 -15.609)" fill="#ffddcf"/>
      <path id="Path_402" data-name="Path 402" d="M112.566,287.43a105.825,105.825,0,0,1-65.882-60.442,105.242,105.242,0,0,1,41.6-129.253C73.506,130.8,49.746,209.763,112.566,287.43Z" transform="translate(-8.241 -19.665)" fill="#ffcbbe"/>
      <g id="Group_88" data-name="Group 88" transform="translate(67.76 143.238)">
        <path id="Path_403" data-name="Path 403" d="M114.2,202.991a6.172,6.172,0,0,1-6.172-6.172,5.156,5.156,0,0,0-10.312,0,6.172,6.172,0,1,1-12.345,0,17.5,17.5,0,0,1,35,0A6.175,6.175,0,0,1,114.2,202.991Z" transform="translate(-85.373 -179.318)" fill="#455059"/>
        <path id="Path_404" data-name="Path 404" d="M240.975,202.991a6.172,6.172,0,0,1-6.172-6.172,5.156,5.156,0,0,0-10.312,0,6.172,6.172,0,1,1-12.345,0,17.5,17.5,0,0,1,35,0,6.174,6.174,0,0,1-6.174,6.172Z" transform="translate(-110.88 -179.318)" fill="#455059"/>
        <path id="Path_405" data-name="Path 405" d="M166.085,227.9a22.109,22.109,0,0,1-16.67-7.591,6.172,6.172,0,0,1,9.306-8.111,9.755,9.755,0,0,0,14.728,0,6.172,6.172,0,0,1,9.306,8.111,22.111,22.111,0,0,1-16.67,7.591Z" transform="translate(-97.953 -185.506)" fill="#455059"/>
      </g>
      <path id="Path_406" data-name="Path 406" d="M271.869,130.933a7.207,7.207,0,0,1-11.876,5.86c-1.119-.947-1.844-1.589-1.884-1.589-11.539-1.029-32.212-11.835-60.3-39.817a19.108,19.108,0,0,0-23.242-2.831c-15.308,9.1-27.974,16.123-38.928,21.718C32.457,64.072,139.464.948,139.464.948A122.554,122.554,0,0,1,154.509,0a120.4,120.4,0,0,1,46.277,9.135,25.9,25.9,0,0,1,14.386-4.313c13.941,0,25.25,10.8,25.25,24.13,13.941,0,25.25,10.8,25.25,24.122a23.3,23.3,0,0,1-4.51,13.761,106.353,106.353,0,0,1,9.563,44.146c0,3.754.732,12.247,1.144,19.951Z" transform="translate(-18.695 -0.001)" fill="#767678"/>
      <path id="Path_407" data-name="Path 407" d="M122.444,114.514C98.584,126.727,82.866,132.2,65.656,137.788c-44.393,14.427-40.368-19.793-40.393-26.2a105.821,105.821,0,0,1,9.6-44.451,23.336,23.336,0,0,1-4.56-13.826c0-13.325,11.308-24.122,25.25-24.122,0-13.333,11.309-24.13,25.25-24.13a25.967,25.967,0,0,1,14.46,4.361,119,119,0,0,1,31-8.238C114.452,20.724,96.428,63.405,122.444,114.514Z" transform="translate(-5.502 -0.239)" fill="#666667"/>
      <path id="Path_408" data-name="Path 408" d="M4.176,253.885a12.394,12.394,0,1,1,17.527,0A12.394,12.394,0,0,1,4.176,253.885Z" transform="translate(-0.546 -46.826)" fill="#f3c23b"/>
      <ellipse id="Ellipse_12" data-name="Ellipse 12" cx="28.268" cy="27.885" rx="28.268" ry="27.885" transform="translate(352.013 223.082)" fill="#ffcbbe"/>
      <ellipse id="Ellipse_13" data-name="Ellipse 13" cx="27.503" cy="27.885" rx="27.503" ry="27.885" transform="translate(173.073 223.082)" fill="#ffbbae"/>
      <path id="Path_409" data-name="Path 409" d="M434.208,484.576l-.3.025.107-.28-81.683-7.168-3.95.371-7.522.708c-17.958-12.468-46.113-43.768.585-101.09a111.807,111.807,0,0,1,13.357-.79l73.33,27.321a109.77,109.77,0,0,1,30.2,43.194C464.964,464.322,452.618,482.839,434.208,484.576Z" transform="translate(-63.995 -75.724)" fill="#ffcbbe"/>
      <path id="Path_410" data-name="Path 410" d="M331.652,479.037l-7.522.708-66.523,6.222c-17.818-2.329-29.571-20.468-23.06-37.587a109.9,109.9,0,0,1,29.945-42.92l58.865-21.587c-4.913,20.353-10.049,58.862,8.3,95.165Z" transform="translate(-47.262 -77.237)" fill="#ffbbae"/>
      <path id="Path_411" data-name="Path 411" d="M438.208,486.537c-.93.09-1.868.131-2.823.131h-79.05a77.7,77.7,0,0,1-19.662-15.9c-3.58-11.892,4.707-25.109,4.707-25.109a44,44,0,0,0,16.831,3.317c23.423,0,42.4-18.122,42.4-40.492l-.633-22.385a108.818,108.818,0,0,1,32.156,19.535l-.609,1.722c-5.168,23.456-9.062,58.326,6.493,78.926a2.89,2.89,0,0,0,.189.256Z" transform="translate(-67.995 -77.685)" fill="#89c762"/>
      <path id="Path_412" data-name="Path 412" d="M341.868,486.853h-74.1a28.858,28.858,0,0,1-3.893-.255c.033-.042.074-.091.107-.132,17.168-20.6,12.872-55.47,7.168-78.926l-.391-1.449a108.232,108.232,0,0,1,30.586-19.077v21.653c0,16.658,10.527,30.961,25.571,37.175A117.349,117.349,0,0,0,341.868,486.853Z" transform="translate(-53.528 -77.869)" fill="#89c762"/>
      <path id="Path_413" data-name="Path 413" d="M436.662,286.661a92.98,92.98,0,0,1-117.624,89.781S211.256,320.65,288.849,211.495a92.926,92.926,0,0,1,147.813,75.166Z" transform="translate(-52.902 -38.944)" fill="#ffddcf"/>
      <path id="Path_414" data-name="Path 414" d="M316.519,380.962a93.185,93.185,0,0,1-30.188-164.946C267.345,250.968,247.84,316.767,316.519,380.962Z" transform="translate(-50.383 -43.464)" fill="#ffcbbe"/>
      <path id="Path_415" data-name="Path 415" d="M452.118,247.26a8.47,8.47,0,0,1-11.16,8.263,38.665,38.665,0,0,0-6.979-1.662c-8.9-.749-28.081-6.214-49.948-27.316a12.121,12.121,0,0,0-15.217-1.292,152.528,152.528,0,0,1-31.143,16.041c-76.145-39.331,4.592-93.411,4.592-93.411,3.4-.321,6.855-.486,10.345-.486,54.754,0,99.147,40.171,99.147,89.741C451.756,239.746,451.995,243.507,452.118,247.26Z" transform="translate(-61.799 -29.658)" fill="#eaaa83"/>
      <path id="Path_416" data-name="Path 416" d="M324.694,241.415a184.539,184.539,0,0,1-55.158,11.448h-.025l-17.843,2.626A9.37,9.37,0,0,1,240.97,247c-.3-3.555-.486-7.127-.486-9.745,0-46.409,38.912-84.581,88.8-89.254-10.394,15.628-28.665,52.557-4.592,93.411Z" transform="translate(-48.822 -29.78)" fill="#e4996d"/>
      <path id="Path_417" data-name="Path 417" d="M309.285,325.555a6.172,6.172,0,0,1-6.172-6.172,5.156,5.156,0,0,0-10.312,0,6.172,6.172,0,0,1-12.345,0,17.5,17.5,0,0,1,35,0,6.172,6.172,0,0,1-6.173,6.172Z" transform="translate(-56.865 -60.74)" fill="#455059"/>
      <path id="Path_418" data-name="Path 418" d="M436.059,325.555a6.172,6.172,0,0,1-6.172-6.172,5.156,5.156,0,0,0-10.312,0,6.172,6.172,0,0,1-12.345,0,17.5,17.5,0,0,1,35,0A6.172,6.172,0,0,1,436.059,325.555Z" transform="translate(-82.372 -60.74)" fill="#455059"/>
      <path id="Path_419" data-name="Path 419" d="M361.171,350.46a22.113,22.113,0,0,1-16.671-7.592,6.173,6.173,0,1,1,9.308-8.111,9.752,9.752,0,0,0,14.726,0,6.172,6.172,0,1,1,9.308,8.109A22.108,22.108,0,0,1,361.171,350.46Z" transform="translate(-69.445 -66.929)" fill="#455059"/>
    </g>
  </g>
</svg>
