<svg xmlns="http://www.w3.org/2000/svg" width="181.654" height="267.385" viewBox="0 0 181.654 267.385">
  <g id="_010-kid" data-name="010-kid" transform="translate(-45.825)">
    <g id="Group_94" data-name="Group 94" transform="translate(192.092 38.477)">
      <path id="Path_466" data-name="Path 466" d="M358.707,73.485H373.25v56.957H358.707Z" transform="translate(-358.707 -73.485)" fill="#00366d"/>
    </g>
    <g id="Group_95" data-name="Group 95" transform="translate(68.161 11.361)">
      <path id="Path_467" data-name="Path 467" d="M211.714,21.7H156A33.982,33.982,0,0,0,122.021,55.68v50.091H245.7V55.68A33.982,33.982,0,0,0,211.714,21.7Z" transform="translate(-122.021 -21.698)" fill="#00366d"/>
    </g>
    <g id="Group_96" data-name="Group 96" transform="translate(105.029 185.989)">
      <path id="Path_468" data-name="Path 468" d="M257.559,415.4l-3.319-54.954L225.1,355.205l-30.723,5.369L192.432,415.4Z" transform="translate(-192.432 -355.205)" fill="#fdbd81"/>
    </g>
    <g id="Group_97" data-name="Group 97" transform="translate(68.628 191.23)">
      <path id="Path_469" data-name="Path 469" d="M280.944,400.154a35.588,35.588,0,0,0-28.834-29.363l-30.989-5.575c-4.065,15.623-15.589,54.651-29.245,54.589-10.254-.046-20.161-22.032-26.119-39.519l-6.207-.17a35.657,35.657,0,0,0-36.621,36.668l.129,4.478a128.743,128.743,0,0,0,13.4,7.449l55.424,7.315L248,428.713a129.426,129.426,0,0,0,33.76-23.462Z" transform="translate(-122.913 -365.216)" fill="#847edf"/>
    </g>
    <g id="Group_98" data-name="Group 98" transform="translate(45.825 191.357)">
      <path id="Path_470" data-name="Path 470" d="M108.755,371.008A35.587,35.587,0,0,0,79.746,400.4l-.382,2.371a129.62,129.62,0,0,0,22.946,18.606l1.524-9.457a35.587,35.587,0,0,1,29.008-29.394l12.168-2.126c-1.976-5.8-3.517-11.1-4.494-14.944Z" transform="translate(-79.364 -365.458)" fill="#7264c6"/>
    </g>
    <g id="Group_102" data-name="Group 102" transform="translate(115.985 148.463)">
      <g id="Group_101" data-name="Group 101">
        <g id="Group_100" data-name="Group 100">
          <g id="Group_99" data-name="Group 99">
            <path id="Path_471" data-name="Path 471" d="M233.815,349.82a20.458,20.458,0,0,1-20.458-20.458V283.538h40.916v45.823A20.458,20.458,0,0,1,233.815,349.82Z" transform="translate(-213.357 -283.538)" fill="#f79480"/>
          </g>
        </g>
      </g>
    </g>
    <g id="Group_104" data-name="Group 104" transform="translate(115.985 148.463)">
      <g id="Group_103" data-name="Group 103">
        <path id="Path_472" data-name="Path 472" d="M213.357,283.538V308.9a20.458,20.458,0,0,0,40.917,0V283.538Z" transform="translate(-213.357 -283.538)" fill="#ea806b"/>
      </g>
    </g>
    <g id="Group_108" data-name="Group 108" transform="translate(62.533 89.31)">
      <g id="Group_107" data-name="Group 107">
        <g id="Group_106" data-name="Group 106">
          <g id="Group_105" data-name="Group 105">
            <path id="Path_473" data-name="Path 473" d="M111.273,191.471a13.618,13.618,0,0,0,13.618,13.618V170.566a13.618,13.618,0,0,0-13.618,13.618Z" transform="translate(-111.273 -170.566)" fill="#f79480"/>
          </g>
        </g>
      </g>
    </g>
    <g id="Group_112" data-name="Group 112" transform="translate(71.38 100.524)">
      <g id="Group_111" data-name="Group 111">
        <g id="Group_110" data-name="Group 110">
          <g id="Group_109" data-name="Group 109">
            <path id="Path_474" data-name="Path 474" d="M128.169,199.306a4.771,4.771,0,0,0,4.771,4.771v-12.1a4.771,4.771,0,0,0-4.771,4.771Z" transform="translate(-128.169 -191.982)" fill="#fd5ca6"/>
          </g>
        </g>
      </g>
    </g>
    <g id="Group_116" data-name="Group 116" transform="translate(199.825 89.31)">
      <g id="Group_115" data-name="Group 115">
        <g id="Group_114" data-name="Group 114">
          <g id="Group_113" data-name="Group 113">
            <path id="Path_475" data-name="Path 475" d="M373.477,205.089V170.566A13.618,13.618,0,0,1,387.1,184.184v7.287A13.618,13.618,0,0,1,373.477,205.089Z" transform="translate(-373.477 -170.566)" fill="#f79480"/>
          </g>
        </g>
      </g>
    </g>
    <g id="Group_120" data-name="Group 120" transform="translate(199.825 100.524)">
      <g id="Group_119" data-name="Group 119">
        <g id="Group_118" data-name="Group 118">
          <g id="Group_117" data-name="Group 117">
            <path id="Path_476" data-name="Path 476" d="M373.477,204.077v-12.1a4.771,4.771,0,0,1,4.771,4.771v2.553A4.771,4.771,0,0,1,373.477,204.077Z" transform="translate(-373.477 -191.982)" fill="#fd5ca6"/>
          </g>
        </g>
      </g>
    </g>
    <g id="Group_121" data-name="Group 121" transform="translate(98.457 35.617)">
      <path id="Path_477" data-name="Path 477" d="M278.723,91.744a37.245,37.245,0,0,0-34.7-23.721H194.807a37.089,37.089,0,0,0-14.925,3.122V187.383l0,0a75.6,75.6,0,0,0,50.982,25.873,37.546,37.546,0,0,0,7.866-2.525L249.54,205.9a53.626,53.626,0,0,0,31.711-48.943V137.576Z" transform="translate(-179.882 -68.023)" fill="#fdbd81"/>
    </g>
    <g id="Group_122" data-name="Group 122" transform="translate(117.951 133.597)">
      <path id="Path_478" data-name="Path 478" d="M220.4,255.146a3.277,3.277,0,0,0-3.227,3.885,20.353,20.353,0,0,0,39.956,0,3.278,3.278,0,0,0-3.226-3.885Z" transform="translate(-217.111 -255.146)" fill="#fff"/>
    </g>
    <g id="Group_126" data-name="Group 126" transform="translate(112.605 102.105)">
      <g id="Group_125" data-name="Group 125">
        <g id="Group_124" data-name="Group 124">
          <g id="Group_123" data-name="Group 123">
            <path id="Path_479" data-name="Path 479" d="M206.9,195v4.1a4.838,4.838,0,0,0,9.675,0V195Z" transform="translate(-206.901 -195.002)" fill="#f79480"/>
          </g>
        </g>
      </g>
    </g>
    <g id="Group_130" data-name="Group 130" transform="translate(152.021 102.105)">
      <g id="Group_129" data-name="Group 129">
        <g id="Group_128" data-name="Group 128">
          <g id="Group_127" data-name="Group 127">
            <path id="Path_480" data-name="Path 480" d="M282.179,195v4.1a4.838,4.838,0,0,0,9.675,0V195Z" transform="translate(-282.179 -195.002)" fill="#f79480"/>
          </g>
        </g>
      </g>
    </g>
    <g id="Group_134" data-name="Group 134" transform="translate(112.605 84.258)">
      <g id="Group_133" data-name="Group 133">
        <g id="Group_132" data-name="Group 132">
          <g id="Group_131" data-name="Group 131">
            <path id="Path_481" data-name="Path 481" d="M211.739,183.823a4.838,4.838,0,0,1-4.838-4.838v-6.223l1.783-2.7-1.783-2.7v-1.607a4.838,4.838,0,0,1,9.675,0v13.231A4.838,4.838,0,0,1,211.739,183.823Z" transform="translate(-206.901 -160.918)" fill="#00366d"/>
          </g>
        </g>
      </g>
    </g>
    <g id="Group_138" data-name="Group 138" transform="translate(152.021 84.258)">
      <g id="Group_137" data-name="Group 137">
        <g id="Group_136" data-name="Group 136">
          <g id="Group_135" data-name="Group 135">
            <path id="Path_482" data-name="Path 482" d="M287.017,183.823a4.838,4.838,0,0,1-4.838-4.838v-6.223l1.783-2.7-1.783-2.7v-1.607a4.838,4.838,0,0,1,9.675,0v13.231A4.838,4.838,0,0,1,287.017,183.823Z" transform="translate(-282.179 -160.918)" fill="#00366d"/>
          </g>
        </g>
      </g>
    </g>
    <g id="Group_142" data-name="Group 142" transform="translate(129.533 95.105)">
      <g id="Group_141" data-name="Group 141">
        <g id="Group_140" data-name="Group 140">
          <g id="Group_139" data-name="Group 139">
            <path id="Path_483" data-name="Path 483" d="M239.56,200.559c-1.2,4.8.983,10.033,5.162,11.61a7.564,7.564,0,0,0,5.351,0c4.179-1.577,6.365-6.808,5.162-11.61l-3.987-15.92a3.971,3.971,0,0,0-7.7,0Z" transform="translate(-239.232 -181.633)" fill="#f79480"/>
          </g>
        </g>
      </g>
    </g>
    <g id="Group_144" data-name="Group 144" transform="translate(112.605 88.919)">
      <g id="Group_143" data-name="Group 143">
        <path id="Path_484" data-name="Path 484" d="M208.684,178.786A1.783,1.783,0,0,1,206.9,177v-5.4a1.783,1.783,0,1,1,3.567,0V177A1.783,1.783,0,0,1,208.684,178.786Z" transform="translate(-206.901 -169.819)" fill="#fff"/>
      </g>
    </g>
    <g id="Group_146" data-name="Group 146" transform="translate(152.021 88.919)">
      <g id="Group_145" data-name="Group 145">
        <path id="Path_485" data-name="Path 485" d="M283.962,178.786A1.783,1.783,0,0,1,282.179,177v-5.4a1.783,1.783,0,1,1,3.567,0V177A1.783,1.783,0,0,1,283.962,178.786Z" transform="translate(-282.179 -169.819)" fill="#fff"/>
      </g>
    </g>
    <g id="Group_147" data-name="Group 147" transform="translate(76.039 4.189)">
      <path id="Path_486" data-name="Path 486" d="M211.456,8c-21.315,0-40.214,12.635-51.971,22.8V42.545c-13.131,5.753-22.418,46.992-22.418,62.246l.113,23.567A53.626,53.626,0,0,0,168.89,177.3L179.7,182.14a37.5,37.5,0,0,0,15.326,3.275h7.989a37.47,37.47,0,0,0,7.459-.758,37.525,37.525,0,0,1-7.867-2.517L191.8,177.3a53.626,53.626,0,0,1-31.71-48.943V88.581c0-12.345,12.476-21.067,23.907-16.406q.417.17.833.358a64.682,64.682,0,0,0,26.631,6.187c13.026,0,25.148-4.721,35.291-10.711v-49.3C236.6,12.721,224.481,8,211.456,8Z" transform="translate(-137.067 -8)" fill="#f79480"/>
    </g>
    <g id="Group_148" data-name="Group 148" transform="translate(76.038)">
      <path id="Path_487" data-name="Path 487" d="M211.456,0c-31.106,0-57.07,26.909-63.192,33.777h-11.2v67.2A15.833,15.833,0,0,0,152.9,85.147a22.611,22.611,0,0,1,31.925-20.613,64.682,64.682,0,0,0,26.631,6.187c35.656,0,64.56-35.36,64.56-35.36S247.111,0,211.456,0Z" transform="translate(-137.066)" fill="#00366d"/>
    </g>
    <g id="Group_149" data-name="Group 149" transform="translate(184.175 85.147)">
      <path id="Path_488" data-name="Path 488" d="M343.588,162.616l13.341,6.144,2.31,9.233.183,4.646a15.833,15.833,0,0,1-15.833-15.833Z" transform="translate(-343.588 -162.616)" fill="#f79480"/>
    </g>
    <g id="Group_150" data-name="Group 150" transform="translate(184.175 33.777)">
      <path id="Path_489" data-name="Path 489" d="M343.588,64.509h15.833v67.2a15.833,15.833,0,0,1-15.833-15.833Z" transform="translate(-343.588 -64.509)" fill="#00366d"/>
    </g>
    <g id="Group_151" data-name="Group 151" transform="translate(82.167 254.728)">
      <path id="Path_490" data-name="Path 490" d="M148.771,486.485a129.222,129.222,0,0,0,111.552,0Z" transform="translate(-148.771 -486.485)" fill="#847edf"/>
    </g>
    <g id="Group_152" data-name="Group 152" transform="translate(156.592 76.491)">
      <path id="Path_491" data-name="Path 491" d="M303.78,158.955h-5.326a7.553,7.553,0,0,0-7.545-7.544v-5.327a12.884,12.884,0,0,1,12.871,12.871Z" transform="translate(-290.909 -146.084)" fill="#f79480"/>
    </g>
    <g id="Group_153" data-name="Group 153" transform="translate(104.389 76.491)">
      <path id="Path_492" data-name="Path 492" d="M196.536,158.955H191.21a12.885,12.885,0,0,1,12.871-12.871v5.327A7.553,7.553,0,0,0,196.536,158.955Z" transform="translate(-191.21 -146.084)" fill="#f79480"/>
    </g>
  </g>
</svg>
