<svg xmlns="http://www.w3.org/2000/svg" width="632.424" height="489.766" viewBox="0 0 632.424 489.766">
  <g id="Group_62" data-name="Group 62" transform="translate(-526.988 -305.355)">
    <g id="Group_2" data-name="Group 2" transform="translate(615.668 562.312)">
      <path id="Path_1" data-name="Path 1" d="M1843.922,1049.668h-15.461v-50.72l6.982-11.065a.885.885,0,0,1,1.5,0l6.982,11.065Z" transform="translate(-1426.869 -987.47)" fill="#b3c5ff"/>
      <path id="Path_2" data-name="Path 2" d="M1762.723,1049.668h-15.46v-50.72l6.982-11.065a.886.886,0,0,1,1.5,0l6.981,11.065Z" transform="translate(-1376.259 -987.47)" fill="#b3c5ff"/>
      <path id="Path_3" data-name="Path 3" d="M1681.525,1049.668h-15.461v-50.72l6.981-11.065a.886.886,0,0,1,1.5,0l6.981,11.065Z" transform="translate(-1325.648 -987.47)" fill="#b3c5ff"/>
      <path id="Path_4" data-name="Path 4" d="M1600.327,1049.668h-15.461v-50.72l6.981-11.065a.886.886,0,0,1,1.5,0l6.981,11.065Z" transform="translate(-1275.038 -987.47)" fill="#b3c5ff"/>
      <path id="Path_5" data-name="Path 5" d="M1519.128,1049.668h-15.461v-50.72l6.981-11.065a.886.886,0,0,1,1.5,0l6.981,11.065Z" transform="translate(-1224.427 -987.47)" fill="#b3c5ff"/>
      <path id="Path_6" data-name="Path 6" d="M1437.93,1049.668h-15.461v-50.72l6.981-11.065a.886.886,0,0,1,1.5,0l6.981,11.065Z" transform="translate(-1173.817 -987.47)" fill="#b3c5ff"/>
      <path id="Path_7" data-name="Path 7" d="M1356.732,1049.668h-15.461v-50.72l6.981-11.065a.886.886,0,0,1,1.5,0l6.981,11.065Z" transform="translate(-1123.206 -987.47)" fill="#b3c5ff"/>
      <path id="Path_8" data-name="Path 8" d="M1275.534,1049.668h-15.461v-50.72l6.981-11.065a.886.886,0,0,1,1.5,0l6.981,11.065Z" transform="translate(-1072.596 -987.47)" fill="#b3c5ff"/>
      <path id="Path_9" data-name="Path 9" d="M1194.336,1049.668h-15.461v-50.72l6.981-11.065a.886.886,0,0,1,1.5,0l6.981,11.065Z" transform="translate(-1021.986 -987.47)" fill="#b3c5ff"/>
      <path id="Path_10" data-name="Path 10" d="M1113.137,1049.668h-15.461v-50.72l6.981-11.065a.886.886,0,0,1,1.5,0l6.981,11.065Z" transform="translate(-971.375 -987.47)" fill="#b3c5ff"/>
      <path id="Path_11" data-name="Path 11" d="M1031.939,1049.668h-15.461v-50.72l6.981-11.065a.886.886,0,0,1,1.5,0l6.981,11.065Z" transform="translate(-920.765 -987.47)" fill="#b3c5ff"/>
      <path id="Path_12" data-name="Path 12" d="M950.741,1049.668H935.28v-50.72l6.981-11.065a.886.886,0,0,1,1.5,0l6.981,11.065Z" transform="translate(-870.154 -987.47)" fill="#b3c5ff"/>
      <path id="Path_13" data-name="Path 13" d="M788.345,1049.668H772.884v-50.72l6.981-11.065a.886.886,0,0,1,1.5,0l6.981,11.065Z" transform="translate(-768.934 -987.47)" fill="#b3c5ff"/>
      <rect id="Rectangle_4" data-name="Rectangle 4" width="412.553" height="7.929" transform="translate(0 30.553)" fill="#b3c5ff"/>
    </g>
    <path id="Path_14" data-name="Path 14" d="M1415.449,1108.61a22.272,22.272,0,0,0,.135,2.462h70.664a15.935,15.935,0,0,0-27.368-11.1,22.575,22.575,0,0,0-43.431,8.64Z" transform="translate(-553.773 -486.594)" fill="#6a86ce"/>
    <g id="Group_3" data-name="Group 3" transform="translate(1120.413 707.338)">
      <path id="Path_16" data-name="Path 16" d="M2124.743,1382.4c1.315,5.127,5.974,13.036,5.974,13.036s.278-9.175-1.037-14.3-3.344-9.037-4.85-8.65S2123.427,1377.271,2124.743,1382.4Z" transform="translate(-2115.653 -1372.455)" fill="#6a86ce"/>
      <path id="Path_17" data-name="Path 17" d="M2106.7,1403.471c3.184,3.333,10.094,7.353,10.094,7.353s-3.7-7.086-6.886-10.419-6.391-5.436-7.37-4.5S2103.519,1400.138,2106.7,1403.471Z" transform="translate(-2102.289 -1386.931)" fill="#6a86ce"/>
      <path id="Path_18" data-name="Path 18" d="M2157.7,1440.845c-5.149-1.227-13.137-5.75-13.137-5.75s9.17-.434,14.319.793,9.093,3.189,8.732,4.7S2162.849,1442.073,2157.7,1440.845Z" transform="translate(-2128.638 -1411.451)" fill="#6a86ce"/>
      <path id="Path_19" data-name="Path 19" d="M2149.694,1446.7c-3.387-3.127-7.524-9.967-7.524-9.967s7.147,3.579,10.534,6.706,5.545,6.3,4.627,7.293S2153.081,1449.831,2149.694,1446.7Z" transform="translate(-2127.147 -1412.522)" fill="#6a86ce"/>
      <path id="Path_20" data-name="Path 20" d="M2118.845,1431.686c-3.979,4.047-7.185,7.346-6.365,8.151s4.063-2.456,8.042-6.5,7.184-7.346,6.365-8.152S2122.823,1427.639,2118.845,1431.686Z" transform="translate(-2108.561 -1405.243)" fill="#060534"/>
      <path id="Path_21" data-name="Path 21" d="M2147.936,1419.422a1.892,1.892,0,1,0,2.676-.023A1.893,1.893,0,0,0,2147.936,1419.422Z" transform="translate(-2130.403 -1401.377)" fill="#060534"/>
    </g>
    <path id="Path_22" data-name="Path 22" d="M656.987,346.636H529.1a2.114,2.114,0,0,1-1.884-3.061A24.924,24.924,0,0,1,557.3,330.893q-.094-1.043-.095-2.106a23.433,23.433,0,0,1,44.38-10.5,26.8,26.8,0,0,1,28.353,14.389,19.4,19.4,0,0,1,29.093,11.305A2.111,2.111,0,0,1,656.987,346.636Z" transform="translate(0 0)" fill="#95a6db"/>
    <path id="Path_23" data-name="Path 23" d="M1664.4,439.109h93.628a1.548,1.548,0,0,0,1.38-2.241,18.249,18.249,0,0,0-22.025-9.285q.068-.763.069-1.542a17.155,17.155,0,0,0-32.49-7.689,19.623,19.623,0,0,0-20.757,10.534,14.2,14.2,0,0,0-21.3,8.276A1.546,1.546,0,0,0,1664.4,439.109Z" transform="translate(-707.979 -64.531)" fill="#95a6db"/>
    <path id="Path_24" data-name="Path 24" d="M1046.855,465.912c-4.193-6.988-11.781-8.828-18.991-11.1,7.025,4.253,14.567,8.541,20.046,14.552,1.9-6.982,3.312-13.387,6.343-20.369C1048.655,453.921,1048.432,458.394,1046.855,465.912Z" transform="translate(-312.193 -89.533)" fill="#95a6db"/>
    <path id="Path_25" data-name="Path 25" d="M1136.453,385.25c-3.126-5.212-8.787-6.584-14.165-8.276,5.24,3.172,10.865,6.371,14.952,10.854,1.418-5.207,2.47-9.985,4.732-15.193C1137.8,376.306,1137.63,379.642,1136.453,385.25Z" transform="translate(-371.048 -41.935)" fill="#95a6db"/>
    <g id="Group_61" data-name="Group 61" transform="translate(540.635 379.849)">
      <g id="Group_15" data-name="Group 15" transform="translate(0 36.656)">
        <path id="Path_26" data-name="Path 26" d="M660.483,1431.126c-1.125,18.161-1.543,38.951-1.868,53.048a11.372,11.372,0,0,0,12.758,1.171s8.99-29.654,10.168-56.286C670.729,1427.114,660.483,1431.126,660.483,1431.126Z" transform="translate(-622.677 -1116.571)" fill="#fb9491"/>
        <path id="Path_27" data-name="Path 27" d="M656.365,1576.538c-1.171,1.757-1.421,5.584-1.348,8.22a2.435,2.435,0,0,0,2.431,2.374H685.8c0-5.974-6.621-8.1-16.673-9.532C661.166,1576.779,656.365,1576.538,656.365,1576.538Z" transform="translate(-620.427 -1208.826)" fill="#3662c1"/>
        <path id="Path_28" data-name="Path 28" d="M658.615,1576.538c1.26,4.4,14.62,5.126,17.169,4.4s-2.85-2.453-4.411-3.335C670.149,1576.908,658.615,1576.538,658.615,1576.538Z" transform="translate(-622.677 -1208.826)" fill="#fb9491"/>
        <path id="Path_29" data-name="Path 29" d="M736.742,1447.634c1.483,17.1,3.286,34.51,4.093,47.911a11.371,11.371,0,0,0,12.758,1.171s1.278-21.1,4.411-49.082A66.668,66.668,0,0,0,736.742,1447.634Z" transform="translate(-671.373 -1127.942)" fill="#fb9491"/>
        <path id="Path_30" data-name="Path 30" d="M745.358,1576.538c-1.171,1.757-1.42,5.584-1.348,8.22a2.434,2.434,0,0,0,2.43,2.374h28.349c0-5.974-6.621-8.1-16.673-9.532C750.159,1576.779,745.358,1576.538,745.358,1576.538Z" transform="translate(-675.896 -1208.826)" fill="#3662c1"/>
        <path id="Path_31" data-name="Path 31" d="M747.607,1576.538c1.447,4.4,14.62,5.126,17.169,4.4s-2.85-2.453-4.411-3.335C759.141,1576.908,747.607,1576.538,747.607,1576.538Z" transform="translate(-678.145 -1208.826)" fill="#fb9491"/>
        <path id="Path_32" data-name="Path 32" d="M595.564,1220.818c4.647,1.832,14.565,4.009,26.837,5.536,21.85,2.715,51.163,3.362,71.469-3.7-.468-38.433-9.466-156.565-9.466-156.565l-57.569-2.59-9.492-.426C613.426,1074.371,595.564,1162.853,595.564,1220.818Z" transform="translate(-583.378 -888.783)" fill="#f589a3"/>
        <path id="Path_33" data-name="Path 33" d="M595.564,1220.818c4.647,1.832,14.565,4.009,26.837,5.536l0,0c1.811-56.07,14.755-155.438,14.755-155.438l-10.323-7.419-9.492-.426C613.426,1074.371,595.564,1162.853,595.564,1220.818Z" transform="translate(-583.378 -888.783)" fill="#e85348"/>
        <path id="Path_34" data-name="Path 34" d="M741.465,617.71c4.645-8.2-3.117-19.035-16.5-17.063s-17.353,13.428-10.726,17.969S741.465,617.71,741.465,617.71Z" transform="translate(-655.389 -600.411)" fill="#fff"/>
        <path id="Path_35" data-name="Path 35" d="M696.637,837.893l.58,86.975,33.96-.894,5.751-.151,4.005-18.47,7.484-34.5-8.72-35c-11.152-2.445-31.721.283-31.721.283Z" transform="translate(-646.376 -746.522)" fill="#607edb"/>
        <path id="Path_36" data-name="Path 36" d="M735.979,644.9c8.535,1.43,19.9,12.227,16.166,33.5-3.738,21.324-15.1,25.949-20.652,25.462-6.715-.589-21.587-4.565-25.4-22.8C702.277,662.787,706.459,639.961,735.979,644.9Z" transform="translate(-651.529 -627.717)" fill="#fb9491"/>
        <path id="Path_37" data-name="Path 37" d="M780.755,960.225,775.5,994.692l7.218.065,2.539-18.686,3.022-27.785c-7.027,6.079-20.53,9.984-20.53,9.984Z" transform="translate(-690.699 -817.24)" fill="#4a6edb"/>
        <path id="Path_38" data-name="Path 38" d="M748.25,790s.828,15.951,6.03,15.951c-2.827,6.1-14.6,18.348-27.541,1.238,4.612-5.356,4.933-18.794,4.933-18.794Z" transform="translate(-665.138 -717.578)" fill="#fb9491"/>
        <path id="Path_39" data-name="Path 39" d="M805.281,879.482c-1.286,12.436-5.959,52.114-5.959,52.114l8.749-4.539s1.326-24.624,5.934-38.2,8.655-11.138,5.442-23.28c22.078,3.821,47.162,11.893,47.162,11.893A29.782,29.782,0,0,0,872.3,873.4c3.07-2.608,5.091-10.027,10.408-16.436-37.025-4.206-68.826-19.185-85.919-22.726,0,0,14.1,20.411,9.544,37.777A65.9,65.9,0,0,0,805.281,879.482Z" transform="translate(-708.799 -746.155)" fill="#fd7166"/>
        <path id="Path_40" data-name="Path 40" d="M563.228,894.183c.346,11.375,8.892,28.552,26.585,36.345.561-1.808,1.081-3.3,1.543-4.522v0a26.081,26.081,0,0,1,2.167-4.736s-.86-2.1-2.1-5.089c-2.875-6.925-8.815-23.2-9.922-24.757,7.853-7.079,19.778-22.43,20.284-23.36a32.758,32.758,0,0,0-1.943,5.325c-2.226,7.622-5.279,23.9-3.13,52.144.132,1.751,2.377,3.569,5.65,5.037,5.746,2.579,14.664,4.078,20.893,2.247-2.9-28.162,5.323-39.878,2.608-60.265-2.748-20.649-1.047-34.505-1.047-34.505-8.217-.226-20.644-2.02-38.5,17.094S562.908,883.6,563.228,894.183Z" transform="translate(-563.215 -748.436)" fill="#fd7166"/>
        <path id="Path_41" data-name="Path 41" d="M683.457,666.823c.522,16.36,16.719,30.022,21.354,27.107-9.905-4.954-8.37-21.509-5.45-26.219,15.025-1.5,24.107-13.462,24.227-23.234.029-2.1-3.777-8.531-9.627-8.929-17.794-1.215-27.622,8.729-30.264,26.923A24.6,24.6,0,0,0,683.457,666.823Z" transform="translate(-638.153 -622.25)" fill="#fff"/>
        <path id="Path_42" data-name="Path 42" d="M778.841,650.839c1.8,3.847,12.638,15.2,16.155,16.306.715,4.53.855,11.269-3.221,20.348,4.284-2.6,7.8-9.515,8.508-17.776a35.285,35.285,0,0,0-3.052-17.756c-6.752-14.646-21.793-14.038-22.44-13.384S778.841,650.839,778.841,650.839Z" transform="translate(-695.051 -624.034)" fill="#fff"/>
        <path id="Path_43" data-name="Path 43" d="M759.8,729.832a2.3,2.3,0,1,0,2.544-2.021A2.3,2.3,0,0,0,759.8,729.832Z" transform="translate(-685.739 -679.809)"/>
        <path id="Path_44" data-name="Path 44" d="M803.453,737.249A2.3,2.3,0,1,0,806,735.228,2.3,2.3,0,0,0,803.453,737.249Z" transform="translate(-712.944 -684.432)"/>
        <g id="Group_4" data-name="Group 4" transform="translate(70.955 41.299)">
          <path id="Path_45" data-name="Path 45" d="M752.633,713.665a1.059,1.059,0,0,0,.713-.274c2.181-1.972,5.658-.974,5.693-.964a1.062,1.062,0,0,0,.6-2.037c-.189-.056-4.666-1.339-7.721,1.425a1.062,1.062,0,0,0,.712,1.85Z" transform="translate(-751.571 -710.044)" fill="#fff"/>
        </g>
        <g id="Group_5" data-name="Group 5" transform="translate(91.281 43.626)">
          <path id="Path_46" data-name="Path 46" d="M811.9,720.568a.97.97,0,0,0,.782-1.542c-2-2.738-6-2.8-6.17-2.806a.97.97,0,0,0-.02,1.939c.052,0,3.207.073,4.623,2.011A.969.969,0,0,0,811.9,720.568Z" transform="translate(-805.529 -716.22)" fill="#fff"/>
        </g>
        <g id="Group_6" data-name="Group 6" transform="translate(80.254 56.042)">
          <path id="Path_47" data-name="Path 47" d="M779.488,756a3.255,3.255,0,0,0,2.348-1.152c1.506-1.917.243-5.121.188-5.257a.664.664,0,0,0-1.232.5c.29.727.856,2.852,0,3.943-.971,1.236-3.635.389-3.662.38a.664.664,0,0,0-.421,1.259A7.57,7.57,0,0,0,779.488,756Z" transform="translate(-776.257 -749.18)" fill="#d65736"/>
        </g>
        <path id="Path_48" data-name="Path 48" d="M758.023,768.914a.849.849,0,0,0-1.114.817c.012,2.084,1.813,4.22,4.506,5.116s5.438.261,6.689-1.415a.846.846,0,0,0-.419-1.3,20.87,20.87,0,0,1-9.662-3.217Z" transform="translate(-683.943 -705.411)" fill="#fff"/>
        <g id="Group_13" data-name="Group 13" transform="translate(60.04 44.598)">
          <g id="Group_8" data-name="Group 8" transform="translate(26.569 2.596)">
            <g id="Group_7" data-name="Group 7">
              <path id="Path_49" data-name="Path 49" d="M798.606,738.016a6.188,6.188,0,0,1-5.439-6.844h0a6.193,6.193,0,1,1,5.439,6.844Zm-3.89-6.667a4.622,4.622,0,1,0,5.118-4.067,4.733,4.733,0,0,0-.529-.03A4.629,4.629,0,0,0,794.715,731.349Z" transform="translate(-793.127 -725.694)" fill="#060534"/>
            </g>
          </g>
          <g id="Group_10" data-name="Group 10" transform="translate(10.126)">
            <g id="Group_9" data-name="Group 9">
              <path id="Path_50" data-name="Path 50" d="M754.957,731.125a6.181,6.181,0,0,1-5.438-6.843h0a6.181,6.181,0,1,1,6.154,6.884A6.251,6.251,0,0,1,754.957,731.125Zm-2.173-9.76a4.59,4.59,0,0,0-1.717,3.093h0a4.624,4.624,0,1,0,1.717-3.093Z" transform="translate(-749.477 -718.802)" fill="#060534"/>
            </g>
          </g>
          <g id="Group_11" data-name="Group 11" transform="translate(0 0.863)">
            <rect id="Rectangle_5" data-name="Rectangle 5" width="1.821" height="10.643" transform="translate(0 1.766) rotate(-75.9)" fill="#060534"/>
          </g>
          <g id="Group_12" data-name="Group 12" transform="translate(21.593 5.685)">
            <rect id="Rectangle_6" data-name="Rectangle 6" width="1.559" height="5.898" transform="translate(0 1.541) rotate(-81.287)" fill="#060534"/>
          </g>
        </g>
        <path id="Path_51" data-name="Path 51" d="M707.272,726.23c1.373,3.014,4.475,4.553,6.928,3.436s3.33-4.468,1.957-7.482-4.335-5.018-6.789-3.9S705.9,723.216,707.272,726.23Z" transform="translate(-652.62 -673.685)" fill="#fb9491"/>
        <g id="Group_14" data-name="Group 14" transform="translate(57.832 46.622)">
          <path id="Path_52" data-name="Path 52" d="M719.125,730.95a.661.661,0,0,0,.5-.176,2.785,2.785,0,0,0,.883-2.273,6.079,6.079,0,0,0-2.722-4.2.664.664,0,0,0-.786,1.069,4.857,4.857,0,0,1,2.183,3.2,1.479,1.479,0,0,1-.464,1.225.663.663,0,0,0,.4,1.147Z" transform="translate(-716.735 -724.175)" fill="#d65736"/>
        </g>
        <path id="Path_53" data-name="Path 53" d="M839.868,920.616c4.609-13.573,6.57-10.118,3.357-22.26,22.078,3.821,47.161,11.893,47.161,11.893s4.693-8.352,8.408-11.506c-7.853.345-45.337-8.128-60.853-11.5-1.546,5.614,1.455,14.05-1.452,19.248C836.016,908.3,835.26,934.187,839.868,920.616Z" transform="translate(-733.321 -779.192)" fill="#db6258"/>
        <path id="Path_54" data-name="Path 54" d="M654.051,911.307c-2.226,7.622-5.279,23.9-3.13,52.144.132,1.751,2.377,3.569,5.65,5.037a34.112,34.112,0,0,0,4.182-.327c-5.174-23.211,1.961-69.422,1.961-69.422l-6.7,7.209a.008.008,0,0,1,0,.005C655.966,906.072,655.179,908.211,654.051,911.307Z" transform="translate(-617.426 -786.357)" fill="#db6258"/>
        <path id="Path_55" data-name="Path 55" d="M637.919,1055.521a26.082,26.082,0,0,1,2.167-4.736s-.86-2.1-2.1-5.089C637.958,1050.464,637.927,1054.57,637.919,1055.521Z" transform="translate(-609.777 -877.955)" fill="#db6258"/>
        <path id="Path_56" data-name="Path 56" d="M633.825,1062.5c2.6,3.1,4.515,8.129,14.206,8.034s6.078-8.264-.38-9.371-5.43-1.464-6.228-3.26a15.938,15.938,0,0,1-1.022-4.609s1.238-5.311-1.315-3.135a8.878,8.878,0,0,0-2.166,3.444C635.643,1057.523,633.825,1062.5,633.825,1062.5Z" transform="translate(-607.226 -880.41)" fill="#fb9491"/>
      </g>
      <g id="Group_30" data-name="Group 30" transform="translate(412.463 49.254)">
        <path id="Path_57" data-name="Path 57" d="M1717.956,692.606c.236,3.493,2.425,6.19,4.89,6.023s4.271-3.133,4.036-6.626-2.425-6.19-4.89-6.024S1717.72,689.112,1717.956,692.606Z" transform="translate(-1695.409 -666.339)" fill="#fff"/>
        <path id="Path_58" data-name="Path 58" d="M1836.673,719.107a5.987,5.987,0,1,0,5.57-6.377A5.988,5.988,0,0,0,1836.673,719.107Z" transform="translate(-1769.409 -683.009)" fill="#fff"/>
        <path id="Path_59" data-name="Path 59" d="M2039.99,1098.1c.336-2.068-5.3-9.926-10.165-9.062s-5.07,13.624-5.07,13.624h-7.133s-.513-19.807,12.346-20.41c7.736-1.1,18.1,1.524,18.1,16.291C2044.545,1099.544,2039.99,1098.1,2039.99,1098.1Z" transform="translate(-1882.2 -913.197)" fill="#0b0754"/>
        <path id="Path_60" data-name="Path 60" d="M2047.026,1060.416c3.662,1.23,14.382,10.482,4.691,18.077-10.045,7.873-20.967-3.272-15.394-3.9,8.677-.985,3.969-7.064,1-6.784-7.794.734-9.671,5.148-9.671,5.148s-1.757-3.752,1.431-8.964c1-1.085,2.678-4.26,6.755-5.036C2040.616,1058.042,2047.026,1060.416,2047.026,1060.416Z" transform="translate(-1888.151 -898.686)" fill="#fb9491"/>
        <path id="Path_61" data-name="Path 61" d="M1658.137,832.477l12.82,13.867,7.876-10.728s2.418,8.694.252,62.605c-.218,5.429,47.408,4.585,67.421,2.821,5.274-.465,8.63-.992,8.69-1.488,4.354-36.763-3.673-63.031-4.245-64.842l.021.058.041.122.026.072.057.169.2.572.088.262.221.634c.042.114.083.233.125.356,2.242,6.409,8.622,24.307,12.929,32.905,5.3,10.583,34.407,27.744,34.407,27.744s1.855-2.177,10.326-3.338c7.035-.961,7.615-1.136,7.615-1.136L1785.1,861.655s-3.567-19.8-16.919-43.948-25.845-23.229-41.819-25.8c0,0-9.435-1.075-26.749,3.928C1675.656,802.757,1658.137,832.477,1658.137,832.477Z" transform="translate(-1658.137 -732.305)" fill="#fd857c"/>
        <path id="Path_62" data-name="Path 62" d="M1725.976,663.368c1.1,16.237,15.916,28.459,26.645,27.735,10.585-.715,23.772-14.828,22.676-31.064s-12.917-27.048-26.537-26.129S1724.88,647.132,1725.976,663.368Z" transform="translate(-1700.371 -633.856)" fill="#fb9491"/>
        <path id="Path_63" data-name="Path 63" d="M1886.62,959.619a11.071,11.071,0,0,0,2.3,1.68c5.274-.465,8.63-.992,8.69-1.488,4.354-36.763-3.673-63.031-4.245-64.842l-.02-.063a.033.033,0,0,1-.005-.015l0-.01,0-.008,0,0-5.77-6.385S1893.559,916.731,1886.62,959.619Z" transform="translate(-1800.549 -792.563)" fill="#f589a3"/>
        <path id="Path_64" data-name="Path 64" d="M1795.78,742.138l1.26,18.67s-6.664,19.765-17.364,28.711c-5.372-10.272-11.439-24.644-11.439-24.644l3.389-14.5Z" transform="translate(-1726.762 -701.347)" fill="#fb9491"/>
        <path id="Path_65" data-name="Path 65" d="M1775.355,1075.627s2.254,28.063-1.8,48.277-12.194,54.159-12.194,54.159l9,95.486-22.785.54-18.893-96.563,2.8-61.382-11.786,53.03-3.088,103.945h-26.126V1156.511l8.764-82.215Z" transform="translate(-1678.297 -908.38)" fill="#0b0754"/>
        <path id="Path_66" data-name="Path 66" d="M1867.117,798.352c-5.911,11.887-4.3,68.609-.938,103.885h-8.807s-9.131-71.482,1.9-105.816A20.614,20.614,0,0,1,1867.117,798.352Z" transform="translate(-1780.107 -735.182)" fill="#0b0754"/>
        <path id="Path_67" data-name="Path 67" d="M1738.025,807.694s-2.674,60.18,6.015,104.827c-9.127.229-8.356-2.111-8.356-2.111s-6.963-55.192-6.212-97.663C1731.5,810.1,1738.025,807.694,1738.025,807.694Z" transform="translate(-1702.564 -742.208)" fill="#0b0754"/>
        <path id="Path_68" data-name="Path 68" d="M1761.649,827.137l-11.439-24.644s-6.488.377-10.9,3.005a13.34,13.34,0,0,0,4.131,9l5.857-.644-2.61,5.2Z" transform="translate(-1708.735 -738.966)" fill="#e85348"/>
        <path id="Path_69" data-name="Path 69" d="M1798.6,819.868l17.364-28.711s7.457-1.4,11.624,1.595c-.9,5.857-10.1,15.71-10.1,15.71l-5.78-1.14,2.158,5.405Z" transform="translate(-1745.689 -731.698)" fill="#e85348"/>
        <path id="Path_70" data-name="Path 70" d="M2077,1302.872h8.073v-178.32l-8.073-.568Z" transform="translate(-1919.215 -939.35)" fill="#0b0754"/>
        <path id="Path_71" data-name="Path 71" d="M1781.711,887.5a2.228,2.228,0,1,0,2.073-2.374A2.228,2.228,0,0,0,1781.711,887.5Z" transform="translate(-1735.157 -790.465)" fill="#e85348"/>
        <path id="Path_72" data-name="Path 72" d="M1785.245,939.832a2.228,2.228,0,1,0,2.073-2.373A2.228,2.228,0,0,0,1785.245,939.832Z" transform="translate(-1737.36 -823.087)" fill="#e85348"/>
        <path id="Path_73" data-name="Path 73" d="M1788.779,992.169a2.228,2.228,0,1,0,2.073-2.373A2.228,2.228,0,0,0,1788.779,992.169Z" transform="translate(-1739.562 -855.708)" fill="#e85348"/>
        <path id="Path_74" data-name="Path 74" d="M1792.312,1044.505a2.228,2.228,0,1,0,2.073-2.373A2.228,2.228,0,0,0,1792.312,1044.505Z" transform="translate(-1741.764 -888.329)" fill="#e85348"/>
        <path id="Path_75" data-name="Path 75" d="M1833.042,665.328a5.987,5.987,0,1,0,5.57-6.377A5.988,5.988,0,0,0,1833.042,665.328Z" transform="translate(-1767.146 -649.489)" fill="#fff"/>
        <path id="Path_76" data-name="Path 76" d="M1822.911,682.543a4.473,4.473,0,1,0,4.162-4.764A4.474,4.474,0,0,0,1822.911,682.543Z" transform="translate(-1760.833 -661.226)" fill="#fff"/>
        <path id="Path_77" data-name="Path 77" d="M1849.831,678.049a5.987,5.987,0,1,0,5.571-6.377A5.988,5.988,0,0,0,1849.831,678.049Z" transform="translate(-1777.61 -657.418)" fill="#fff"/>
        <path id="Path_78" data-name="Path 78" d="M1851.511,696.606a5.987,5.987,0,1,0,7.54-3.854A5.988,5.988,0,0,0,1851.511,696.606Z" transform="translate(-1778.484 -670.383)" fill="#fff"/>
        <path id="Path_79" data-name="Path 79" d="M1740.613,708.211a2.317,2.317,0,1,0,2.156-2.469A2.317,2.317,0,0,0,1740.613,708.211Z" transform="translate(-1709.541 -678.659)"/>
        <path id="Path_80" data-name="Path 80" d="M1788.319,704.99a2.317,2.317,0,1,0,2.156-2.468A2.317,2.317,0,0,0,1788.319,704.99Z" transform="translate(-1739.275 -676.652)"/>
        <g id="Group_16" data-name="Group 16" transform="translate(47.968 19.503)">
          <path id="Path_81" data-name="Path 81" d="M1793.983,689.293a1.333,1.333,0,0,0,.474-2.317c-3.224-2.612-7.973-.638-8.174-.553a1.333,1.333,0,0,0,1.04,2.455h0c.035-.014,3.483-1.43,5.456.169A1.331,1.331,0,0,0,1793.983,689.293Z" transform="translate(-1785.472 -685.628)" fill="#fff"/>
        </g>
        <g id="Group_17" data-name="Group 17" transform="translate(27.386 21.004)">
          <path id="Path_82" data-name="Path 82" d="M1732.063,694.162a1.333,1.333,0,0,0,1.182-.542c1.5-2.058,4.891-1.131,4.924-1.121a1.333,1.333,0,0,0,.752-2.558c-.212-.062-5.205-1.481-7.829,2.105a1.334,1.334,0,0,0,.97,2.116Z" transform="translate(-1730.836 -689.612)" fill="#fff"/>
        </g>
        <g id="Group_18" data-name="Group 18" transform="translate(38.148 33.072)">
          <path id="Path_83" data-name="Path 83" d="M1764.39,731.376a7.526,7.526,0,0,0,3.284-.918.741.741,0,0,0-.771-1.265,7,7,0,0,1-5.055.448,1.4,1.4,0,0,1-.884-.623c-.365-.973.458-4.323,1.16-6.39a.74.74,0,0,0-1.4-.476c-.311.915-1.826,5.57-1.145,7.386a2.715,2.715,0,0,0,1.787,1.5A7.918,7.918,0,0,0,1764.39,731.376Z" transform="translate(-1759.403 -721.649)" fill="#d65736"/>
        </g>
        <path id="Path_84" data-name="Path 84" d="M1732.719,730.731c-.4-1.636-.548-2.681-.548-2.681a13.129,13.129,0,0,0,3.146,4.019c2.694,2.126,5.748,1.638,14.676.623,11.1-1.262,23.7,1.134,26.994-10.116l1.8-.15a38.086,38.086,0,0,1-.922,7.107c.76,5.182-.942,7.7-2.064,7.874-.647,7.466-4.809,7.546-5.91,7.373h0c-2.109,3.81-5.545,5.134-8.645,4.618h0c-6.818,4.928-10.5,2.031-11.467.74-4.135,2.159-7.865-2.114-8.739-4.214-4.51.785-5.006-5.25-5.1-6.665C1732.983,738.7,1732.972,734.157,1732.719,730.731Z" transform="translate(-1704.282 -689.061)" fill="#fff"/>
        <g id="Group_19" data-name="Group 19" transform="translate(40.627 45.056)">
          <path id="Path_85" data-name="Path 85" d="M1771.3,758.035a12.116,12.116,0,0,0,7.065-3.1.859.859,0,0,0-1.2-1.232c-.189.182-4.484,4.229-10,1.923a.859.859,0,0,0-.663,1.586A10.467,10.467,0,0,0,1771.3,758.035Z" transform="translate(-1765.985 -753.46)"/>
        </g>
        <g id="Group_20" data-name="Group 20" transform="translate(33.931 11.192)">
          <path id="Path_86" data-name="Path 86" d="M1763.6,666.188a.74.74,0,0,0,.213-1.431c-.35-.133-8.633-3.2-15.259,1.054a.74.74,0,0,0,.8,1.246c6-3.852,13.855-.946,13.934-.916A.732.732,0,0,0,1763.6,666.188Z" transform="translate(-1748.211 -663.566)" fill="#d65736"/>
        </g>
        <g id="Group_21" data-name="Group 21" transform="translate(36.069 6.993)">
          <path id="Path_87" data-name="Path 87" d="M1766.945,655.236a.741.741,0,0,0,.274-1.406c-.273-.132-6.76-3.2-12.946.155a.741.741,0,0,0,.707,1.3c5.5-2.99,11.533-.152,11.593-.123A.743.743,0,0,0,1766.945,655.236Z" transform="translate(-1753.886 -652.42)" fill="#d65736"/>
        </g>
        <g id="Group_23" data-name="Group 23" transform="translate(43.664 23.625)">
          <g id="Group_22" data-name="Group 22">
            <path id="Path_88" data-name="Path 88" d="M1774.22,703.264l-.165-2.447a3.5,3.5,0,0,1,3.25-3.721l7.638-.516a3.5,3.5,0,0,1,3.721,3.25l.166,2.448a3.5,3.5,0,0,1-3.25,3.721l-7.638.515A3.5,3.5,0,0,1,1774.22,703.264Zm3.207-4.357a1.68,1.68,0,0,0-1.561,1.787l.165,2.448a1.679,1.679,0,0,0,1.787,1.561l7.637-.515a1.679,1.679,0,0,0,1.561-1.787l-.165-2.448a1.68,1.68,0,0,0-1.786-1.561Z" transform="translate(-1774.047 -696.572)" fill="#0b0754"/>
          </g>
        </g>
        <g id="Group_25" data-name="Group 25" transform="translate(25.341 24.934)">
          <g id="Group_24" data-name="Group 24">
            <path id="Path_89" data-name="Path 89" d="M1725.589,706.741l-.175-2.6a3.4,3.4,0,0,1,3.157-3.614l7.061-.477a3.4,3.4,0,0,1,3.614,3.156l.175,2.6a3.4,3.4,0,0,1-3.157,3.614l-7.061.476A3.4,3.4,0,0,1,1725.589,706.741Zm3.1-4.45a1.631,1.631,0,0,0-1.516,1.735l.175,2.6a1.631,1.631,0,0,0,1.736,1.516l7.06-.477a1.631,1.631,0,0,0,1.516-1.735l-.175-2.6a1.631,1.631,0,0,0-1.735-1.516Z" transform="translate(-1725.406 -700.046)" fill="#0b0754"/>
          </g>
        </g>
        <g id="Group_26" data-name="Group 26" transform="translate(38.328 28.178)">
          <rect id="Rectangle_7" data-name="Rectangle 7" width="5.915" height="1.764" transform="matrix(0.998, -0.067, 0.067, 0.998, 0, 0.398)" fill="#0b0754"/>
        </g>
        <g id="Group_27" data-name="Group 27" transform="translate(57.108 23.083)">
          <rect id="Rectangle_8" data-name="Rectangle 8" width="12.128" height="2.209" transform="matrix(0.962, -0.272, 0.272, 0.962, 0, 3.3)" fill="#0b0754"/>
        </g>
        <path id="Path_90" data-name="Path 90" d="M1837.524,689.412c-1.57,3.816-.312,7.95,2.81,9.236s6.927-.766,8.5-4.582.313-7.951-2.81-9.236S1839.095,685.6,1837.524,689.412Z" transform="translate(-1769.526 -665.389)" fill="#fb9491"/>
        <g id="Group_28" data-name="Group 28" transform="translate(70.487 21.989)">
          <path id="Path_91" data-name="Path 91" d="M1846.674,700.734a.741.741,0,0,0,.589-1.113,3.255,3.255,0,0,1-.29-3,5.586,5.586,0,0,1,3.479-2.94.741.741,0,1,0-.389-1.429,7.089,7.089,0,0,0-4.461,3.809,4.729,4.729,0,0,0,.383,4.3A.741.741,0,0,0,1846.674,700.734Z" transform="translate(-1845.251 -692.228)" fill="#d65736"/>
        </g>
        <g id="Group_29" data-name="Group 29" transform="translate(52.267 88.127)">
          <path id="Path_92" data-name="Path 92" d="M1801.923,946.221l1.552.027-5.3-78.453-1.3.088Z" transform="translate(-1796.884 -867.796)" fill="#e85348"/>
        </g>
      </g>
      <g id="Group_36" data-name="Group 36" transform="translate(355.056 136.412)">
        <path id="Path_93" data-name="Path 93" d="M1596.717,1013.368l6.532-18.993,12.684,9.92-5.983,13.135Z" transform="translate(-1562.447 -945.722)" fill="#fd857c"/>
        <path id="Path_94" data-name="Path 94" d="M1752.473,1145.845c5.077,11.165,8.092,13.182,9.362,18.583s5.257,46.347,5.257,46.347l-8.957-1.553s-6.453-31.805-9.838-40.041-10.542-14.285-10.542-14.285Z" transform="translate(-1650.355 -1040.133)" fill="#fb9491"/>
        <path id="Path_95" data-name="Path 95" d="M1517.648,1102.437l-10.438,7.74-1.466,16.224,17.558-7.733Z" transform="translate(-1505.744 -1013.077)" fill="#fb9491"/>
        <path id="Path_96" data-name="Path 96" d="M1674.269,1264.882,1670.036,1385l-12.722.285L1645.99,1276.71Z" transform="translate(-1593.159 -1114.328)" fill="#fb9491"/>
        <path id="Path_97" data-name="Path 97" d="M1593.277,1373.027l-10.9,78.629-11.872.285-.535-80.121Z" transform="translate(-1545.774 -1180.982)" fill="#fb9491"/>
        <path id="Path_98" data-name="Path 98" d="M1564.214,1258.785l-7.761,57.031h27.575l12.384-50.688Z" transform="translate(-1537.35 -1110.528)" fill="#0b0754"/>
        <path id="Path_99" data-name="Path 99" d="M1666.323,1252.8l2.58,55.548-34.914,2.259-6.5-55.343Z" transform="translate(-1581.625 -1106.795)" fill="#0f0970"/>
        <path id="Path_100" data-name="Path 100" d="M1541.54,1086.3l13.137-4.53s-2.406,23.346-7.316,47.014c22.011,10.526,44.964,6.3,56.623,2.868a68.143,68.143,0,0,0,7.8-2.733l-6.86-40.8,7.744,10.417a75.159,75.159,0,0,0,18.574-13.588c-16.41-35.568-33.978-38.057-41.166-37.989,0,0-9.575-.468-18.189,0-18.4,1.054-36.236,18.511-36.236,18.511Z" transform="translate(-1524.385 -978.365)" fill="#607edb"/>
        <path id="Path_101" data-name="Path 101" d="M1597.221,905.67c-2.1,10.1,2.12,34.87,17.433,34.869,10.771,0,21.971-10.408,24.112-31.848S1602.986,878,1597.221,905.67Z" transform="translate(-1562.447 -879.722)" fill="#fb9491"/>
        <path id="Path_102" data-name="Path 102" d="M1649.484,1009.948a129.062,129.062,0,0,0,.754,16.133s-9.65,8.745-18.395,1.055c.453-10.554,2.262-15.795,2.262-15.795Z" transform="translate(-1584.341 -955.429)" fill="#fb9491"/>
        <path id="Path_103" data-name="Path 103" d="M1608.6,890.621c-4.218,3.8-21.189,6.88-36.091,1.959s.115-8.717,5.26-7.451c-10.743-1.266-12.149-4.921-5.963-7.171s8.781-1.531,8.781-1.531,3.494-10.049,19.256-11.144c12.389-.86,31.053,7.39,27.618,32.106-2.144,15.422-14.822,19.542-15.682,19.58,2.3-2.678,3.676-14.023,3.676-14.023Z" transform="translate(-1543.354 -865.223)" fill="#060534"/>
        <path id="Path_104" data-name="Path 104" d="M1685.48,952.043c-1.893,3.278-1.414,7.1,1.069,8.531s6.03-.062,7.922-3.34,1.415-7.1-1.068-8.532S1687.373,948.765,1685.48,952.043Z" transform="translate(-1617.051 -916.916)" fill="#fb9491"/>
        <path id="Path_105" data-name="Path 105" d="M1658.888,1583.751v6.023a1.854,1.854,0,0,1-1.854,1.854h-29.266s.545-7.092,12.292-7.441S1658.888,1583.751,1658.888,1583.751Z" transform="translate(-1581.801 -1313.078)" fill="#4a6edb"/>
        <path id="Path_106" data-name="Path 106" d="M1551.413,1583.751v6.023a1.854,1.854,0,0,1-1.854,1.854h-29.266s.545-7.092,12.292-7.441S1551.413,1583.751,1551.413,1583.751Z" transform="translate(-1514.813 -1313.078)" fill="#4a6edb"/>
        <path id="Path_107" data-name="Path 107" d="M1647.726,963.336a1.923,1.923,0,1,0,1.923-1.923A1.924,1.924,0,0,0,1647.726,963.336Z" transform="translate(-1594.241 -925.178)"/>
        <path id="Path_108" data-name="Path 108" d="M1608.949,963.336a1.924,1.924,0,1,0,1.924-1.923A1.924,1.924,0,0,0,1608.949,963.336Z" transform="translate(-1570.071 -925.178)"/>
        <g id="Group_31" data-name="Group 31" transform="translate(53.374 32.27)">
          <path id="Path_109" data-name="Path 109" d="M1653,953.687a.649.649,0,0,0,.451-1.115,6.112,6.112,0,0,0-5.541-1.54.649.649,0,0,0,.329,1.255,4.8,4.8,0,0,1,4.309,1.218A.65.65,0,0,0,1653,953.687Z" transform="translate(-1647.431 -950.888)" fill="#060534"/>
        </g>
        <g id="Group_32" data-name="Group 32" transform="translate(37.416 32.798)">
          <path id="Path_110" data-name="Path 110" d="M1605.718,954.955a.647.647,0,0,0,.51-.247c1.066-1.357,3.678-1.1,3.7-1.1a.649.649,0,0,0,.138-1.291c-.136-.015-3.35-.336-4.862,1.587a.649.649,0,0,0,.51,1.05Z" transform="translate(-1605.069 -952.29)" fill="#060534"/>
        </g>
        <g id="Group_33" data-name="Group 33" transform="translate(43.622 42.449)">
          <path id="Path_111" data-name="Path 111" d="M1625.37,984.827a6.83,6.83,0,0,0,1.245-.119.715.715,0,1,0-.26-1.406,3.519,3.519,0,0,1-3.262-.73l.948-3.774a.715.715,0,0,0-1.387-.348l-1.112,4.428.167.26A4.311,4.311,0,0,0,1625.37,984.827Z" transform="translate(-1621.542 -977.908)" fill="#d65736"/>
        </g>
        <g id="Group_34" data-name="Group 34" transform="translate(47.526 49.871)">
          <path id="Path_112" data-name="Path 112" d="M1633.755,1003.078c6.431,0,7.784-4.508,7.8-4.557a.715.715,0,0,0-1.375-.393c-.052.173-1.268,3.974-7.5,3.475a.715.715,0,1,0-.114,1.426Q1633.186,1003.078,1633.755,1003.078Z" transform="translate(-1631.905 -997.611)" fill="#d65736"/>
        </g>
        <g id="Group_35" data-name="Group 35" transform="translate(70.395 35.014)">
          <path id="Path_113" data-name="Path 113" d="M1693.623,964.46a.73.73,0,0,0,.233-.039.716.716,0,0,0,.443-.91,2.852,2.852,0,0,1,.069-2.517,4.013,4.013,0,0,1,2.6-1.4.715.715,0,1,0-.151-1.422,5.371,5.371,0,0,0-3.659,2.053,4.19,4.19,0,0,0-.214,3.751A.716.716,0,0,0,1693.623,964.46Z" transform="translate(-1692.614 -958.17)" fill="#d65736"/>
        </g>
        <path id="Path_114" data-name="Path 114" d="M1592,1042.539c-3.677,1.078-2.031,6.608-1.323,9.083s-6.82,3.278-10.237-.964.347-10.657,5.65-12.189,10.794-.5,11.875,2.97C1595.021,1041.877,1592,1042.539,1592,1042.539Z" transform="translate(-1551.485 -972.777)" fill="#fb9491"/>
        <path id="Path_115" data-name="Path 115" d="M1795.282,1315.34c1.156,1.645,2.352,8.665-2.457,9.777s-11.43-5.443-9.5-8.426,2.946-3.084,2.946-3.084Z" transform="translate(-1678.545 -1144.699)" fill="#fb9491"/>
        <path id="Path_116" data-name="Path 116" d="M1701.94,1135.944l5.692,51.306a68.154,68.154,0,0,0,7.8-2.733l-6.861-40.8Z" transform="translate(-1628.032 -1033.962)" fill="#4a6edb"/>
      </g>
      <g id="Group_42" data-name="Group 42" transform="translate(124.541)">
        <path id="Path_117" data-name="Path 117" d="M1009.858,1558.032l-.17,7.356,23.9.624.511-7.98Z" transform="translate(-966.039 -1160.635)" fill="#fff"/>
        <path id="Path_118" data-name="Path 118" d="M1009.687,1574.55v8.672a2.671,2.671,0,0,0,2.67,2.67H1054.5s-.784-10.214-17.7-10.715S1009.687,1574.55,1009.687,1574.55Z" transform="translate(-966.039 -1170.931)" fill="#3662c1"/>
        <path id="Path_119" data-name="Path 119" d="M1185.627,1558.032l-.424,7.356,22.408.624v-7.881Z" transform="translate(-1075.437 -1160.635)" fill="#fff"/>
        <path id="Path_120" data-name="Path 120" d="M1204.052,1066.18l-12.559,182.93-22.408-.1-9.741-186.764Z" transform="translate(-1059.319 -851.614)" fill="#4a6edb"/>
        <path id="Path_121" data-name="Path 121" d="M1031.15,1063.96l-21.01,186.12h24.239l49.92-186.12Z" transform="translate(-966.321 -852.683)" fill="#607edb"/>
        <path id="Path_122" data-name="Path 122" d="M934.767,851.9l-40.948,56.28,9.9,13.9,45-53.3Z" transform="translate(-893.819 -720.507)" fill="#fb9491"/>
        <path id="Path_123" data-name="Path 123" d="M985.8,777.166c6.845,11.058,21.6,23.359,21.6,23.359s5.544-7.352,13.7-17.618c-6.055,31.066-9.653,73.908-9.653,73.908a82.3,82.3,0,0,0,11.261,5.048c15.233,5.695,44.172,12.674,75.854.481-1.138-14.215-2.248-69.986-2.248-69.986l27.147,11.806,11.248-29.477-23.793-19.023s-10.827-14.03-38.945-18.834S1023.146,736.24,985.8,777.166Z" transform="translate(-951.148 -647.801)" fill="#6a86ce"/>
        <path id="Path_124" data-name="Path 124" d="M1139.784,598.813c-4.718.665-12.118-.061-14.935-7.4-3.059-7.971.6-13.286.663-20.794s.252-12.63,0-16.4,15.5-.674,15.5-.674Z" transform="translate(-1037.06 -533.795)" fill="#060534"/>
        <path id="Path_125" data-name="Path 125" d="M1193.282,573.514c-.828,13.384-6.067,27.636-17.75,32.844-14.014,6.247-24.715-7.68-26.961-24.306s2.022-30.782,16.4-34.6S1194.63,551.72,1193.282,573.514Z" transform="translate(-1052.252 -530.178)" fill="#fb9491"/>
        <path id="Path_126" data-name="Path 126" d="M1175.24,681.924l2,15.538s-11.727,12.538-24.811-1.932c1.262-6.607,2.261-27.755,2.261-27.755Z" transform="translate(-1055.01 -605.743)" fill="#fb9491"/>
        <path id="Path_127" data-name="Path 127" d="M1154.587,503.527c16.424,2.823,17.833,13.311,23.9,16.681s7.906-7.877,14.693-3.833c14.652,9.212,6.793,28.269-3.767,32.314s-9.152-4.628-15.5-9.661c-6.817-5.4-9.281-6.942-17.038-.079-3.491,3.088-8.412.107-11.414-6.794a56.851,56.851,0,0,1-2.554,11.366l-7.982-8.139,1.963-6.262c-3.02,1.2-7.96-.61-8.284-4.071C1126.951,509.594,1140.207,501.055,1154.587,503.527Z" transform="translate(-1040.07 -503.105)" fill="#060534"/>
        <path id="Path_128" data-name="Path 128" d="M1135.312,602.959c1.566,3.959,5.4,6.156,8.553,4.908s4.448-5.471,2.882-9.43-5.395-6.157-8.553-4.908S1133.746,599,1135.312,602.959Z" transform="translate(-1043.925 -559.247)" fill="#fb9491"/>
        <path id="Path_129" data-name="Path 129" d="M1237.752,632.043a2.415,2.415,0,1,0,2.415-2.415A2.416,2.416,0,0,0,1237.752,632.043Z" transform="translate(-1108.19 -581.966)"/>
        <path id="Path_130" data-name="Path 130" d="M1192.533,628.268a2.415,2.415,0,1,0,2.416-2.415A2.415,2.415,0,0,0,1192.533,628.268Z" transform="translate(-1080.006 -579.613)"/>
        <g id="Group_37" data-name="Group 37" transform="translate(130.436 42.347)">
          <path id="Path_131" data-name="Path 131" d="M1247.191,621.21a1,1,0,0,0,.84-1.554,8.338,8.338,0,0,0-7-4.134,1,1,0,0,0,.1,2.007,6.378,6.378,0,0,1,5.224,3.226A1,1,0,0,0,1247.191,621.21Z" transform="translate(-1240.074 -615.519)" fill="#060534"/>
        </g>
        <g id="Group_38" data-name="Group 38" transform="translate(109.353 40.44)">
          <path id="Path_132" data-name="Path 132" d="M1185.112,615.291a1,1,0,0,0,.826-.431c2.488-3.574,6.729-2.109,6.909-2.045a1,1,0,0,0,.686-1.888c-2.014-.737-6.538-1.1-9.244,2.785a1,1,0,0,0,.823,1.579Z" transform="translate(-1184.108 -610.457)" fill="#060534"/>
        </g>
        <g id="Group_39" data-name="Group 39" transform="translate(120.915 51.159)">
          <path id="Path_133" data-name="Path 133" d="M1218.21,649.12a3.7,3.7,0,0,0,1.942-.425,1.549,1.549,0,0,0,.717-1.045,65.768,65.768,0,0,0,.01-8.1.672.672,0,1,0-1.343.065,62.858,62.858,0,0,1,.01,7.791.21.21,0,0,1-.118.153c-.637.407-2.6.158-3.789-.148a.672.672,0,0,0-.337,1.3A12.77,12.77,0,0,0,1218.21,649.12Z" transform="translate(-1214.798 -638.913)" fill="#d65736"/>
        </g>
        <g id="Group_40" data-name="Group 40" transform="translate(112.968 62.031)">
          <path id="Path_134" data-name="Path 134" d="M1203.09,674.011a13.183,13.183,0,0,0,2.845-.287,1,1,0,0,0-.487-1.949c-.275.067-6.667,1.57-9.891-3.534a1,1,0,1,0-1.7,1.073A10.455,10.455,0,0,0,1203.09,674.011Z" transform="translate(-1193.704 -667.773)" fill="#d65736"/>
        </g>
        <g id="Group_41" data-name="Group 41" transform="translate(95.707 36.799)">
          <path id="Path_135" data-name="Path 135" d="M1149.853,610.233a.671.671,0,0,0,.282-.062,3.61,3.61,0,0,0,2.221-3.318,7.505,7.505,0,0,0-3.493-5.987.672.672,0,0,0-.617,1.194,6.163,6.163,0,0,1,2.766,4.763,2.243,2.243,0,0,1-1.441,2.127.672.672,0,0,0,.283,1.283Z" transform="translate(-1147.882 -600.791)" fill="#d65736"/>
        </g>
        <path id="Path_136" data-name="Path 136" d="M1185.2,1571.977v8.672a2.671,2.671,0,0,0,2.671,2.67h42.146s-.784-10.213-17.7-10.715S1185.2,1571.977,1185.2,1571.977Z" transform="translate(-1075.437 -1169.327)" fill="#3662c1"/>
        <path id="Path_137" data-name="Path 137" d="M1053.886,921.93a82.3,82.3,0,0,0,11.261,5.048c.01-17.54,5.707-87.255,5.707-87.255l-7.315,8.3C1057.484,879.088,1053.886,921.93,1053.886,921.93Z" transform="translate(-993.588 -712.916)" fill="#3662c1"/>
      </g>
      <g id="Group_53" data-name="Group 53" transform="translate(265.882 17.517)">
        <path id="Path_138" data-name="Path 138" d="M1337.217,1572.348c1.915,2.873,1.913,7.659,1.53,9.574a166.628,166.628,0,0,1-31.76.626c0-6.988,8.527-6.909,18.92-9.294C1335.214,1572.293,1337.217,1572.348,1337.217,1572.348Z" transform="translate(-1292.685 -1187.075)" fill="#db6258"/>
        <path id="Path_139" data-name="Path 139" d="M1354.935,1572.349c-1.183,2.178-16.656,5.529-19.369,4.024-1.237-.686,5.342-2.479,8.307-3.053A103.511,103.511,0,0,1,1354.935,1572.349Z" transform="translate(-1310.403 -1187.076)" fill="#fb9491"/>
        <path id="Path_140" data-name="Path 140" d="M1338.027,577.278c-1.842,4.739-7.629,8.428-13.247,6.073-3.878,3.263-12.159,5.442-15.368-5.812s5.838-27.975,30-27.931c10.761.018,16.824,5.975,20.3,13.115,5.671-5.021,27.2-9.735,37.787,9.763s-3.113,31.063-3.113,31.063,15.951-2.374,17.294,17.713-18.34,19.765-18.34,19.765,14.064,6.16,7.923,20.5-32.5,4.629-32.5,4.629-57.59-8.44-67.651-32.343,8.112-34.674,21.588-36.939c-7.327-2.766-4.765-14.18,8.526-15.041C1337.693,581.408,1338.027,577.278,1338.027,577.278Z" transform="translate(-1287.212 -549.607)" fill="#0b0754"/>
        <path id="Path_141" data-name="Path 141" d="M1441.355,1369.373c-1.431,18.467-3.171,62.4-3.95,76.873-6.309,5.482-11.214.729-11.214.729s-4.216-47.9-5.353-76.667A74.175,74.175,0,0,1,1441.355,1369.373Z" transform="translate(-1363.648 -1060.361)" fill="#fb9491"/>
        <path id="Path_142" data-name="Path 142" d="M1349.472,1367.468l3.164,78.151s7.806,1.8,11.062-.971c3.816-26.429,6.766-75.325,6.766-75.325Z" transform="translate(-1319.166 -1059.375)" fill="#fb9491"/>
        <path id="Path_143" data-name="Path 143" d="M1415.455,1572c2.128,2.719,2.287,7.317,2.051,9.255a166.507,166.507,0,0,1-31.62,3.042c-.532-6.968,7.976-7.538,18.158-10.708C1413.251,1571.922,1415.455,1572,1415.455,1572Z" transform="translate(-1341.848 -1186.857)" fill="#db6258"/>
        <path id="Path_144" data-name="Path 144" d="M1433.6,1572c-1.014,2.262-15.618,6.2-18.437,4.907-1.286-.59,4.248-2.315,7.026-3.317C1425.571,1572.369,1433.6,1572,1433.6,1572Z" transform="translate(-1359.99 -1186.858)" fill="#fb9491"/>
        <path id="Path_145" data-name="Path 145" d="M1313.868,784.436c-8.04.429-17.461,6.128-24.28,15.371s-18.169,21.494-20.321,29.75,9.846,23.535,37.275,28.028,47.327,3.839,47.327,3.839L1340.408,783.9Z" transform="translate(-1269.023 -695.637)" fill="#fd7166"/>
        <path id="Path_146" data-name="Path 146" d="M1373.519,621.7c-1.621,11.062-4.82,28.911,12.531,40.961,5.479,2.978,15.83-1.554,21.728-13.388s8.091-29.053,2.074-34.811S1376.483,601.484,1373.519,621.7Z" transform="translate(-1333.324 -586.217)" fill="#fb9491"/>
        <path id="Path_147" data-name="Path 147" d="M1409.023,736.762s-1.937,15.794,5.586,17.755c-2.371,6.67-10.278,9.487-15.746,9.324s-10.795-8.783-10.795-8.783,5.93.524,7.067-4.872a36.532,36.532,0,0,0,.723-10.257Z" transform="translate(-1343.224 -666.26)" fill="#fb9491"/>
        <path id="Path_148" data-name="Path 148" d="M1324.974,1129a46.981,46.981,0,0,0,10.347,2.891c15.929,2.827,38.688,1.694,45.377-2.891,14.779-51.263,7.31-134.695,2.4-143.609-4.292-7.788-58.091-25.1-58.137-24.294q-.023.432-.07.857c-.5,4.611-2.956,8.745-5.65,18.356C1312.237,1005.291,1316.7,1087.98,1324.974,1129Z" transform="translate(-1298.161 -806.072)" fill="#fd7166"/>
        <path id="Path_149" data-name="Path 149" d="M1324.974,1135.959a46.975,46.975,0,0,0,10.347,2.891c-2.078-14.524-9.926-71.087-10.841-102.468-1.052-36.21,6.359-62.33,6.359-62.33l-6.623-1.819c-1.293,3.884-2.282,5.425-4.976,15.037C1312.237,1012.246,1316.7,1094.935,1324.974,1135.959Z" transform="translate(-1298.161 -813.027)" fill="#db6258"/>
        <path id="Path_150" data-name="Path 150" d="M1422.447,617.021s-33.849,13.177-46.6-17.1C1387.965,597.089,1409.351,596.469,1422.447,617.021Z" transform="translate(-1335.603 -580.067)" fill="#0b0754"/>
        <g id="Group_48" data-name="Group 48" transform="translate(2.521 95.834)">
          <path id="Path_151" data-name="Path 151" d="M1279.456,830.864a125.031,125.031,0,0,0,12.138,16.537c7.115,8.2,15.728,15.94,24.949,20.7a49.689,49.689,0,0,0,5.323,2.368,36.738,36.738,0,0,0,11.024,2.4c21.7,1.123,30.717-10.376,14.674-31.765a235.146,235.146,0,0,0-25.964-24.3l-.009-.005c-7.137-5.564-14.643-10.314-20.971-11.879C1282.173,800.348,1268.9,813.572,1279.456,830.864Z" transform="translate(-1275.716 -804.007)" fill="#fff"/>
          <path id="Path_152" data-name="Path 152" d="M1384.1,889.263a40.478,40.478,0,0,0,16.347,4.769c21.7,1.123,30.717-10.376,14.674-31.765a235.161,235.161,0,0,0-25.964-24.3l-.009-.005S1390.941,855.269,1384.1,889.263Z" transform="translate(-1343.269 -825.171)" fill="#ebebeb"/>
          <path id="Path_153" data-name="Path 153" d="M1317.866,906.452c7.115,8.2,15.728,15.94,24.949,20.7a49.666,49.666,0,0,0,5.323,2.368l-.974-30.772S1337.584,906.824,1317.866,906.452Z" transform="translate(-1301.988 -863.058)" fill="#dbdbdb"/>
          <g id="Group_47" data-name="Group 47" transform="translate(9.313 8.457)">
            <path id="Path_154" data-name="Path 154" d="M1302.772,831.347c-4.243,5.719-2.539,14.171,3.806,18.877s14.927,3.885,19.17-1.833,2.538-14.171-3.807-18.878S1307.014,825.627,1302.772,831.347Z" transform="translate(-1300.439 -826.457)" fill="#fb9491"/>
            <g id="Group_43" data-name="Group 43" transform="translate(6.916 14.957)">
              <path id="Path_155" data-name="Path 155" d="M1320.1,870.548a3.357,3.357,0,0,0,2.659-1,3.535,3.535,0,0,0,.6-2.916.611.611,0,0,0-1.188.287,2.324,2.324,0,0,1-.34,1.83,2.689,2.689,0,0,1-2.361.547.611.611,0,1,0-.127,1.215A7.169,7.169,0,0,0,1320.1,870.548Z" transform="translate(-1318.799 -866.162)"/>
            </g>
            <g id="Group_44" data-name="Group 44" transform="translate(13.874 6.207)">
              <path id="Path_156" data-name="Path 156" d="M1338.57,847.321a3.356,3.356,0,0,0,2.66-1,3.532,3.532,0,0,0,.6-2.916.611.611,0,0,0-1.188.286,2.325,2.325,0,0,1-.341,1.83,2.686,2.686,0,0,1-2.362.547.611.611,0,0,0-.127,1.215A7.148,7.148,0,0,0,1338.57,847.321Z" transform="translate(-1337.269 -842.935)"/>
            </g>
            <path id="Path_157" data-name="Path 157" d="M1308.192,831.914c1.359.326-.96,5.342,1.488,3.5a2.73,2.73,0,0,1-4.96.17C1303.661,833.3,1307.237,831.686,1308.192,831.914Z" transform="translate(-1302.987 -829.845)" fill="#060534"/>
            <path id="Path_158" data-name="Path 158" d="M1341.782,863.4c-.878-.515-2.376,2.3-1.066,2.173S1342.708,863.944,1341.782,863.4Z" transform="translate(-1325.222 -849.444)" fill="#d15432"/>
            <path id="Path_159" data-name="Path 159" d="M1343.1,870.345a3.726,3.726,0,1,0,3.47-3.966A3.726,3.726,0,0,0,1343.1,870.345Z" transform="translate(-1327.027 -851.335)" fill="#0f0970"/>
            <path id="Path_160" data-name="Path 160" d="M1349.03,873.893a1.492,1.492,0,1,0,1.389-1.588A1.492,1.492,0,0,0,1349.03,873.893Z" transform="translate(-1330.724 -855.031)" fill="#607edb"/>
            <g id="Group_45" data-name="Group 45" transform="translate(4.542 14.274)">
              <path id="Path_161" data-name="Path 161" d="M1312.958,867.808a.461.461,0,0,0,.4-.226l1.5-2.539a.461.461,0,0,0-.795-.469l-1.5,2.539a.461.461,0,0,0,.4.7Z" transform="translate(-1312.497 -864.347)" fill="#060534"/>
            </g>
            <g id="Group_46" data-name="Group 46" transform="translate(11.788 3.574)">
              <path id="Path_162" data-name="Path 162" d="M1332.193,838.79a.458.458,0,0,0,.249-.073l2.989-1.923a.461.461,0,1,0-.5-.776l-2.989,1.923a.461.461,0,0,0,.25.849Z" transform="translate(-1331.731 -835.944)" fill="#060534"/>
            </g>
          </g>
        </g>
        <path id="Path_163" data-name="Path 163" d="M1338.892,947.526q.236.282.48.563c12.9,15.012,36.2,27.181,58.136,24.293-3.349-11.214-7.707-19.6-7.91-17.325-11.845-.794-46.444-14.859-46.444-14.859a39.986,39.986,0,0,0-3.733,5.738A5.3,5.3,0,0,0,1338.892,947.526Z" transform="translate(-1312.572 -793.06)" fill="#db6258"/>
        <path id="Path_164" data-name="Path 164" d="M1328.259,917.463c-1.351-1.314-.585-3.42-1.782-4.761a5.706,5.706,0,0,0-6.033-1.1c-1.867.958,3.062,1.484,3.327,2.442s-3.135.623-4.14-.287a22.794,22.794,0,0,1-3.16-4.31c-.383-.766-3.5-4.276-3.974-2.95s-1.006,10.515,4.979,13.914,6.516,3.073,6.516,3.073Z" transform="translate(-1295.952 -771.869)" fill="#fb9491"/>
        <path id="Path_165" data-name="Path 165" d="M1466.9,672.86c-3.267,2.193-4.52,6.047-2.8,8.608s5.761,2.86,9.028.666,4.52-6.047,2.8-8.608S1470.165,670.667,1466.9,672.86Z" transform="translate(-1390.131 -625.515)" fill="#fb9491"/>
        <path id="Path_166" data-name="Path 166" d="M1386.478,783.9c5.1.011,15.768,1.557,21.406,6.915s21.624,54.817-.426,80.566c-23.876,6.171-50.561-6.385-64.523-23.052.21-2.127,4.417-7.253,4.417-7.253s34.6,14.064,46.445,14.857c.5-5.665-4.592-31.2-4.592-31.2Z" transform="translate(-1315.092 -695.637)" fill="#fd7166"/>
        <path id="Path_167" data-name="Path 167" d="M1399.259,947.237c4.705-.627,6.042-1.867,8.357-3.087s5,3.409.66,6.3C1405.137,949.357,1399.259,947.237,1399.259,947.237Z" transform="translate(-1350.198 -795.399)" fill="#fb9491"/>
        <path id="Path_168" data-name="Path 168" d="M1384.142,678.778a2,2,0,1,0,1.858-2.124A2,2,0,0,0,1384.142,678.778Z" transform="translate(-1340.773 -628.791)"/>
        <path id="Path_169" data-name="Path 169" d="M1426.8,681.272a2.27,2.27,0,1,0,2.114-2.417A2.27,2.27,0,0,0,1426.8,681.272Z" transform="translate(-1367.359 -630.164)"/>
        <path id="Path_170" data-name="Path 170" d="M1402.347,719.746a.845.845,0,0,0-.666,1.2c.88,1.877,3.4,3.057,6.207,2.744s5.023-2.034,5.455-4.069a.842.842,0,0,0-.922-1,20.768,20.768,0,0,1-10.073,1.124Z" transform="translate(-1351.656 -654.95)" fill="#fff"/>
        <g id="Group_49" data-name="Group 49" transform="translate(77.312 48.943)">
          <path id="Path_171" data-name="Path 171" d="M1475.023,684.585a.768.768,0,0,0,.76-.66,3.444,3.444,0,0,1,1.7-2.446,2.386,2.386,0,0,1,2.005-.3.769.769,0,1,0,.565-1.43,3.86,3.86,0,0,0-3.343.4,4.99,4.99,0,0,0-2.45,3.557.768.768,0,0,0,.652.87A.722.722,0,0,0,1475.023,684.585Z" transform="translate(-1474.253 -679.531)" fill="#d65736"/>
        </g>
        <g id="Group_50" data-name="Group 50" transform="translate(48.071 52.55)">
          <path id="Path_172" data-name="Path 172" d="M1401.594,697.378c.417,0,.72-.023.822-.031A.678.678,0,1,0,1402.3,696c-.838.071-3.389.039-4.109-1-.313-.451-.257-1.129.164-2.012l.022-.052,1.1-2.906a.677.677,0,1,0-1.268-.479l-1.089,2.88a3.22,3.22,0,0,0-.041,3.343C1398.05,697.172,1400.339,697.378,1401.594,697.378Z" transform="translate(-1396.631 -689.105)" fill="#d65736"/>
        </g>
        <g id="Group_51" data-name="Group 51" transform="translate(60.37 44.578)">
          <path id="Path_173" data-name="Path 173" d="M1435.719,671.993a.769.769,0,0,0,.67-1.145,5.831,5.831,0,0,0-6.536-2.73.769.769,0,0,0,.389,1.488,4.339,4.339,0,0,1,4.805,1.993A.766.766,0,0,0,1435.719,671.993Z" transform="translate(-1429.28 -667.944)" fill="#0b0754"/>
        </g>
        <g id="Group_52" data-name="Group 52" transform="translate(41.631 43.64)">
          <path id="Path_174" data-name="Path 174" d="M1380.3,669.012a.768.768,0,0,0,.693-.435,2.616,2.616,0,0,1,3.207-1.472.769.769,0,0,0,.474-1.463,4.146,4.146,0,0,0-5.066,2.268.768.768,0,0,0,.692,1.1Z" transform="translate(-1379.536 -665.453)" fill="#0b0754"/>
        </g>
        <path id="Path_175" data-name="Path 175" d="M1460.777,882.678s-1.032-9.19-1.942-13.394c-1.592,4.889-2.534,8.444-2.534,8.444Z" transform="translate(-1385.752 -748.86)" fill="#db6258"/>
      </g>
      <g id="Group_58" data-name="Group 58" transform="translate(68.923 150.75)">
        <path id="Path_176" data-name="Path 176" d="M929.339,1026.055c0,3.575,2.44,6.474,5.451,6.474s5.451-2.9,5.451-6.474-2.441-6.474-5.451-6.474S929.339,1022.48,929.339,1026.055Z" transform="translate(-860.341 -975.771)" fill="#0b0754"/>
        <path id="Path_177" data-name="Path 177" d="M807.906,1019.738c1.3,3.33,4.627,5.143,7.432,4.048s4.024-4.683,2.724-8.013-4.628-5.143-7.432-4.048S806.606,1016.407,807.906,1019.738Z" transform="translate(-784.328 -970.676)" fill="#0b0754"/>
        <path id="Path_178" data-name="Path 178" d="M807.778,989.545c.157,3.572,2.722,6.36,5.73,6.228s5.319-3.135,5.162-6.707-2.723-6.361-5.73-6.228S807.621,985.972,807.778,989.545Z" transform="translate(-784.568 -952.867)" fill="#0b0754"/>
        <path id="Path_179" data-name="Path 179" d="M959.824,1050.606l9.213,10.894s8.163-15.764,6.944-24.467c-4.136-6.463-6.168-12.94-4.219-13.954s1.794,4.037,3.413,3.566.033-7.028,1.065-9.766c2.2-5.827,8.478-3.084,9.314,1.928s.146,12.309-2.851,17.321c.066,6.4,2.249,35.416-11.117,46.275-10.023-6.682-20.953-21.328-20.953-21.328Z" transform="translate(-873.613 -972.042)" fill="#fb9491"/>
        <path id="Path_180" data-name="Path 180" d="M765.564,1103.747s-14.38,18.6-16.328,26.032c-2.269,8.661-.379,45.725-.379,45.725s-4.968,4.27-1.377,15.426c1.951,6.06,5.882,2.672,6.5.656,1.117-3.644-2.692-8.934-1.082-10.379,2.5-2.241,3.164,5.293,4.993,3.165,1.513-1.761-2.787-9.346-2.787-9.346s3.516-32.71,6.058-39.7c2.047-5.633,14.985-19.418,14.985-19.418Z" transform="translate(-746.177 -1028.231)" fill="#fb9491"/>
        <ellipse id="Ellipse_1" data-name="Ellipse 1" cx="5.451" cy="6.474" rx="5.451" ry="6.474" transform="translate(68.998 32.375)" fill="#0b0754"/>
        <path id="Path_181" data-name="Path 181" d="M828.888,1261.843V1386l11.722-.583,7.119-120.736Z" transform="translate(-797.73 -1126.772)" fill="#fb9491"/>
        <path id="Path_182" data-name="Path 182" d="M876.06,1262.248l10.4,122.672,10.217-1.677,3.372-121.4Z" transform="translate(-827.132 -1126.772)" fill="#fb9491"/>
        <path id="Path_183" data-name="Path 183" d="M901.657,1582.761c-.934,1.512-1.094,4.225-.994,6.213a2.148,2.148,0,0,0,2.147,2.037H925.85c-.178-5.176-5.6-5.759-13.108-7.711C905.824,1582.826,901.657,1582.761,901.657,1582.761Z" transform="translate(-842.451 -1326.798)" fill="#0b0754"/>
        <path id="Path_184" data-name="Path 184" d="M903.345,1582.761c.932,1.583,10.678,3.78,12.866,3.073s-.4-1.816-1.781-2.533C913.348,1582.737,903.345,1582.761,903.345,1582.761Z" transform="translate(-844.139 -1326.798)" fill="#fb9491"/>
        <path id="Path_185" data-name="Path 185" d="M827.4,1580.41c-.975,1.577-1.116,4.861-.994,7.116a2.145,2.145,0,0,0,2.146,2.02h22.936c-.18-5.23-5.3-6.619-12.889-8.591C831.61,1580.476,827.4,1580.41,827.4,1580.41Z" transform="translate(-796.16 -1325.333)" fill="#0b0754"/>
        <path id="Path_186" data-name="Path 186" d="M829.106,1580.41c.941,1.6,10.789,3.819,13,3.1s-.406-1.835-1.8-2.56C839.212,1580.386,829.106,1580.41,829.106,1580.41Z" transform="translate(-797.866 -1325.333)" fill="#fb9491"/>
        <path id="Path_187" data-name="Path 187" d="M820.634,1057.386c8.28,1.56,18.184,2.436,33.968,26.682-2.648,5.486-11.856,14-11.856,14l-10.318-10L831.1,1116.6H792.826l-1.514-29.671-6.588,10.125s-10.811-2.18-14.216-10.125c7.239-10.32,16.933-27.49,35.181-29.547C811.554,1057.108,820.634,1057.386,820.634,1057.386Z" transform="translate(-761.343 -999.258)" fill="#fd857c"/>
        <path id="Path_188" data-name="Path 188" d="M814.466,929.622a26.189,26.189,0,0,0,.35,4.276c2.052,12.513,14.123,24.991,27.3,24.991,11.746,0,20.568-10.521,24.045-21.032a26.054,26.054,0,0,0,1.324-8.234,26.508,26.508,0,0,0-53.015,0Z" transform="translate(-788.741 -903.284)" fill="#fb9491"/>
        <path id="Path_189" data-name="Path 189" d="M814.051,929.622c.209,2.361.1,7.925,2.236,10.1,10.25-2.518,21.083-10.367,25.151-19.152,5.117,10.331,24.01,18.632,24.01,18.632a27.381,27.381,0,0,0,1.618-9.58,26.425,26.425,0,0,0-26.508-26.338C825.919,903.284,812.769,915.134,814.051,929.622Z" transform="translate(-788.428 -903.284)" fill="#0b0754"/>
        <path id="Path_190" data-name="Path 190" d="M878.427,1036.766v10.181a11.853,11.853,0,0,1-14.944,0,41.517,41.517,0,0,1,0-9.2Z" transform="translate(-819.136 -986.483)" fill="#fb9491"/>
        <path id="Path_191" data-name="Path 191" d="M767.313,1276.842a66.363,66.363,0,0,0,17.764,6.035c25.107,5.013,55.126-.7,69.7-6.035-6.157-15.069-25.564-67.977-25.564-67.977s-23.372.379-34.872.46c-1.4.011-2.613.016-3.6.016C786.009,1226.312,774.335,1255.206,767.313,1276.842Z" transform="translate(-759.351 -1093.751)" fill="#0b0754"/>
        <path id="Path_192" data-name="Path 192" d="M931.635,1057.438c0,3.008,2.053,5.445,4.586,5.445s4.586-2.437,4.586-5.445-2.053-5.445-4.586-5.445S931.635,1054.431,931.635,1057.438Z" transform="translate(-861.772 -995.974)" fill="#0b0754"/>
        <path id="Path_193" data-name="Path 193" d="M931.722,1083.507c0,2.78,1.9,5.033,4.238,5.033s4.238-2.253,4.238-5.033-1.9-5.033-4.238-5.033S931.722,1080.728,931.722,1083.507Z" transform="translate(-861.826 -1012.479)" fill="#0b0754"/>
        <path id="Path_194" data-name="Path 194" d="M814.01,1048.784c.132,3,2.29,5.35,4.82,5.239s4.474-2.637,4.342-5.642-2.291-5.35-4.821-5.238S813.877,1045.78,814.01,1048.784Z" transform="translate(-788.453 -990.455)" fill="#0b0754"/>
        <path id="Path_195" data-name="Path 195" d="M816.083,1075.616c.122,2.777,2.117,4.945,4.455,4.842s4.135-2.438,4.013-5.215-2.117-4.945-4.455-4.842S815.961,1072.838,816.083,1075.616Z" transform="translate(-789.745 -1007.445)" fill="#0b0754"/>
        <path id="Path_196" data-name="Path 196" d="M932.534,1110.862c0,3.13,3.932,7.73,3.932,7.73s3.932-4.6,3.932-7.73-1.761-5.667-3.932-5.667S932.534,1107.733,932.534,1110.862Z" transform="translate(-862.332 -1029.134)" fill="#0b0754"/>
        <path id="Path_197" data-name="Path 197" d="M818.181,1100.916c0,3.13,3.932,7.73,3.932,7.73s3.932-4.6,3.932-7.73-1.761-5.667-3.932-5.667S818.181,1097.786,818.181,1100.916Z" transform="translate(-791.057 -1022.935)" fill="#0b0754"/>
        <path id="Path_198" data-name="Path 198" d="M913.026,995.988a2.175,2.175,0,1,0,2.175-2.175A2.175,2.175,0,0,0,913.026,995.988Z" transform="translate(-850.173 -959.71)"/>
        <path id="Path_199" data-name="Path 199" d="M861.05,995.5a2.175,2.175,0,1,0,2.175-2.175A2.174,2.174,0,0,0,861.05,995.5Z" transform="translate(-817.777 -959.409)"/>
        <g id="Group_54" data-name="Group 54" transform="translate(53.975 40.434)">
          <path id="Path_200" data-name="Path 200" d="M890.141,1015.707h.01c1.815-.025,2.986-.5,3.483-1.413.468-.86.271-1.988-.586-3.353a.682.682,0,1,0-1.155.725c.559.891.752,1.593.543,1.977-.233.428-1.073.684-2.3.7a.682.682,0,0,0,.009,1.364Z" transform="translate(-889.459 -1010.621)" fill="#ce502e"/>
        </g>
        <path id="Path_201" data-name="Path 201" d="M870.854,1030.148a.876.876,0,0,0-.885,1.117c.58,2.068,2.954,3.7,5.877,3.858s5.477-1.226,6.263-3.232a.872.872,0,0,0-.771-1.181,21.509,21.509,0,0,1-10.484-.561Z" transform="translate(-823.315 -982.357)" fill="#fff"/>
        <g id="Group_55" data-name="Group 55" transform="translate(40.789 30.08)">
          <path id="Path_202" data-name="Path 202" d="M855.236,986.311a.777.777,0,0,0,.536-.213,5.355,5.355,0,0,1,4.372-1.355.779.779,0,0,0,.29-1.531,6.942,6.942,0,0,0-5.735,1.754.779.779,0,0,0,.536,1.345Z" transform="translate(-854.456 -983.134)" fill="#0b0754"/>
        </g>
        <g id="Group_56" data-name="Group 56" transform="translate(62.47 30.794)">
          <path id="Path_203" data-name="Path 203" d="M918.151,988.394a.779.779,0,0,0,.543-1.339,6.844,6.844,0,0,0-6.089-1.907.779.779,0,0,0,.364,1.515,5.283,5.283,0,0,1,4.64,1.511A.777.777,0,0,0,918.151,988.394Z" transform="translate(-912.009 -985.03)" fill="#0b0754"/>
        </g>
        <path id="Path_204" data-name="Path 204" d="M814.226,995.208c1.717,2.511,4.313,3.724,5.8,2.71s1.294-3.873-.423-6.385-4.313-3.724-5.8-2.709S812.508,992.7,814.226,995.208Z" transform="translate(-787.704 -956.377)" fill="#fb9491"/>
        <g id="Group_57" data-name="Group 57" transform="translate(27.559 34.427)">
          <path id="Path_205" data-name="Path 205" d="M821.913,1000.2a.511.511,0,0,0,.477-.328,4.049,4.049,0,0,0-.314-3.422,3.414,3.414,0,0,0-2.134-1.771.511.511,0,0,0-.192,1,2.433,2.433,0,0,1,1.432,1.263,3.037,3.037,0,0,1,.254,2.558.512.512,0,0,0,.293.661A.527.527,0,0,0,821.913,1000.2Z" transform="translate(-819.335 -994.674)" fill="#ce502e"/>
        </g>
        <path id="Path_206" data-name="Path 206" d="M825.735,1131.029l3.15-3.021,1.869,30.918-3.6.016Z" transform="translate(-795.765 -1043.353)" fill="#f589a3"/>
        <path id="Path_207" data-name="Path 207" d="M821.455,1094.88c0,.679,1.089,1.23,2.432,1.23s2.432-.551,2.432-1.23-1.089-1.23-2.432-1.23S821.455,1094.2,821.455,1094.88Z" transform="translate(-793.097 -1021.938)" fill="#fd7166"/>
        <path id="Path_208" data-name="Path 208" d="M936.867,1103.162c0,.679,1.089,1.23,2.432,1.23s2.432-.55,2.432-1.23-1.089-1.229-2.432-1.229S936.867,1102.483,936.867,1103.162Z" transform="translate(-865.033 -1027.101)" fill="#fd7166"/>
        <path id="Path_209" data-name="Path 209" d="M767.313,1277.6a66.359,66.359,0,0,0,17.764,6.035l9.263-73.553c-1.4.011-2.613.016-3.6.016C786.009,1227.072,774.335,1255.967,767.313,1277.6Z" transform="translate(-759.351 -1094.511)" fill="#090647"/>
      </g>
      <g id="Group_60" data-name="Group 60" transform="translate(419.131 294.635)">
        <path id="Path_210" data-name="Path 210" d="M1927.651,1518.273l2.652,7.917s24.318-7.322,26.344-27.587a33.745,33.745,0,0,0,.044-6.487c-1.408-15.121-13.305-19.114-8.824-5.67a22.1,22.1,0,0,1,.99,4.512C1950.422,1504.906,1938.878,1519.115,1927.651,1518.273Z" transform="translate(-1832.791 -1405.553)" fill="#fd7166"/>
        <path id="Path_211" data-name="Path 211" d="M1680.654,1333.26c.707,5.17,7.056,10.844,15.031,14.093h0a37.763,37.763,0,0,0,3.73,1.3,31.162,31.162,0,0,0,12.82,1.156q1.594-.218,3.118-.548c12.251-2.647,20.943-10.463,19.862-18.345-.629-4.6-4.455-8.279-10.017-10.4a29.134,29.134,0,0,0-4.276-1.247A38.006,38.006,0,0,0,1708,1318.9c-3,.411-6.035.917-8.939,1.546a.123.123,0,0,0-.045.008C1688.517,1322.727,1679.74,1326.581,1680.654,1333.26Z" transform="translate(-1678.798 -1305.985)" fill="#fff"/>
        <path id="Path_212" data-name="Path 212" d="M1719.272,1463.637h14.014s7.092-24.26,9.456-37.433c2.364,7.769,2.364,29.56,2.364,29.56s-6.009.925-7.3,6.461a1.09,1.09,0,0,0,1.1,1.412h15.321s2.026-31.035-.338-38.446c5.469,6.23,6.546,24.12,6.734,33.129a5.436,5.436,0,0,0,5.437,5.317h33.832s3.642-18.659-3.162-35.962a43.507,43.507,0,0,0-17.472-21.4,147.619,147.619,0,0,1-17.356-12.55v0c-11.827-10.139-12.742-15.817-12.742-15.817l-18.745,7.107c1.182,4.377,2.871,42.982-2.87,70.749-5.975.33-8.236,1.016-10.121,4.971A2.037,2.037,0,0,0,1719.272,1463.637Z" transform="translate(-1701.634 -1343)" fill="#fff"/>
        <path id="Path_213" data-name="Path 213" d="M1804.537,1312.51c7.149-3.471,15.255-13.689,21.335-4.528s6.755,25.152,0,21.21-10.808-12.159-10.808-12.159l-3.621,3.216Z" transform="translate(-1756.055 -1297.098)" fill="#fd7166"/>
        <path id="Path_214" data-name="Path 214" d="M1755.466,1299.21c-.337-6.755-3.037-16.888-11.313-13.173s-4.486,6.049,0,8.111,5.91,3.71,5.91,3.71Z" transform="translate(-1715.372 -1285.242)" fill="#fd7166"/>
        <path id="Path_215" data-name="Path 215" d="M1682.842,1335.615c5.028.759,2.775,8.824-2.245,9.511S1672.192,1334.005,1682.842,1335.615Z" transform="translate(-1675.836 -1316.545)"/>
        <path id="Path_216" data-name="Path 216" d="M1770,1352.565c12.25-2.647,20.943-10.463,19.862-18.345-.629-4.6-4.455-8.279-10.017-10.4-4.741,1.857-12.064,7.736-10.814,11.38C1771.754,1343.158,1765.358,1350.557,1770,1352.565Z" transform="translate(-1733.438 -1309.285)" fill="#fd7166"/>
        <path id="Path_217" data-name="Path 217" d="M1729.634,1320.448c1.66-.184,4.879,6.409,8.884,7.73,3.72,1.227,7.531-3.548,12.976-8.91a38.006,38.006,0,0,0-12.921-.366C1735.575,1319.313,1732.538,1319.82,1729.634,1320.448Z" transform="translate(-1709.368 -1305.985)" fill="#fd7166"/>
        <path id="Path_218" data-name="Path 218" d="M1785.009,1347.266a2.592,2.592,0,1,0,2.592-2.593A2.592,2.592,0,0,0,1785.009,1347.266Z" transform="translate(-1743.883 -1322.285)"/>
        <path id="Path_219" data-name="Path 219" d="M1753.739,1324.915a2.024,2.024,0,1,0,2.024-2.024A2.023,2.023,0,0,0,1753.739,1324.915Z" transform="translate(-1724.392 -1308.708)"/>
        <g id="Group_59" data-name="Group 59" transform="translate(16.889 36.816)">
          <path id="Path_220" data-name="Path 220" d="M1720.67,1387.526a37.752,37.752,0,0,0,3.73,1.3q.342,0,.7-.008a18.062,18.062,0,0,0,12.571-5.018.485.485,0,0,0,0-.688.491.491,0,0,0-.691,0C1730.731,1389.423,1721.649,1387.739,1720.67,1387.526Z" transform="translate(-1720.67 -1382.974)"/>
        </g>
        <path id="Path_221" data-name="Path 221" d="M1837.573,1435.814c-1.863,3.8,8.858,18.314,13.773,12.729s8.264-2.232,13.4,2.234a12.9,12.9,0,0,0,5.907,3.073,43.507,43.507,0,0,0-17.472-21.4,147.592,147.592,0,0,1-17.356-12.549C1839.061,1425.542,1839.438,1432.016,1837.573,1435.814Z" transform="translate(-1775.556 -1369.175)" fill="#fd7166"/>
        <path id="Path_222" data-name="Path 222" d="M2008.953,1504.827c-.054.192-.112.382-.172.566l.172,1.39Z" transform="translate(-1883.359 -1422.108)" fill="#fff"/>
        <path id="Path_223" data-name="Path 223" d="M1979.655,1486.446a22.08,22.08,0,0,1,.99,4.512,15.457,15.457,0,0,1,2.159,2.226c1.634,2.164,3.93,1.551,5.676-1.068C1987.072,1477,1975.174,1473,1979.655,1486.446Z" transform="translate(-1864.579 -1405.553)" fill="#fff"/>
      </g>
    </g>
  </g>
</svg>
