<svg xmlns="http://www.w3.org/2000/svg" width="856.232" height="666.652" viewBox="0 0 856.232 666.652">
  <g id="Group_226" data-name="Group 226" transform="translate(-505 -1929.108)">
    <path id="Path_593" data-name="Path 593" d="M532.676,667.824C313.962,655.095,138.561,423.7,254.945,289.415c90.263-104.15,210.614,47.446,322.864-28.931,172.693-117.5,452.471-138.866,489.5,9.258S981.677,649.309,890.257,663.2,532.676,667.824,532.676,667.824Z" transform="translate(287.147 1924.912)" fill="#e5eefb"/>
    <g id="undraw_having_fun_re_vj4h" transform="translate(593.679 1929.108)">
      <path id="Path_539" data-name="Path 539" d="M20.432,622.437H37.437l8.09-65.591h-25.1Z" fill="#9f616a"/>
      <path id="Path_540" data-name="Path 540" d="M249.773,747.425h33.49a21.343,21.343,0,0,1,21.342,21.34v.695l-54.831,0Z" transform="translate(-233.679 -130.539)" fill="#2f2e41"/>
      <path id="Path_541" data-name="Path 541" d="M243.42,518.7s-7.37,8.331,4.833,40.8L246.1,737.57l39.547-.772,8.693-86.858,15.827-126.75Z" transform="translate(-233.679 -130.539)" fill="#2f2e41"/>
      <path id="Path_542" data-name="Path 542" d="M323.735,543.32l-.433-.066c-50.592-7.716-88.769-15.113-89.149-15.187l-.474-.092,13.262-32.257c-.1-3.371-2.976-98.023,2.52-125.218,5.32-26.326,30.4-30.64,33.255-31.046l2.869-9.507,36.251,18.864,6.322,21.76,1.284,59.639Z" transform="translate(-233.679 -130.539)" fill="#3f3d56"/>
      <path id="Path_543" data-name="Path 543" d="M345.569,420.57a11.832,11.832,0,0,0-8.693,3.8l-60.931,0-22.319,4.751,3.664,28.264,79.4-17.075a11.871,11.871,0,1,0,8.882-19.741Z" transform="translate(-233.679 -130.539)" fill="#9f616a"/>
      <circle id="Ellipse_20" data-name="Ellipse 20" cx="29.366" cy="29.366" r="29.366" transform="translate(46.797 186.32) rotate(-61.337)" fill="#9f616a"/>
      <path id="Path_544" data-name="Path 544" d="M292.71,281.7l-1.424-2.865,7.164-3.559s7.9-12.858,22.2-9.245,20.734,5.776,20.734,5.776l7.145,3.6-3.586,3.568,6.434,2.163-4.3,2.135,5,2.874-2.692,14.735s-4.471-11.176-13.068-6.905S312,291.765,312,291.765L298.342,318.2s-2.818-9.268-7.843-6.8C290.5,311.406,277.662,290.963,292.71,281.7Z" transform="translate(-233.679 -130.539)" fill="#2f2e41"/>
      <path id="Path_545" data-name="Path 545" d="M257.68,462.684l-6.968-20.727-1.686-69.094,2.969-9.8a27.389,27.389,0,1,1,51.728,17.9L287.81,421.736l.809,1.57,34.477-.279,12.247,22.045Z" transform="translate(-233.679 -130.539)" fill="#3f3d56"/>
      <path id="Path_546" data-name="Path 546" d="M602.627,454.168a10.611,10.611,0,0,0,1.7-16.183l16.994-33.662-19.465,2.258L588.7,438.2a10.669,10.669,0,0,0,13.929,15.967Z" transform="translate(-233.679 -130.539)" fill="#ffb7b7"/>
      <path id="Path_547" data-name="Path 547" d="M505.24,562.075H489.924L482.638,503l22.6,0Z" fill="#ffb7b7"/>
      <path id="Path_548" data-name="Path 548" d="M742.824,707.46l-49.384,0v-.625a19.222,19.222,0,0,1,19.22-19.221h30.165Z" transform="translate(-233.679 -130.539)" fill="#2f2e41"/>
      <path id="Path_549" data-name="Path 549" d="M421.54,562.075H406.224L398.938,503l22.605,0Z" fill="#ffb7b7"/>
      <path id="Path_550" data-name="Path 550" d="M655.377,707.46l-49.384,0v-.625a19.222,19.222,0,0,1,19.22-19.221h30.164Z" transform="translate(-233.679 -130.539)" fill="#2f2e41"/>
      <path id="Path_551" data-name="Path 551" d="M420.285,312.572l-14.991,34.536L392.928,545.614l31.231-1.249,8.53-94.629L459,365.454l15.127,93.961,6.247,82.451,25.842,1.119,10.3-230.413Z" fill="#2f2e41"/>
      <path id="Path_552" data-name="Path 552" d="M728.9,272.694l-43.449,1.087-25.509,13.1-1.4,96.614-15.909,66.7s99.4,6.841,113.146-3.153l-16.24-76.2,21.782-82.355Z" transform="translate(-233.679 -130.539)" fill="#6a86ce"/>
      <path id="Path_553" data-name="Path 553" d="M666.651,288.478l-4.045-2.732s-16.757,5.022-21.71,27.366c0,0-3.79,11.21-5.453,18.917-1.907,8.84-44.026,90.041-44.026,90.041l25.217,7.234,46.232-74.766Z" transform="translate(-233.679 -130.539)" fill="#6a86ce"/>
      <path id="Path_554" data-name="Path 554" d="M760.638,466.556a10.611,10.611,0,0,1,2.833-16.023l-7.053-37.043,18.088,7.538,3.924,34.022a10.669,10.669,0,0,1-17.792,11.507Z" transform="translate(-233.679 -130.539)" fill="#ffb7b7"/>
      <path id="Path_555" data-name="Path 555" d="M754.782,289.636l4.641-1.51s14.722,9.448,13.322,32.292c0,0,.552,11.821.025,19.688-.6,9.023,7.5,98.691,7.5,98.691H754.03l-11.243-81.2Z" transform="translate(-233.679 -130.539)" fill="#6a86ce"/>
      <path id="Path_556" data-name="Path 556" d="M739.565,232.16a30.119,30.119,0,1,1-30.119-30.119h0a30.045,30.045,0,0,1,30.119,29.969Z" transform="translate(-233.679 -130.539)" fill="#ffb7b7"/>
      <path id="Path_557" data-name="Path 557" d="M679.426,191.7c3.528-7.587,10.356-6.087,16.328-3.515,7.562-1.677,14.754-6.7,22.9-3.729,8.026,11.673,34.972,8.239,29.239,27.243-.008,4.554,8.569,1.9,7.071,9.361,4.543,14.353-16.4,41.535-28.421,35.811,2.973-5.449,9.765-17.826-.536-19.054-22.161,20.62-2.286-39.264-30.131-21.849C686.659,224.409,674.038,200.144,679.426,191.7Z" transform="translate(-233.679 -130.539)" fill="#2f2e41"/>
      <path id="Path_558" data-name="Path 558" d="M765.911,469.56a10.009,10.009,0,0,0,11.98-9.594l75.627-71.183L836.5,375.209l-69.117,74.418a10.064,10.064,0,0,0-1.474,19.932Z" transform="translate(-311.616 130.291) rotate(-17)" fill="#9f616a"/>
      <path id="Path_559" data-name="Path 559" d="M842.8,400.29l-14.714-17.243a4.488,4.488,0,0,1,1.032-6.717l19.155-11.991a12.464,12.464,0,1,1,16.125,19.01l-14.8,16.978a4.488,4.488,0,0,1-6.8-.037Z" transform="matrix(1, -0.017, 0.017, 1, -240.21, -115.683)" fill="#cbcbcb"/>
      <path id="Path_560" data-name="Path 560" d="M569.558,621H551.067l-8.8-71.321h27.291Z" fill="#9f616a"/>
      <path id="Path_561" data-name="Path 561" d="M807.952,769.461l-59.622,0V768.7a23.208,23.208,0,0,1,23.2-23.207h36.418Z" transform="translate(-233.679 -130.539)" fill="#2f2e41"/>
      <path id="Path_562" data-name="Path 562" d="M717.365,621h-18.49l-8.8-71.321h27.291Z" fill="#9f616a"/>
      <path id="Path_563" data-name="Path 563" d="M955.76,769.461l-59.622,0V768.7a23.208,23.208,0,0,1,23.2-23.207h36.418Z" transform="translate(-233.679 -130.539)" fill="#2f2e41"/>
      <path id="Path_564" data-name="Path 564" d="M901.307,438.1l18.639-68.863-24.18-13.591H862.014l-13.127,14.044s-21.932,15.259-16.624,32.166l8.564,38.509-13.1,61.161-65.991,91.515L746.118,682.93l61.492,16.12L874.1,568.12l32.24,144.975,59.977-3.016L945.654,534.3s-5.892-53.549-36.773-86.985Z" transform="translate(-233.679 -130.539)" fill="#2f2e41"/>
      <path id="Path_565" data-name="Path 565" d="M939.8,499.025a10.009,10.009,0,0,0-1.282-15.294l-14.462-97.564L903.3,392.721l20.778,93.965a10.064,10.064,0,0,0,15.723,12.34Z" transform="translate(-233.679 -130.539)" fill="#9f616a"/>
      <path id="Path_566" data-name="Path 566" d="M927.629,401.479l-22.518,2.6a4.488,4.488,0,0,1-5-4.6l.729-22.586a12.464,12.464,0,1,1,24.772-2.783l5.837,21.756a4.488,4.488,0,0,1-3.821,5.62Z" transform="translate(-233.679 -130.539)" fill="#cbcbcb"/>
      <path id="Path_567" data-name="Path 567" d="M841.146,336.058V307.044a38.88,38.88,0,1,1,77.76,0v29.015a5.229,5.229,0,0,1-5.223,5.223H846.369a5.229,5.229,0,0,1-5.223-5.223Z" transform="translate(-233.679 -130.539)" fill="#2f2e41"/>
      <circle id="Ellipse_21" data-name="Ellipse 21" cx="28.505" cy="28.505" r="28.505" transform="translate(599.669 170.22) rotate(-28.663)" fill="#9f616a"/>
      <path id="Path_568" data-name="Path 568" d="M831.948,309.365A30.791,30.791,0,0,1,862.7,278.609h5.8a30.79,30.79,0,0,1,30.755,30.756v.58H887l-4.183-11.712-.836,11.712h-6.338l-2.11-5.909-.422,5.909H831.948Z" transform="translate(-233.679 -130.539)" fill="#2f2e41"/>
      <path id="Path_569" data-name="Path 569" d="M869.231,344.544a5.145,5.145,0,0,1-.409-5.463c6.149-11.7,14.76-33.309,3.331-46.638l-.821-.958H904.51V341.3l-30.14,5.318a5.335,5.335,0,0,1-.924.082,5.2,5.2,0,0,1-4.214-2.153Z" transform="translate(-233.679 -130.539)" fill="#2f2e41"/>
      <path id="Path_570" data-name="Path 570" d="M564.278,371.069a11.471,11.471,0,0,0-1.154,1.391l-54.059-1.323-6.307-11.524-18.636,7.245,9.182,21.486a8.723,8.723,0,0,0,9.067,5.232l61.077-7.378a11.446,11.446,0,1,0,.83-15.129Z" transform="translate(-233.679 -130.539)" fill="#ffb7b7"/>
      <path id="Path_571" data-name="Path 571" d="M154.374,568.836h17.775l8.456-68.561H154.371Z" fill="#ffb7b7"/>
      <path id="Path_572" data-name="Path 572" d="M383.519,693.573h35.007a22.309,22.309,0,0,1,22.308,22.306v.726l-57.314,0Z" transform="translate(-233.679 -130.539)" fill="#2f2e41"/>
      <path id="Path_573" data-name="Path 573" d="M315.778,568.441l16.346-6.983-19.157-66.372-24.124,10.307Z" fill="#ffb7b7"/>
      <path id="Path_574" data-name="Path 574" d="M543.007,695.425,575.2,681.673h0a22.31,22.31,0,0,1,29.278,11.751l.285.667-52.706,22.516Z" transform="translate(-233.679 -130.539)" fill="#2f2e41"/>
      <path id="Path_575" data-name="Path 575" d="M240.773,255.381l1.285,20.829-37.571,4.021-39.314,4.207,11.571-31.628Z" fill="#ffb7b7"/>
      <path id="Path_576" data-name="Path 576" d="M475.771,393.394c-.426-.167-42.863-16.675-68.93-3.177l-.641.332-5.2-25.6-2.963-55.03,19.281-9.111,5.309-11.891,36.159-2.14,7.431,10.19,25.3,8.291L476.4,393.641Z" transform="translate(-233.679 -130.539)" fill="#e4e4e4"/>
      <path id="Path_577" data-name="Path 577" d="M477.1,343.723l4.473-35.142,10.184-3.1.172.063c.235.086,5.77,2.2,7.285,9.867,1.454,7.355,12.407,53.123,12.517,53.585l.11.458-25.733,10.3Z" transform="translate(-233.679 -130.539)" fill="#e4e4e4"/>
      <path id="Path_578" data-name="Path 578" d="M536.218,686.931l34.255-7.027L515.724,528.832,496.986,477.3S485.1,435.988,479.732,420l-3.24-21.453-76.707,8.49S378.36,438.5,384.869,489.784l-2.944,192.755L416.18,684.3l28.692-194.4,50.357,106.57S511.1,641.94,522.457,651.8Z" transform="translate(-233.679 -130.539)" fill="#2f2e41"/>
      <path id="Path_579" data-name="Path 579" d="M430.546,414.192a11.476,11.476,0,0,0-1.8.1l-35.785-40.541,4.163-12.46-17.983-8.74-9.513,21.342a8.723,8.723,0,0,0,2.328,10.207l46.937,39.771a11.446,11.446,0,1,0,11.658-9.678Z" transform="translate(-233.679 -130.539)" fill="#ffb7b7"/>
      <path id="Path_580" data-name="Path 580" d="M375.895,358.557l13.99-39.849c1.572-4.7,3.542-7.551,5.856-8.482a3.613,3.613,0,0,1,2.9-.027l6.273,7.925,5.822,24.458L395.812,377.7Z" transform="translate(-233.679 -130.539)" fill="#e4e4e4"/>
      <path id="Path_581" data-name="Path 581" d="M468.5,278.536H407.08a4.77,4.77,0,0,1-4.765-4.765V247.3a35.473,35.473,0,1,1,70.946,0v26.472A4.77,4.77,0,0,1,468.5,278.536Z" transform="translate(-233.679 -130.539)" fill="#2f2e41"/>
      <circle id="Ellipse_22" data-name="Ellipse 22" cx="26.008" cy="26.008" r="26.008" transform="translate(185.391 95.365)" fill="#ffb7b7"/>
      <path id="Path_582" data-name="Path 582" d="M481.653,249.946H444.1l-.385-5.392-1.925,5.392h-5.783l-.763-10.686-3.817,10.686H420.237v-.529a28.092,28.092,0,0,1,28.06-28.061h5.295a28.092,28.092,0,0,1,28.061,28.061Z" transform="translate(-233.679 -130.539)" fill="#2f2e41"/>
      <path id="Path_583" data-name="Path 583" d="M443.791,283.478a4.87,4.87,0,0,1-.843-.074l-27.5-4.852V233.1H445.72l-.749.874c-10.427,12.161-2.572,31.88,3.039,42.551a4.694,4.694,0,0,1-.373,4.984A4.746,4.746,0,0,1,443.791,283.478Z" transform="translate(-233.679 -130.539)" fill="#2f2e41"/>
      <circle id="Ellipse_23" data-name="Ellipse 23" cx="25" cy="25" r="25" transform="translate(31.188 21)" fill="#f0f0f0"/>
      <circle id="Ellipse_24" data-name="Ellipse 24" cx="25" cy="25" r="25" transform="translate(607.188)" fill="#f0f0f0"/>
      <circle id="Ellipse_25" data-name="Ellipse 25" cx="18" cy="18" r="18" transform="translate(328.187 77)" fill="#f0f0f0"/>
    </g>
  </g>
</svg>
