<svg xmlns="http://www.w3.org/2000/svg" xmlns:xlink="http://www.w3.org/1999/xlink" width="1124.117" height="652" viewBox="0 0 1124.117 652">
  <defs>
    <clipPath id="clip-path">
      <rect id="Rectangle_28" data-name="Rectangle 28" width="947" height="598" transform="translate(-377 1109)" fill="#f8fbff"/>
    </clipPath>
  </defs>
  <g id="Mask_Group_1" data-name="Mask Group 1" transform="translate(377 -1055)" clip-path="url(#clip-path)">
    <g id="_038-father" data-name="038-father" transform="translate(-123.939 1101)">
      <path id="Path_367" data-name="Path 367" d="M562.879,1255.634h-102a.011.011,0,0,0-.012-.012c-1.683-.77-136.887-63.418-66.52-204.969l24.325-.18,122.132-.891c.494.433.974.891,1.455,1.334,31.2,29.028,55.53,69.321,69.261,116.193C624.1,1210,598.869,1255.634,562.879,1255.634Z" transform="translate(-397.427 -658.925)" fill="#dedef9"/>
      <path id="Path_368" data-name="Path 368" d="M0,1322.668l32.6-12.185,32.612,12.185h91.835c32.416,0,55.121-60.21,43.806-116.8-12.321-61.559-34.073-114.534-62-152.817h-.011l-78.94-.841-21.9-.237c1.05,81.517-4.851,191.624-37.993,270.682-.012,0-.012.015-.012.015Z" transform="translate(153.914 -709.781)" fill="#dedef9"/>
      <ellipse id="Ellipse_8" data-name="Ellipse 8" cx="44.263" cy="45.269" rx="44.263" ry="45.269" transform="translate(0 199.182)" fill="#ffddcf"/>
      <path id="Path_369" data-name="Path 369" d="M523.446,1297.615s-72.411-14.31-42.23-181.077H505.35Z" transform="translate(-297.109 -700.07)" fill="#767678"/>
      <path id="Path_370" data-name="Path 370" d="M485.062,1297.615H412.639l18.108-181.077h12.085C443.806,1174.726,452.849,1245.189,485.062,1297.615Z" transform="translate(-258.725 -700.07)" fill="#666667"/>
      <path id="Path_371" data-name="Path 371" d="M581.946,971.156,515.775,1016.5a14.7,14.7,0,0,1-20.43-3.813l-16.714-24.4-14.537-22.414-26.731-41.2a159.177,159.177,0,0,1,54.231.036C525.071,930.538,555.9,946.927,581.946,971.156Z" transform="translate(-274.227 -578.328)" fill="#dedef9"/>
      <path id="Path_372" data-name="Path 372" d="M338.625,924.717l-27.5,41.159-14.97,22.414-16.714,24.4a14.7,14.7,0,0,1-20.43,3.813l-65.618-44.973c26.189-24.493,57.249-41.039,91-46.848a159.13,159.13,0,0,1,54.229.037Z" transform="translate(-121.258 -578.327)" fill="#d2d2ff"/>
      <path id="Path_373" data-name="Path 373" d="M491.143,1082.419a29.9,29.9,0,0,1-9.836-.181s-18.133-22.161-.361-47.93c.492-.1.986-.18,1.492-.252,14.8-2.164,28.763,6.9,31.155,20.262S505.946,1080.254,491.143,1082.419Z" transform="translate(-296.659 -648.154)" fill="#666667"/>
      <path id="Path_374" data-name="Path 374" d="M458.581,1083.2c-10.727-2-19.48-9.752-21.332-20.081-2.321-12.891,6.973-25.084,20.97-27.849C457.8,1050.071,457.812,1066.269,458.581,1083.2Z" transform="translate(-273.933 -649.114)" fill="#575757"/>
      <path id="Path_375" data-name="Path 375" d="M441.819,396a153.57,153.57,0,0,1-57.561,119.967c-2.6,2.117-5.292,4.137-8.045,6.072a153.248,153.248,0,0,1-31.264,16.954q-5.1,2.055-10.389,3.739a155.667,155.667,0,0,1-83.834,2.946s-181.233-84.46-46.7-279.378A153.975,153.975,0,0,1,287.4,241.936c85.277,0,154.417,68.974,154.417,154.06Z" transform="translate(-96.764 -151.694)" fill="#ffddcf"/>
      <path id="Path_376" data-name="Path 376" d="M214.845,586.634a153.88,153.88,0,0,1-54.687-25.468C121,532.461,97.1,485.5,97.1,436.954a153.851,153.851,0,0,1,71.04-129.7C144.309,371.757,118.493,494.093,214.845,586.634Z" transform="translate(-60.883 -192.651)" fill="#ffcbbe"/>
      <path id="Path_377" data-name="Path 377" d="M554.048,171.145a170.52,170.52,0,0,1-2.562,29.52l-7.167,7.612c-38.948,0-69.5-41.954-82.164-62.588a14.662,14.662,0,0,0-17.917-5.988c-31.985,12.818-63.237,12.782-87.694,8.983-113.8-60.28.324-146.867.324-146.867A175.225,175.225,0,0,1,382.024,0,172.105,172.105,0,0,1,537.356,97.53a169.781,169.781,0,0,1,16.692,73.615Z" transform="translate(-191.894 0)" fill="#767678"/>
      <path id="Path_378" data-name="Path 378" d="M195.093,151.738a194.2,194.2,0,0,1-36.831-9.428,14.685,14.685,0,0,0-17.616,6.108c-12.553,20.5-43.216,62.913-82.368,62.913L51.1,203.72a171.8,171.8,0,0,1-2.549-29.52A169.638,169.638,0,0,1,65.24,100.586,172.107,172.107,0,0,1,195.419,4.872c-14.49,28.353-34.5,86.01-.326,146.866Z" transform="translate(-30.442 -3.055)" fill="#666667"/>
      <g id="Group_87" data-name="Group 87" transform="translate(103.358 208.271)">
        <path id="Path_379" data-name="Path 379" d="M286.117,590.834a9.017,9.017,0,0,1-9.018-9.018v-14.43a9.018,9.018,0,0,1,18.036,0v14.43A9.018,9.018,0,0,1,286.117,590.834Z" transform="translate(-277.099 -558.368)" fill="#455059"/>
        <path id="Path_380" data-name="Path 380" d="M688.75,590.834a9.017,9.017,0,0,1-9.018-9.018v-14.43a9.018,9.018,0,0,1,18.036,0v14.43A9.017,9.017,0,0,1,688.75,590.834Z" transform="translate(-529.55 -558.368)" fill="#455059"/>
        <path id="Path_381" data-name="Path 381" d="M454.153,622.955a35.28,35.28,0,0,1-26.6-12.112,9.019,9.019,0,1,1,13.6-11.851,17.219,17.219,0,0,0,26,0,9.019,9.019,0,1,1,13.6,11.851,35.288,35.288,0,0,1-26.6,12.112Z" transform="translate(-370.044 -581.9)" fill="#455059"/>
      </g>
      <circle id="Ellipse_9" data-name="Ellipse 9" cx="40.241" cy="40.241" r="40.241" transform="translate(-121.318 352.003) rotate(-7.004)" fill="#ffcbbe"/>
      <ellipse id="Ellipse_10" data-name="Ellipse 10" cx="40.742" cy="40.78" rx="40.742" ry="40.78" transform="translate(-227.082 351.653)" fill="#ffbbae"/>
      <path id="Path_382" data-name="Path 382" d="M1205.106,1297.561l-63.008,45.272h-69.489s-120.534-61.011-19.107-154.009q3.534-.163,7.106-.168c65.233,0,120.858,41.737,142.37,100.333A40.585,40.585,0,0,1,1205.106,1297.561Z" transform="translate(-1115.672 -728.623)" fill="#bd9cde"/>
      <path id="Path_383" data-name="Path 383" d="M909.919,1343.116H816.44l-63.02-45.272a40.74,40.74,0,0,1,2.14-8.573c20.73-56.455,73.121-97.254,135.252-100.163C882.467,1218.758,869.889,1287.274,909.919,1343.116Z" transform="translate(-952.982 -728.906)" fill="#b18cd9"/>
      <path id="Path_384" data-name="Path 384" d="M1106.912,1206.9c0,31.828-27.019,57.621-60.339,57.621a62.257,62.257,0,0,1-9.535-.721l-40.817-46.11s-5.657-35.283,1.667-44.819a61.185,61.185,0,0,1,48.687-23.58c33.32,0,60.338,25.792,60.338,57.609Z" transform="translate(-1103.91 -703.941)" fill="#ffcbbe"/>
      <path id="Path_385" data-name="Path 385" d="M1023.779,1288.763c-28.787-4.365-50.791-28.173-50.791-56.9a55.654,55.654,0,0,1,11.639-34.03,149.531,149.531,0,0,1,43.853-8.73c-5.748,20.405-13.491,59.233-4.7,99.659Z" transform="translate(-1090.651 -728.904)" fill="#ffbbae"/>
      <path id="Path_386" data-name="Path 386" d="M1082.784,762.815a134.814,134.814,0,0,1-9.464,49.818c-18.951,47.737-64.319,81.357-117.287,81.357A123.487,123.487,0,0,1,934.5,892.1s-168.271-72-40.463-243.724a122.8,122.8,0,0,1,62-16.75C1026.039,631.627,1082.784,690.355,1082.784,762.815Z" transform="translate(-1011.097 -379.366)" fill="#ffddcf"/>
      <path id="Path_387" data-name="Path 387" d="M906.213,920.255c-43.492-7.707-79.434-38.347-95.751-79.47A134.812,134.812,0,0,1,801,790.968c0-49.145,26.105-91.975,64.752-114.437C837.577,725.976,807.48,821.078,906.213,920.255Z" transform="translate(-982.813 -407.52)" fill="#ffcbbe"/>
      <path id="Path_388" data-name="Path 388" d="M916.037,990.886a9.017,9.017,0,0,1-9.018-9.018,7.533,7.533,0,1,0-15.066,0,9.018,9.018,0,1,1-18.036,0,25.57,25.57,0,0,1,51.14,0,9.021,9.021,0,0,1-9.02,9.018Z" transform="translate(-1028.534 -582.934)" fill="#455059"/>
      <path id="Path_389" data-name="Path 389" d="M1312.7,990.886a9.017,9.017,0,0,1-9.018-9.018,7.534,7.534,0,0,0-15.067,0,9.018,9.018,0,1,1-18.036,0,25.57,25.57,0,0,1,51.14,0,9.019,9.019,0,0,1-9.019,9.018Z" transform="translate(-1277.24 -582.934)" fill="#455059"/>
      <path id="Path_390" data-name="Path 390" d="M1096.123,1078.567a32.309,32.309,0,0,1-24.356-11.09,9.019,9.019,0,0,1,13.6-11.854,14.249,14.249,0,0,0,21.516,0,9.019,9.019,0,0,1,13.6,11.85A32.3,32.3,0,0,1,1096.123,1078.567Z" transform="translate(-1151.193 -643.272)" fill="#455059"/>
      <path id="Path_391" data-name="Path 391" d="M1237.727,624.911a8.938,8.938,0,0,1-16.738-1.9C1215.615,600,1205.67,565.847,1191.1,548.3a8.892,8.892,0,0,0-15.319,3.258c-3.006,9.968-8.2,23.808-16.233,34.595a8.915,8.915,0,0,1-15.993-4.124c-3.667-27.139-14.958-64.7-51.285-40.642-67.276-44.767-.132-99.118-.132-99.118,11.628-.072,23.147-2.249,26.634-6.529a177.416,177.416,0,0,1,19.575-20.9,8.91,8.91,0,0,1,14.706,5.809,294,294,0,0,0,5.411,31.805,8.906,8.906,0,0,0,12.758,6c21.415-11.038,32.225-11.687,48.723-10.353a8.959,8.959,0,0,1,5.687,15.2,214.973,214.973,0,0,0-20.754,24.505,8.953,8.953,0,0,0,4.221,13.7c66.326,23.483,45.235,89.1,28.63,123.407Z" transform="translate(-1146.67 -242.064)" fill="#eaaa83"/>
      <path id="Path_392" data-name="Path 392" d="M867.548,541.39c-.145.1-.3.193-.456.3-36.674-24.674-48.458,13.083-52.138,40.341a8.915,8.915,0,0,1-15.992,4.124c-8.032-10.786-13.227-24.627-16.233-34.595a8.892,8.892,0,0,0-15.319-3.258c-14.573,17.544-24.518,51.692-29.892,74.708a8.938,8.938,0,0,1-16.738,1.9c-16.605-34.306-37.7-99.923,28.631-123.407a8.953,8.953,0,0,0,4.22-13.7A215.992,215.992,0,0,0,732.875,463.3a8.959,8.959,0,0,1,5.675-15.2c16.51-1.334,27.813-.685,49.229,10.353a8.9,8.9,0,0,0,12.757-6,293.7,293.7,0,0,0,5.411-31.805,8.91,8.91,0,0,1,14.706-5.809c4.605,4,12.265,12.782,19.071,20.958,3.644,4.365,15.728,6.529,27.692,6.469C859.841,466.152,851.7,506.578,867.548,541.39Z" transform="translate(-921.951 -242.064)" fill="#e4996d"/>
      <path id="Path_393" data-name="Path 393" d="M1383.094,1525.9h-23.808v-30.241c0-8.3,5.977-15.031,13.347-15.031h49.661C1425.443,1503.882,1407.527,1525.9,1383.094,1525.9Z" transform="translate(-1332.109 -910.046)" fill="#a8e1f6"/>
      <path id="Path_394" data-name="Path 394" d="M815.836,1495.658V1525.9h-23.82c-24.434,0-42.35-22.017-39.2-45.272h49.661C809.848,1480.627,815.836,1487.36,815.836,1495.658Z" transform="translate(-952.377 -911.689)" fill="#91d4f2"/>
    </g>
  </g>
  <rect id="Rectangle_21" data-name="Rectangle 21" width="388" height="302" transform="translate(261)" fill="none"/>
  <g id="_028-mother" data-name="028-mother" transform="translate(533.253 61.135)">
    <path id="Path_395" data-name="Path 395" d="M385.368,345.862a51.141,51.141,0,0,1-50.159,48.857A50.5,50.5,0,0,1,304.1,384.526a166.511,166.511,0,0,1-215.028,0,50.5,50.5,0,0,1-31.108,10.192A51.136,51.136,0,0,1,14.52,318.173a114.031,114.031,0,0,0,15.047-58.924c-.02-1.047-.029-2.083-.029-3.13a168.1,168.1,0,0,1,10.389-58.362c-.077-.213-.155-.417-.232-.63H353.48c-.077.213-.155.417-.232.63a168.1,168.1,0,0,1,10.389,58.362c0,1.047-.009,2.083-.029,3.13a114.034,114.034,0,0,0,15.047,58.924,51.146,51.146,0,0,1,6.713,27.689Z" transform="translate(1.195 30.364)" fill="#666667"/>
    <path id="Path_396" data-name="Path 396" d="M363.655,527.409,199.3,526.933l-31.937,3.756-15.695,1.843C.843,438.162,166.161,297.016,167.945,295.494l.012-.012q7.634-.7,15.41-.69a174.758,174.758,0,0,1,78.427,18.715c53.053,26.455,95.037,78.974,115.131,144.417C384.82,483.641,378.315,510.371,363.655,527.409Z" transform="translate(13.593 45.407)" fill="#ffcbbe"/>
    <path id="Path_397" data-name="Path 397" d="M181.538,295.4c-19.5,47.168-45.515,140.421-.583,235.2l-15.695,1.843L55.492,545.363h-1.7c-37.3,0,98.449-32.9,111.469-75.309,9.655-31.45-72.4-70.922-53.842-94.928,1.736-2.247-61.611-5.677-59.8-7.829Z" transform="translate(0 45.5)" fill="#ffbbae"/>
    <path id="Path_398" data-name="Path 398" d="M157.32,295.39l-.012.012v-.012Z" transform="translate(24.23 45.499)" fill="#ffbbae"/>
    <path id="Path_399" data-name="Path 399" d="M325.167,542.96h-151.6S45.6,489,120.812,355.359a73.785,73.785,0,0,0,22.829,23,79.063,79.063,0,0,0,42.828,12.413c42.031,0,76.1-32.067,76.1-71.613l-2.14-8.145c53.053,26.455,95.037,78.974,115.131,144.417C388.576,497.837,362.454,542.96,325.167,542.96Z" transform="translate(14.961 47.905)" fill="#7888af"/>
    <path id="Path_400" data-name="Path 400" d="M48.6,543.39c14.376-91.624,4.007-150.3-3.876-178.065.155-.19.309-.38.464-.571,20.653-24.672,45.551-44.112,73.254-56.537v11.367c0,24.6,13.186,46.311,33.268,59.2-6.242,48.369-2.164,106.63,29.927,164.605H48.6Z" transform="translate(6.889 47.475)" fill="#687daa"/>
    <path id="Path_401" data-name="Path 401" d="M340.979,229.765A152.181,152.181,0,0,1,188.3,381.958a153.08,153.08,0,0,1-46.109-7.063s-159.9-99.769-35.076-274.053A152.344,152.344,0,0,1,188.3,77.573C272.623,77.573,340.979,145.714,340.979,229.765Z" transform="translate(9.16 11.948)" fill="#ffddcf"/>
    <path id="Path_402" data-name="Path 402" d="M145.375,371.79a152.887,152.887,0,0,1-95.18-87.321A152.045,152.045,0,0,1,110.3,97.735C88.944,145.5,54.617,259.583,145.375,371.79Z" transform="translate(5.975 15.054)" fill="#ffcbbe"/>
    <g id="Group_88" data-name="Group 88" transform="translate(98.523 206.938)">
      <path id="Path_403" data-name="Path 403" d="M127.022,213.519A8.916,8.916,0,0,1,118.1,204.6a7.449,7.449,0,0,0-14.9,0,8.917,8.917,0,1,1-17.834,0,25.284,25.284,0,0,1,50.568,0A8.921,8.921,0,0,1,127.022,213.519Z" transform="translate(-85.373 -179.318)" fill="#455059"/>
      <path id="Path_404" data-name="Path 404" d="M253.795,213.519a8.916,8.916,0,0,1-8.917-8.917,7.449,7.449,0,0,0-14.9,0,8.917,8.917,0,1,1-17.834,0,25.284,25.284,0,0,1,50.568,0,8.919,8.919,0,0,1-8.92,8.917Z" transform="translate(-65.846 -179.318)" fill="#455059"/>
      <path id="Path_405" data-name="Path 405" d="M174.174,235.82a31.941,31.941,0,0,1-24.083-10.967,8.917,8.917,0,0,1,13.444-11.718,14.093,14.093,0,0,0,21.278,0,8.917,8.917,0,0,1,13.444,11.718,31.944,31.944,0,0,1-24.083,10.967Z" transform="translate(-75.743 -174.58)" fill="#455059"/>
    </g>
    <path id="Path_406" data-name="Path 406" d="M352.415,189.159a10.412,10.412,0,0,1-17.157,8.466c-1.617-1.368-2.664-2.3-2.722-2.3-16.67-1.486-46.537-17.1-87.119-57.524a27.6,27.6,0,0,0-33.578-4.09c-22.116,13.15-40.414,23.293-56.239,31.377C6.533,92.565,161.127,1.369,161.127,1.369A177.055,177.055,0,0,1,182.862,0,173.943,173.943,0,0,1,249.72,13.2,37.416,37.416,0,0,1,270.5,6.968c20.141,0,36.479,15.6,36.479,34.861,20.141,0,36.479,15.6,36.479,34.849a33.667,33.667,0,0,1-6.516,19.88,153.649,153.649,0,0,1,13.816,63.778c0,5.424,1.057,17.694,1.653,28.823Z" transform="translate(13.978)" fill="#767678"/>
    <path id="Path_407" data-name="Path 407" d="M165.7,164.912c-34.47,17.645-57.179,25.553-82.041,33.625-64.135,20.843-58.32-28.6-58.356-37.846A152.881,152.881,0,0,1,39.177,96.472,33.713,33.713,0,0,1,32.589,76.5c0-19.25,16.336-34.849,36.479-34.849,0-19.262,16.338-34.861,36.479-34.861a37.515,37.515,0,0,1,20.89,6.3,171.921,171.921,0,0,1,44.79-11.9C154.154,29.412,128.114,91.075,165.7,164.912Z" transform="translate(3.878 0.183)" fill="#666667"/>
    <path id="Path_408" data-name="Path 408" d="M5.79,263.294a17.905,17.905,0,1,1,25.322,0A17.905,17.905,0,0,1,5.79,263.294Z" transform="translate(0.084 35.847)" fill="#f3c23b"/>
    <ellipse id="Ellipse_12" data-name="Ellipse 12" cx="40.839" cy="40.286" rx="40.839" ry="40.286" transform="translate(509.187 322.29)" fill="#ffcbbe"/>
    <ellipse id="Ellipse_13" data-name="Ellipse 13" cx="39.733" cy="40.286" rx="39.733" ry="40.286" transform="translate(250.67 322.29)" fill="#ffbbae"/>
    <path id="Path_409" data-name="Path 409" d="M486.823,532.7l-.428.036.155-.4L368.541,521.98l-5.707.535-10.867,1.022c-25.944-18.013-66.62-63.232.845-146.046a161.527,161.527,0,0,1,19.3-1.141L478.05,415.822a158.585,158.585,0,0,1,43.635,62.4C531.257,503.444,513.421,530.2,486.823,532.7Z" transform="translate(48.657 57.969)" fill="#ffcbbe"/>
    <path id="Path_410" data-name="Path 410" d="M375.644,521.357l-10.867,1.022-96.106,8.989c-25.742-3.365-42.721-29.571-33.316-54.3a158.778,158.778,0,0,1,43.262-62.007l85.043-31.188c-7.1,29.4-14.518,85.038,11.985,137.485Z" transform="translate(35.847 59.128)" fill="#ffbbae"/>
    <path id="Path_411" data-name="Path 411" d="M483.761,531.2c-1.343.13-2.7.189-4.078.189h-114.2a112.252,112.252,0,0,1-28.405-22.971c-5.172-17.181,6.8-36.276,6.8-36.276a63.568,63.568,0,0,0,24.315,4.792c33.84,0,61.257-26.182,61.257-58.5l-.915-32.341a157.211,157.211,0,0,1,46.455,28.223l-.88,2.488c-7.467,33.887-13.091,84.264,9.381,114.025a4.175,4.175,0,0,0,.273.369Z" transform="translate(51.72 59.471)" fill="#a8e1f6"/>
    <path id="Path_412" data-name="Path 412" d="M376.554,531.253H269.5a41.685,41.685,0,0,1-5.624-.368c.047-.06.106-.132.155-.19,24.8-29.761,18.6-80.138,10.356-114.025l-.564-2.093a156.363,156.363,0,0,1,44.188-27.561V418.3c0,24.066,15.208,44.73,36.943,53.707A169.535,169.535,0,0,0,376.554,531.253Z" transform="translate(40.644 59.612)" fill="#91d4f2"/>
    <path id="Path_413" data-name="Path 413" d="M514.887,328.067A134.33,134.33,0,0,1,344.953,457.774s-155.712-80.6-43.613-238.3A133.49,133.49,0,0,1,380.6,193.553c74.172,0,134.288,60.224,134.288,134.514Z" transform="translate(40.165 29.813)" fill="#ffddcf"/>
    <path id="Path_414" data-name="Path 414" d="M346.883,454.315a134.625,134.625,0,0,1-43.613-238.3c-27.43,50.5-55.609,145.557,43.613,238.3Z" transform="translate(38.237 33.273)" fill="#ffcbbe"/>
    <path id="Path_415" data-name="Path 415" d="M517.552,291.67a12.237,12.237,0,0,1-16.123,11.937,55.858,55.858,0,0,0-10.083-2.4c-12.865-1.082-40.569-8.977-72.16-39.463a17.512,17.512,0,0,0-21.984-1.866,220.357,220.357,0,0,1-44.992,23.174C242.2,226.229,358.844,148.1,358.844,148.1c4.91-.464,9.9-.7,14.946-.7,79.1,0,143.239,58.035,143.239,129.65C517.028,280.814,517.373,286.249,517.552,291.67Z" transform="translate(46.976 22.703)" fill="#eaaa83"/>
    <path id="Path_416" data-name="Path 416" d="M362.143,282.956a266.6,266.6,0,0,1-79.687,16.538h-.036l-25.778,3.793a13.536,13.536,0,0,1-15.457-12.258c-.44-5.137-.7-10.3-.7-14.078C240.484,209.9,296.7,154.757,368.778,148c-15.016,22.579-41.412,75.929-6.635,134.951Z" transform="translate(37.042 22.797)" fill="#e4996d"/>
    <path id="Path_417" data-name="Path 417" d="M322.106,336.083a8.916,8.916,0,0,1-8.917-8.917,7.449,7.449,0,0,0-14.9,0,8.917,8.917,0,0,1-17.834,0,25.284,25.284,0,0,1,50.568,0,8.917,8.917,0,0,1-8.918,8.917Z" transform="translate(43.199 46.499)" fill="#455059"/>
    <path id="Path_418" data-name="Path 418" d="M448.88,336.083a8.916,8.916,0,0,1-8.917-8.917,7.449,7.449,0,0,0-14.9,0,8.917,8.917,0,0,1-17.834,0,25.284,25.284,0,0,1,50.568,0,8.917,8.917,0,0,1-8.918,8.917Z" transform="translate(62.726 46.499)" fill="#455059"/>
    <path id="Path_419" data-name="Path 419" d="M369.26,358.385a31.947,31.947,0,0,1-24.085-10.968A8.918,8.918,0,1,1,358.623,335.7a14.088,14.088,0,0,0,21.275,0,8.917,8.917,0,1,1,13.447,11.716A31.94,31.94,0,0,1,369.26,358.385Z" transform="translate(52.83 51.236)" fill="#455059"/>
  </g>
</svg>
