<svg xmlns="http://www.w3.org/2000/svg" width="349.318" height="454.614" viewBox="0 0 349.318 454.614">
  <g id="_002-teen" data-name="002-teen" transform="translate(-53.664)">
    <path id="Path_495" data-name="Path 495" d="M308.921,354.615l-121.39,1.469,9.308-27.57,51.378-9.453,50.519,9.453Z" transform="translate(-19.508 -35.207)" fill="#eb7b5f"/>
    <g id="Group_156" data-name="Group 156" transform="translate(119.663 9.18)">
      <path id="Path_496" data-name="Path 496" d="M290.358,21.78a108.622,108.622,0,0,0-157.185,97.132v51.717H290.358Z" transform="translate(-133.173 -10.319)" fill="#755431"/>
    </g>
    <path id="Path_497" data-name="Path 497" d="M359.445,71.991,321.586,29.919V172.792h49.562V121.075A108.105,108.105,0,0,0,359.445,71.991Z" transform="translate(-34.3 -3.301)" fill="#a37544"/>
    <path id="Path_498" data-name="Path 498" d="M190.508,345.929V473.153l46.113,19.322q5.814.308,11.707.31,5.67,0,11.275-.289l53.913-19.539V345.929Z" transform="translate(-19.836 -38.172)" fill="#eb7b5f"/>
    <path id="Path_499" data-name="Path 499" d="M238.79,415.748V345.929H190.508v124.09l46.113,22.455q5.814.311,11.707.312,5.67,0,11.275-.3l18.262-29.581a48.009,48.009,0,0,1-39.075-47.161Z" transform="translate(-19.836 -38.172)" fill="#eb7b5f"/>
    <g id="Group_206" data-name="Group 206" transform="translate(113.887 30.661)">
      <g id="Group_157" data-name="Group 157" transform="translate(62.445 260.25)">
        <path id="Path_500" data-name="Path 500" d="M249.248,414.648a52.378,52.378,0,0,0,52.377-52.378V338.7l-52.888-11.7L196.87,338.505V362.27a52.378,52.378,0,0,0,52.378,52.378Z" transform="translate(-196.87 -326.993)" fill="#fff"/>
      </g>
      <g id="Group_161" data-name="Group 161" transform="translate(82.321 216.383)">
        <g id="Group_160" data-name="Group 160">
          <g id="Group_159" data-name="Group 159">
            <g id="Group_158" data-name="Group 158">
              <path id="Path_501" data-name="Path 501" d="M251.713,382.987a32.5,32.5,0,0,1-32.5-32.5v-72.8h65v72.8A32.5,32.5,0,0,1,251.713,382.987Z" transform="translate(-219.211 -277.686)" fill="#e09380"/>
            </g>
          </g>
        </g>
      </g>
      <g id="Group_165" data-name="Group 165" transform="translate(82.321 224.486)">
        <g id="Group_164" data-name="Group 164">
          <g id="Group_163" data-name="Group 163">
            <g id="Group_162" data-name="Group 162">
              <path id="Path_502" data-name="Path 502" d="M284.214,323.417V286.793h-65v36.624a32.5,32.5,0,1,0,65,0Z" transform="translate(-219.211 -286.793)" fill="#d27f6c"/>
            </g>
          </g>
        </g>
      </g>
      <g id="Group_169" data-name="Group 169" transform="translate(201.36 111.406)">
        <g id="Group_168" data-name="Group 168">
          <g id="Group_167" data-name="Group 167">
            <g id="Group_166" data-name="Group 166">
              <path id="Path_503" data-name="Path 503" d="M358.752,214.535h-5.737V159.688h5.737a21.635,21.635,0,0,1,21.635,21.635V192.9a21.635,21.635,0,0,1-21.635,21.635Z" transform="translate(-353.015 -159.688)" fill="#e09380"/>
            </g>
          </g>
        </g>
      </g>
      <g id="Group_173" data-name="Group 173" transform="translate(207.097 129.256)">
        <g id="Group_172" data-name="Group 172">
          <g id="Group_171" data-name="Group 171">
            <g id="Group_170" data-name="Group 170">
              <path id="Path_504" data-name="Path 504" d="M359.464,198.9V179.752a7.553,7.553,0,0,1,7.553,7.553v4.042A7.554,7.554,0,0,1,359.464,198.9Z" transform="translate(-359.464 -179.752)" fill="#dd5ca2"/>
            </g>
          </g>
        </g>
      </g>
      <g id="Group_177" data-name="Group 177" transform="translate(0 111.405)">
        <g id="Group_176" data-name="Group 176">
          <g id="Group_175" data-name="Group 175">
            <g id="Group_174" data-name="Group 174">
              <path id="Path_505" data-name="Path 505" d="M126.68,192.9a21.635,21.635,0,0,0,21.635,21.635h5.009l1.529-54.847h-6.538a21.635,21.635,0,0,0-21.635,21.635Z" transform="translate(-126.68 -159.687)" fill="#e09380"/>
            </g>
          </g>
        </g>
      </g>
      <g id="Group_181" data-name="Group 181" transform="translate(14.056 129.221)">
        <g id="Group_180" data-name="Group 180">
          <g id="Group_179" data-name="Group 179">
            <g id="Group_178" data-name="Group 178">
              <path id="Path_506" data-name="Path 506" d="M142.479,191.349a7.58,7.58,0,0,0,7.58,7.58V179.712a7.58,7.58,0,0,0-7.58,7.58Z" transform="translate(-142.479 -179.712)" fill="#dd5ca2"/>
            </g>
          </g>
        </g>
      </g>
      <path id="Path_507" data-name="Path 507" d="M335.2,99.719a92.771,92.771,0,0,0-88.593-65.255q-1.3,0-2.586.036C206.612,35.525,177.1,66.778,177.1,104.2V235.448q0,1.069.032,2.132c1.115,37.174,32.1,66.515,69.292,66.856l12.784.117a92.289,92.289,0,0,0,80.135-91.48v-30.2Z" transform="translate(-132.243 -34.464)" fill="#edbc83"/>
      <g id="Group_185" data-name="Group 185" transform="translate(74.954 144.127)">
        <g id="Group_184" data-name="Group 184">
          <g id="Group_183" data-name="Group 183">
            <g id="Group_182" data-name="Group 182">
              <path id="Path_508" data-name="Path 508" d="M210.931,196.467v6.507a7.686,7.686,0,0,0,15.371,0v-6.507Z" transform="translate(-210.931 -196.467)" fill="#e09380"/>
            </g>
          </g>
        </g>
      </g>
      <g id="Group_189" data-name="Group 189" transform="translate(137.574 144.127)">
        <g id="Group_188" data-name="Group 188">
          <g id="Group_187" data-name="Group 187">
            <g id="Group_186" data-name="Group 186">
              <path id="Path_509" data-name="Path 509" d="M281.318,196.467v6.507a7.686,7.686,0,0,0,15.371,0v-6.507Z" transform="translate(-281.318 -196.467)" fill="#e09380"/>
            </g>
          </g>
        </g>
      </g>
      <path id="Path_510" data-name="Path 510" d="M256.325,304.548a93.2,93.2,0,0,1-81.022-92.39V106.826c0-47.095,35.108-65.616,80.579-71.569a92.824,92.824,0,0,0-101.685,67.7L151,182.9v29.257a93.184,93.184,0,0,0,92.132,93.173c.112,0,.223.01.335.011l.721,0q2.481,0,4.93-.132l.072,0,0,0q3.608-.191,7.141-.661Z" transform="translate(-129.363 -34.464)" fill="#e09380"/>
      <g id="Group_193" data-name="Group 193" transform="translate(74.953 115.772)">
        <g id="Group_192" data-name="Group 192">
          <g id="Group_191" data-name="Group 191">
            <g id="Group_190" data-name="Group 190">
              <path id="Path_511" data-name="Path 511" d="M218.616,200.986a7.686,7.686,0,0,1-7.686-7.686v-9.886l2.834-4.29-2.834-4.29v-2.553a7.686,7.686,0,1,1,15.371,0V193.3A7.686,7.686,0,0,1,218.616,200.986Z" transform="translate(-210.93 -164.596)" fill="#20396b"/>
            </g>
          </g>
        </g>
      </g>
      <g id="Group_197" data-name="Group 197" transform="translate(137.573 115.772)">
        <g id="Group_196" data-name="Group 196">
          <g id="Group_195" data-name="Group 195">
            <g id="Group_194" data-name="Group 194">
              <path id="Path_512" data-name="Path 512" d="M289,200.986a7.686,7.686,0,0,1-7.686-7.686v-9.886l2.834-4.29-2.834-4.29v-2.553a7.686,7.686,0,1,1,15.371,0V193.3A7.686,7.686,0,0,1,289,200.986Z" transform="translate(-281.317 -164.596)" fill="#20396b"/>
            </g>
          </g>
        </g>
      </g>
      <g id="Group_201" data-name="Group 201" transform="translate(101.848 133.005)">
        <g id="Group_200" data-name="Group 200">
          <g id="Group_199" data-name="Group 199">
            <g id="Group_198" data-name="Group 198">
              <path id="Path_513" data-name="Path 513" d="M241.682,214.034c-1.91,7.629,1.561,15.94,8.2,18.444a12.021,12.021,0,0,0,8.5,0c6.639-2.505,10.112-10.816,8.2-18.444l-6.333-25.292a6.308,6.308,0,0,0-12.238,0Z" transform="translate(-241.161 -183.966)" fill="#e09380"/>
            </g>
          </g>
        </g>
      </g>
      <g id="Group_203" data-name="Group 203" transform="translate(74.953 123.178)">
        <g id="Group_202" data-name="Group 202">
          <path id="Path_514" data-name="Path 514" d="M213.764,187.167a2.834,2.834,0,0,1-2.834-2.834v-8.58a2.834,2.834,0,0,1,5.667,0v8.58A2.834,2.834,0,0,1,213.764,187.167Z" transform="translate(-210.93 -172.92)" fill="#fff"/>
        </g>
      </g>
      <g id="Group_205" data-name="Group 205" transform="translate(137.573 123.178)">
        <g id="Group_204" data-name="Group 204">
          <path id="Path_515" data-name="Path 515" d="M284.151,187.167a2.834,2.834,0,0,1-2.834-2.834v-8.58a2.834,2.834,0,0,1,5.667,0v8.58A2.834,2.834,0,0,1,284.151,187.167Z" transform="translate(-281.317 -172.92)" fill="#fff"/>
        </g>
      </g>
    </g>
    <g id="Group_207" data-name="Group 207" transform="translate(138.705 45.056)">
      <path id="Path_516" data-name="Path 516" d="M244.617,50.644H173.244V66.62L154.577,82.932V187.965a20.978,20.978,0,0,0,20.978-20.978V111.9a35.414,35.414,0,0,1,35.414-35.414h33.648Z" transform="translate(-154.577 -50.644)" fill="#e09380"/>
    </g>
    <g id="Group_208" data-name="Group 208" transform="translate(135.521 26.618)">
      <path id="Path_517" data-name="Path 517" d="M241.038,45.044,204.317,29.919,171.976,45.941,151,77.333V182.366a20.978,20.978,0,0,0,20.978-20.978V106.306A35.414,35.414,0,0,1,207.39,70.892h33.649Z" transform="translate(-150.998 -29.919)" fill="#755431"/>
    </g>
    <g id="Group_209" data-name="Group 209" transform="translate(190.899 68.487)">
      <path id="Path_518" data-name="Path 518" d="M213.244,76.982c14.993,13.578,39.321,30.672,66.788,30.672s51.795-17.095,66.788-30.672Z" transform="translate(-213.244 -76.982)" fill="#e09380"/>
    </g>
    <path id="Path_519" data-name="Path 519" d="M104.908,357.215a59.992,59.992,0,0,0-45.92,47.242A217.464,217.464,0,0,0,221.46,492.033l-48.989-67.889V342.23Z" transform="translate(-5.324 -37.764)" fill="#6e64c2"/>
    <path id="Path_520" data-name="Path 520" d="M178.942,426.471V363.323H117.628l1.126,94.313a216.5,216.5,0,0,0,107.915,36.648l.081-1.561Z" transform="translate(-11.794 -40.091)" fill="#eb7b5f"/>
    <path id="Path_521" data-name="Path 521" d="M112.273,431.288c0-21.1,11.006-40.927,29.375-51.318a59.908,59.908,0,0,1,16.546-6.344l14.278-3.167V342.23l-67.563,14.985a59.992,59.992,0,0,0-45.92,47.242,218.971,218.971,0,0,0,53.285,50.868Z" transform="translate(-5.324 -37.764)" fill="#eb7b5f"/>
    <g id="Group_210" data-name="Group 210" transform="translate(126.55 293.307)">
      <path id="Path_522" data-name="Path 522" d="M191.7,329.687l-27.708,6.444a12.04,12.04,0,0,0-9.12,9.577l-13.708,75.5a15.112,15.112,0,0,0,12.3,17.593l38.231,6.584,20.85,16.572L191.7,393.964Z" transform="translate(-140.914 -329.687)" fill="#eb7b5f"/>
    </g>
    <path id="Path_523" data-name="Path 523" d="M385.611,357.215,318.048,342.23v81.913l-47.8,66.243.14,1.592a217.723,217.723,0,0,0,161.231-87.062,59.991,59.991,0,0,0-46.007-47.7Z" transform="translate(-28.635 -37.764)" fill="#eb7b5f"/>
    <g id="Group_211" data-name="Group 211" transform="translate(265.161 293.307)">
      <path id="Path_524" data-name="Path 524" d="M310.784,329.687,337.912,336a12.95,12.95,0,0,1,9.808,10.3l13.806,76.043a14.164,14.164,0,0,1-11.344,16.455l-39.4,7.333-14.067-.232,14.067-51.932Z" transform="translate(-296.717 -329.687)" fill="#eb7b5f"/>
    </g>
    <g id="Group_212" data-name="Group 212" transform="translate(175.255 132.752)">
      <path id="Path_525" data-name="Path 525" d="M200.245,161.5a4.583,4.583,0,0,1-1.8-8.8c7.56-3.221,16.328-4.211,26.058-2.946a4.582,4.582,0,1,1-1.182,9.088c-8.086-1.051-15.249-.282-21.283,2.288A4.549,4.549,0,0,1,200.245,161.5Z" transform="translate(-195.66 -149.217)" fill="#755431"/>
    </g>
    <g id="Group_213" data-name="Group 213" transform="translate(166.366 192.872)">
      <circle id="Ellipse_14" data-name="Ellipse 14" cx="5.606" cy="5.606" r="5.606" fill="#e09380"/>
    </g>
    <g id="Group_214" data-name="Group 214" transform="translate(194.507 200.415)">
      <circle id="Ellipse_15" data-name="Ellipse 15" cx="3.653" cy="3.653" r="3.653" fill="#e09380"/>
    </g>
    <g id="Group_215" data-name="Group 215" transform="translate(173.614 212.798)">
      <circle id="Ellipse_16" data-name="Ellipse 16" cx="4.785" cy="4.785" r="4.785" fill="#e09380"/>
    </g>
    <g id="Group_216" data-name="Group 216" transform="translate(246.312 132.752)">
      <path id="Path_526" data-name="Path 526" d="M303.782,161.5a4.566,4.566,0,0,1-1.794-.368c-6.035-2.571-13.2-3.342-21.283-2.288a4.582,4.582,0,1,1-1.182-9.088c9.731-1.267,18.5-.276,26.058,2.946a4.583,4.583,0,0,1-1.8,8.8Z" transform="translate(-275.53 -149.217)" fill="#755431"/>
    </g>
    <g id="Group_217" data-name="Group 217" transform="translate(276.828 192.872)">
      <circle id="Ellipse_17" data-name="Ellipse 17" cx="5.606" cy="5.606" r="5.606" fill="#e09380"/>
    </g>
    <g id="Group_218" data-name="Group 218" transform="translate(252.592 200.415)">
      <circle id="Ellipse_18" data-name="Ellipse 18" cx="3.653" cy="3.653" r="3.653" fill="#e09380"/>
    </g>
    <g id="Group_219" data-name="Group 219" transform="translate(271.222 212.798)">
      <circle id="Ellipse_19" data-name="Ellipse 19" cx="4.785" cy="4.785" r="4.785" fill="#e09380"/>
    </g>
    <g id="Group_220" data-name="Group 220" transform="translate(186.035 226.028)">
      <path id="Path_527" data-name="Path 527" d="M251.377,279.176a59.426,59.426,0,0,1-42.3-17.52,4.448,4.448,0,0,1,6.291-6.291,50.918,50.918,0,0,0,72.012,0,4.448,4.448,0,0,1,6.291,6.291,59.428,59.428,0,0,1-42.3,17.52Z" transform="translate(-207.777 -254.063)" fill="#e09380"/>
    </g>
    <g id="Group_222" data-name="Group 222" transform="translate(300.006 67.591)">
      <path id="Path_529" data-name="Path 529" d="M335.884,75.974v90.5a20.978,20.978,0,0,0,20.977,20.978V82.415l3.492-5.543Z" transform="translate(-335.884 -75.974)" fill="#a37544"/>
    </g>
    <g id="Group_223" data-name="Group 223" transform="translate(299.842 36.136)">
      <path id="Path_530" data-name="Path 530" d="M335.937,80.672V91.1A142.344,142.344,0,0,0,360.99,73.178a109.05,109.05,0,0,0-25.29-32.56V78.409a11.292,11.292,0,0,1,.237,2.263Z" transform="translate(-335.7 -40.618)" fill="#755431"/>
    </g>
    <g id="Group_224" data-name="Group 224" transform="translate(192.381)">
      <path id="Path_531" data-name="Path 531" d="M362.708,47.033s-36.933,47.033-82.492,47.033c-18.432,0-35.453-7.7-49.186-16.866a36.289,36.289,0,0,1,0-60.335C244.763,7.7,261.784,0,280.216,0,325.775,0,362.708,47.033,362.708,47.033Z" transform="translate(-214.911)" fill="#a37544"/>
    </g>
    <path id="Path_532" data-name="Path 532" d="M193.252,458.919l-38.231-6.584L187.831,471,230.8,504.108l.986.059Z" transform="translate(-15.921 -49.913)" fill="#eb7b5f"/>
    <path id="Path_533" data-name="Path 533" d="M270.275,504.126,315.809,470.2l31.34-17.874-39.4,7.333-38.519,44.526q.522-.028,1.043-.06Z" transform="translate(-28.523 -49.912)" fill="#eb7b5f"/>
    <g id="Group_225" data-name="Group 225" transform="translate(177.332 357.584)">
      <path id="Path_534" data-name="Path 534" d="M197.994,401.936v51.422L236.522,498.6l.924.051Z" transform="translate(-197.994 -401.936)" fill="#eb7b5f"/>
      <path id="Path_535" data-name="Path 535" d="M268.173,498.676l.942-.05L307.634,454.1V401.936Z" transform="translate(-205.738 -401.936)" fill="#eb7b5f"/>
    </g>
  </g>
</svg>
